<?xml version="1.0" encoding="UTF-8"?>
<svg width="262px" height="263px" viewBox="0 0 262 263" version="1.1" xmlns="http://www.w3.org/2000/svg" xmlns:xlink="http://www.w3.org/1999/xlink">
    <!-- Generator: Sketch 54.1 (76490) - https://sketchapp.com -->
    <title>air-canada</title>
    <desc>Created with Sketch.</desc>
    <g id="flight-search" stroke="none" stroke-width="1" fill="none" fill-rule="evenodd">
        <g id="air-canada">
            <g id="f2">
                <g id="iconfinder_social_media__vintage__vkontakte__3047510">
                    <path d="M131.055291,263 C200.289374,263 257.004618,209.36673 262,141.282038 L0,141.282038 C4.99757204,209.36673 61.7139108,263 131.055291,263 L131.055291,263 Z M262,121.773302 C257.004618,53.688062 200.288826,0 131.055291,0 C61.7139108,0 4.99757204,53.6875141 0.000547439155,121.773302 L262,121.773302 L262,121.773302 Z" id="Shape" fill="#FF0000"></path>
                    <path d="M130.998903,227 C183.868349,227 227,183.838527 227,131.000274 C227,78.2162961 183.868349,35 130.998903,35 C78.0762479,35 35,78.2162961 35,131.000274 C34.9994515,183.839075 78.0762479,227 130.998903,227 L130.998903,227 Z" id="Path" fill="#E9D9A8"></path>
                    <path d="M4.3861356,122 L257.725597,122 C257.944681,125.267989 258,128.646633 258,131.971353 C258,135.352806 257.944681,138.730326 257.725597,142 L4.3861356,142 C4.16486073,138.730888 4,135.352806 4,131.971353 C4,128.646633 4.16486073,125.267989 4.3861356,122 L4.3861356,122 Z" id="Path" fill="#E9D9A8"></path>
                    <path d="M131.054109,218 C178.434325,218 217,179.336628 217,131.972543 C217,84.5529929 178.434325,46 131.054109,46 C83.6738931,46 45,84.5529929 45,131.972543 C45,179.336628 83.6738931,218 131.054109,218 L131.054109,218 Z" id="Path" fill="#FF0000"></path>
                </g>
                <g id="noun_Flight_879655" transform="translate(74.000000, 92.000000)" fill="#E9D9A8" fill-rule="nonzero">
                    <path d="M29.2735541,19.4975579 L34.7623455,16.0824067 L66.2575533,18.3153902 L53.3196879,26.5905643 L29.2735541,19.4975579 Z M5.22742038,45.8993038 L21.040367,50.7593266 C21.9551656,51.2847345 23.3927062,51.1533825 24.3075048,50.4966227 L27.182586,48.5263431 C51.4900908,31.844643 76.5817086,16.0824067 101.934697,1.10828224 L101.934697,1.10828224 C105.463206,-0.861997298 110.167885,-0.205237452 112.520224,3.07856178 C115.133934,6.75641692 114.219135,11.7477917 110.29857,14.2434792 L82.854613,33.5522186 L65.8654968,74.0086252 L57.8936807,79 C57.8936807,79 63.7745287,43.7976722 63.6438431,43.9290242 L21.040367,62.055596 C19.994883,62.4496519 18.9493989,62.4496519 18.0346003,61.792892 L0,49.183103 L5.22742038,45.8993038 Z" id="Shape"></path>
                </g>
            </g>
        </g>
    </g>
</svg>