<?xml version="1.0" encoding="UTF-8"?>
<svg width="82px" height="82px" viewBox="0 0 82 82" version="1.1" xmlns="http://www.w3.org/2000/svg" xmlns:xlink="http://www.w3.org/1999/xlink">
    <!-- Generator: Sketch 54.1 (76490) - https://sketchapp.com -->
    <title>air-canada</title>
    <desc>Created with Sketch.</desc>
    <g id="flight-search" stroke="none" stroke-width="1" fill="none" fill-rule="evenodd">
        <g id="air-canada" transform="translate(-9.000000, -9.000000)">
            <rect id="Rectangle" x="0" y="0" width="100" height="100"></rect>
            <g transform="translate(9.000000, 9.000000)" id="f2">
                <g>
                    <g id="iconfinder_social_media__vintage__vkontakte__3047510">
                        <path d="M41.0173049,82 C62.6859872,82 80.4365597,65.2778398 82,44.0499129 L0,44.0499129 C1.5641256,65.2778398 19.3150408,82 41.0173049,82 L41.0173049,82 Z M82,37.9673414 C80.4365597,16.7392437 62.6858159,0 41.0173049,0 C19.3150408,0 1.5641256,16.7390728 0.000171335919,37.9673414 L82,37.9673414 L82,37.9673414 Z" id="Shape" fill="#FF0000"></path>
                        <path d="M40.9996566,70.7756654 C57.5465825,70.7756654 71.0458015,57.318476 71.0458015,40.8441919 C71.0458015,24.38683 57.5465825,10.9125475 40.9996566,10.9125475 C24.4360776,10.9125475 10.9541985,24.38683 10.9541985,40.8441919 C10.9540268,57.318647 24.4360776,70.7756654 40.9996566,70.7756654 L40.9996566,70.7756654 Z" id="Path" fill="#E9D9A8"></path>
                        <path d="M1.37276,38.0380228 L80.6622098,38.0380228 C80.7307781,39.0569394 80.7480916,40.1103569 80.7480916,41.1469618 C80.7480916,42.201255 80.7307781,43.2543223 80.6622098,44.2737643 L1.37276,44.2737643 C1.30350603,43.2544974 1.2519084,42.201255 1.2519084,41.1469618 C1.2519084,40.1103569 1.30350603,39.0569394 1.37276,38.0380228 L1.37276,38.0380228 Z" id="Path" fill="#E9D9A8"></path>
                        <path d="M41.0169349,67.9695817 C55.8458574,67.9695817 67.9160305,55.9148423 67.9160305,41.1473327 C67.9160305,26.3625301 55.8458574,14.3422053 41.0169349,14.3422053 C26.1880123,14.3422053 14.0839695,26.3625301 14.0839695,41.1473327 C14.0839695,55.9148423 26.1880123,67.9695817 41.0169349,67.9695817 L41.0169349,67.9695817 Z" id="Path" fill="#FF0000"></path>
                    </g>
                    <g id="noun_Flight_879655" transform="translate(23.160305, 28.684411)" fill="#E9D9A8" fill-rule="nonzero">
                        <path d="M9.16195206,6.0790865 L10.8798181,5.01428651 L20.7370968,5.71050189 L16.6878412,8.29059418 L9.16195206,6.0790865 Z M1.63606287,14.3108095 L6.58515304,15.8261018 C6.87146404,15.9899172 7.32138133,15.9489634 7.60769233,15.7441941 L8.50752691,15.1298865 C16.1152192,9.92874802 23.968321,5.01428651 31.9032259,0.345548075 L31.9032259,0.345548075 C33.0075684,-0.268759614 34.4800249,-0.0639903843 35.2162532,0.959855764 C36.0342847,2.10656345 35.7479737,3.66280959 34.5209265,4.44093267 L25.9315964,10.461148 L20.6143921,23.0749326 L18.1193963,24.6311787 C18.1193963,24.6311787 19.959967,13.655548 19.9190654,13.6965018 L6.58515304,19.3481326 C6.25794047,19.4709941 5.93072789,19.4709941 5.64441689,19.2662249 L0,15.3346557 L1.63606287,14.3108095 Z" id="Shape"></path>
                    </g>
                </g>
            </g>
        </g>
    </g>
</svg>