<?xml version="1.0" encoding="UTF-8"?>
<svg width="262px" height="263px" viewBox="0 0 262 263" version="1.1" xmlns="http://www.w3.org/2000/svg" xmlns:xlink="http://www.w3.org/1999/xlink">
    <!-- Generator: Sketch 54.1 (76490) - https://sketchapp.com -->
    <title>alaska-airlines</title>
    <desc>Created with Sketch.</desc>
    <g id="flight-search" stroke="none" stroke-width="1" fill="none" fill-rule="evenodd">
        <g id="alaska-airlines">
            <g id="f4">
                <g id="iconfinder_social_media__vintage__digg__3047521">
                    <path d="M131.055291,263 C200.289374,263 257.002975,209.355107 262,141.25566 L0,141.25566 C4.99757204,209.355655 61.711721,263 131.055291,263 L131.055291,263 Z M262,121.74434 C257.002975,53.644345 200.288826,0 131.055291,0 C61.711721,0 4.99757204,53.644345 0.000547439155,121.74434 L262,121.74434 L262,121.74434 Z" id="Shape" fill="#4A772F"></path>
                    <path d="M130.998903,228 C183.868349,228 227,184.826076 227,131.973129 C227,79.1744726 183.868349,36 130.998903,36 C78.0762479,36 35,79.1739242 35,131.973129 C34.9994515,184.826076 78.0762479,228 130.998903,228 L130.998903,228 Z" id="Path" fill="#E9D9A8"></path>
                    <path d="M4.3861356,122 L257.670279,122 C257.944681,125.268172 258,128.648129 258,131.971913 C258,135.352432 257.944681,138.730704 257.670279,142 L4.3861356,142 C4.16650386,138.731266 4,135.352432 4,131.971913 C4,128.648129 4.16650386,125.268734 4.3861356,122 L4.3861356,122 Z" id="Path" fill="#E9D9A8"></path>
                    <path d="M131.054109,218 C178.434325,218 217,179.335228 217,131.971994 C217,84.6082104 178.434325,46 131.054109,46 C83.6738931,46 45,84.6082104 45,131.971994 C45,179.335228 83.6738931,218 131.054109,218 L131.054109,218 Z" id="Path" fill="#4A772F"></path>
                    <path d="M118.271625,100 L111.514417,100 C110.596066,100 110,101.813591 110,102.82735 L110,109.446319 C110,110.353647 110.595527,109.872577 111.514417,109.872577 L118.271625,109.872577 C119.189976,109.872577 120,110.353647 120,109.446319 L120,102.82735 C120,101.813591 119.189976,100 118.271625,100 L118.271625,100 Z" id="Path" fill="#E9D9A8"></path>
                </g>
                <g id="noun_Flight_879655" transform="translate(65.000000, 107.000000)" fill="#E9D9A8" fill-rule="nonzero">
                    <path d="M29.2735541,19.4975579 L34.7623455,16.0824067 L66.2575533,18.3153902 L53.3196879,26.5905643 L29.2735541,19.4975579 Z M5.22742038,45.8993038 L21.040367,50.7593266 C21.9551656,51.2847345 23.3927062,51.1533825 24.3075048,50.4966227 L27.182586,48.5263431 C51.4900908,31.844643 76.5817086,16.0824067 101.934697,1.10828224 L101.934697,1.10828224 C105.463206,-0.861997298 110.167885,-0.205237452 112.520224,3.07856178 C115.133934,6.75641692 114.219135,11.7477917 110.29857,14.2434792 L82.854613,33.5522186 L65.8654968,74.0086252 L57.8936807,79 C57.8936807,79 63.7745287,43.7976722 63.6438431,43.9290242 L21.040367,62.055596 C19.994883,62.4496519 18.9493989,62.4496519 18.0346003,61.792892 L0,49.183103 L5.22742038,45.8993038 Z" id="Shape"></path>
                </g>
            </g>
        </g>
    </g>
</svg>