<?xml version="1.0" encoding="UTF-8"?>
<svg width="82px" height="82px" viewBox="0 0 82 82" version="1.1" xmlns="http://www.w3.org/2000/svg" xmlns:xlink="http://www.w3.org/1999/xlink">
    <!-- Generator: Sketch 54.1 (76490) - https://sketchapp.com -->
    <title>american-airlines</title>
    <desc>Created with Sketch.</desc>
    <g id="flight-search" stroke="none" stroke-width="1" fill="none" fill-rule="evenodd">
        <g id="american-airlines" transform="translate(-9.000000, -9.000000)">
            <rect id="Rectangle" x="0" y="0" width="100" height="100"></rect>
            <g transform="translate(9.000000, 9.000000)" id="f1">
                <g>
                    <g id="iconfinder_social_media__vintage__instagram_3047480" transform="translate(0.000000, 0.000000)">
                        <path d="M41.0172542,81.990775 C62.622375,81.990775 80.3203667,65.2687542 81.8797333,44.0410042 L0.120266667,44.0410042 C1.67980417,65.268925 19.3779667,81.990775 41.0172542,81.990775 L41.0172542,81.990775 Z M81.8797333,37.9589958 C80.3203667,16.731075 62.6222042,0.009225 41.0172542,0.009225 C19.3779667,0.009225 1.67980417,16.731075 0.1204375,37.9589958 L81.8797333,37.9589958 L81.8797333,37.9589958 Z" id="Shape" fill="#00ADB5"></path>
                        <path d="M41.0172542,70.9059125 C57.4823417,70.9059125 70.9141125,57.456375 70.9141125,40.9916292 C70.9141125,24.5437958 57.4823417,11.0940875 41.0172542,11.0940875 C24.5350833,11.0940875 11.1197125,24.543625 11.1197125,40.9916292 C11.1197125,57.456375 24.5349125,70.9059125 41.0172542,70.9059125 L41.0172542,70.9059125 Z" id="Path" fill="#E9D9A8"></path>
                        <path d="M1.50794583,37.958825 L80.5257083,37.958825 C80.594725,38.9527333 80.6119792,39.9809792 80.6119792,40.9914583 C80.6119792,42.0200458 80.594725,43.046925 80.5257083,44.041175 L1.50794583,44.041175 C1.4396125,43.0470958 1.38819167,42.0200458 1.38819167,40.9914583 C1.38819167,39.9809792 1.4396125,38.9529042 1.50794583,37.958825 L1.50794583,37.958825 Z" id="Path" fill="#E9D9A8"></path>
                        <path d="M41.0172542,67.7538667 C55.7518,67.7538667 67.7444708,55.7256625 67.7444708,40.9914583 C67.7444708,26.2570833 55.7518,14.246475 41.0172542,14.246475 C26.2827083,14.246475 14.2550167,26.2570833 14.2550167,40.9914583 C14.2550167,55.7256625 26.2827083,67.7538667 41.0172542,67.7538667 L41.0172542,67.7538667 Z" id="Path" fill="#A20A0A"></path>
                        <path d="M47.8253231,23.9241074 C47.0716065,23.9241074 46.4548981,24.5239032 46.4548981,25.2776199 C46.4548981,26.0491032 47.0716065,26.6487282 47.8253231,26.6487282 C48.5790398,26.6487282 49.195919,26.0489324 49.195919,25.2776199 C49.195919,24.5239032 48.5790398,23.9241074 47.8253231,23.9241074 L47.8253231,23.9241074 Z" id="Path" fill="#E9D9A8"></path>
                    </g>
                    <g id="noun_Flight_879655" transform="translate(20.500000, 28.472222)" fill="#E9D9A8" fill-rule="nonzero">
                        <path d="M10.5282081,7.02707345 L12.5022471,5.79622606 L23.8294709,6.60101089 L19.176379,9.5834488 L10.5282081,7.02707345 Z M1.88003715,16.5424706 L7.56714955,18.2940611 C7.89615605,18.4834222 8.41316627,18.436082 8.74217277,18.1993805 L9.7761932,17.4892763 C18.518366,11.4770602 27.5425443,5.79622606 36.6607245,0.399433649 L36.6607245,0.399433649 C37.9297496,-0.310670616 39.621783,-0.0739691942 40.4677998,1.10953791 C41.4078183,2.43506587 41.0788118,4.23399667 39.668784,5.13346208 L29.7985889,12.0924839 L23.6884681,26.6732914 L20.8214115,28.4722222 C20.8214115,28.4722222 22.9364533,15.785026 22.8894524,15.8323663 L7.56714955,22.3653256 C7.19114212,22.5073464 6.81513469,22.5073464 6.48612818,22.270645 L2.84217094e-14,17.7259777 L1.88003715,16.5424706 Z" id="Shape"></path>
                    </g>
                </g>
            </g>
        </g>
    </g>
</svg>