<?xml version="1.0" encoding="UTF-8"?>
<svg width="216px" height="216px" viewBox="0 0 216 216" version="1.1" xmlns="http://www.w3.org/2000/svg" xmlns:xlink="http://www.w3.org/1999/xlink">
    <!-- Generator: Sketch 54.1 (76490) - https://sketchapp.com -->
    <title>american-airlines</title>
    <desc>Created with Sketch.</desc>
    <g id="flight-search" stroke="none" stroke-width="1" fill="none" fill-rule="evenodd">
        <g id="american-airlines">
            <g id="f1">
                <g id="iconfinder_social_media__vintage__instagram_3047480" transform="translate(0.000000, 0.000000)">
                    <path d="M108.04545,215.9757 C164.9565,215.9757 211.5756,171.92745 215.6832,116.01045 L0.3168,116.01045 C4.42485,171.9279 51.0444,215.9757 108.04545,215.9757 L108.04545,215.9757 Z M215.6832,99.98955 C211.5756,44.0721 164.95605,0.0243 108.04545,0.0243 C51.0444,0.0243 4.42485,44.0721 0.31725,99.98955 L215.6832,99.98955 L215.6832,99.98955 Z" id="Shape" fill="#00ADB5"></path>
                    <path d="M108.04545,186.77655 C151.4169,186.77655 186.79815,151.3485 186.79815,107.97795 C186.79815,64.65195 151.4169,29.22345 108.04545,29.22345 C64.629,29.22345 29.29095,64.6515 29.29095,107.97795 C29.29095,151.3485 64.62855,186.77655 108.04545,186.77655 L108.04545,186.77655 Z" id="Path" fill="#E9D9A8"></path>
                    <path d="M3.97215,99.9891 L212.1165,99.9891 C212.2983,102.6072 212.34375,105.31575 212.34375,107.9775 C212.34375,110.68695 212.2983,113.3919 212.1165,116.0109 L3.97215,116.0109 C3.79215,113.39235 3.6567,110.68695 3.6567,107.9775 C3.6567,105.31575 3.79215,102.60765 3.97215,99.9891 L3.97215,99.9891 Z" id="Path" fill="#E9D9A8"></path>
                    <path d="M108.04545,178.4736 C146.8584,178.4736 178.44885,146.78955 178.44885,107.9775 C178.44885,69.165 146.8584,37.5273 108.04545,37.5273 C69.2325,37.5273 37.5498,69.165 37.5498,107.9775 C37.5498,146.78955 69.2325,178.4736 108.04545,178.4736 L108.04545,178.4736 Z" id="Path" fill="#A20A0A"></path>
                    <path d="M125.9789,63.0196 C123.9935,63.0196 122.369,64.59955 122.369,66.58495 C122.369,68.61715 123.9935,70.19665 125.9789,70.19665 C127.9643,70.19665 129.58925,68.6167 129.58925,66.58495 C129.58925,64.59955 127.9643,63.0196 125.9789,63.0196 L125.9789,63.0196 Z" id="Path" fill="#E9D9A8"></path>
                </g>
                <g id="noun_Flight_879655" transform="translate(54.000000, 75.000000)" fill="#E9D9A8" fill-rule="nonzero">
                    <path d="M27.7328408,18.5103398 L32.9327484,15.2681077 L62.7703137,17.3880287 L50.5133885,25.2442066 L27.7328408,18.5103398 Z M4.95229299,43.5752884 L19.9329793,48.1892341 C20.7996306,48.6880391 22.1615111,48.5633378 23.0281624,47.9398317 L25.7519236,46.0693131 C48.780086,30.2322561 72.5510923,15.2681077 96.5697134,1.05216668 L96.5697134,1.05216668 C99.9125111,-0.818351865 104.369575,-0.194845682 106.598107,2.92268523 C109.074253,6.41431986 108.207602,11.1529669 104.493382,13.5222903 L78.4938439,31.8533721 L62.3988917,70.261353 L54.8466449,75 C54.8466449,75 60.4179745,41.5800686 60.2941672,41.7047698 L19.9329793,58.9135405 C18.9425207,59.2876442 17.9520621,59.2876442 17.0854108,58.664138 L2.84217094e-14,46.6928193 L4.95229299,43.5752884 Z" id="Shape"></path>
                </g>
            </g>
        </g>
    </g>
</svg>