<?xml version="1.0" encoding="UTF-8"?>
<svg width="187px" height="139px" viewBox="0 0 187 139" version="1.1" xmlns="http://www.w3.org/2000/svg" xmlns:xlink="http://www.w3.org/1999/xlink">
    <!-- Generator: Sketch 54.1 (76490) - https://sketchapp.com -->
    <title>noun_Air tickets_2345051</title>
    <desc>Created with Sketch.</desc>
    <g id="flight-search" stroke="none" stroke-width="1" fill="none" fill-rule="evenodd">
        <g id="thanks-for-booking" transform="translate(-94.000000, -285.000000)" fill-rule="nonzero">
            <g id="noun_Air-tickets_2345051" transform="translate(94.000000, 284.000000)">
                <g id="Group">
                    <path d="M13.7908656,64.0144016 C13.7908656,58.2388329 18.4378043,53.5362321 24.1690288,53.5362321 L176.975866,53.5362321 L161.331172,5.14652647 C160.324335,2.04410945 156.877855,0.249000227 153.779896,1.26362718 L4.69061046,50.1998655 C3.16099311,50.707179 1.94117168,51.7805372 1.20540638,53.2242343 C0.489003316,54.6486144 0.353467602,56.2878223 0.856885969,57.8290797 L13.7908656,97.828796 L13.7908656,64.0144016 Z" id="Path" fill="#2FB735"></path>
                    <path d="M186.444197,133.145619 L186.444197,64.0144016 C186.444197,60.384964 183.520498,57.4386434 179.918927,57.4386434 L24.1690288,57.4386434 C20.5870135,57.4386434 17.6633145,60.384964 17.6633145,64.0144016 L17.6633145,133.145619 C17.6633145,136.774861 20.5870135,139.721182 24.1690288,139.721182 L179.918927,139.721182 C183.520498,139.721182 186.444197,136.774861 186.444197,133.145619 Z M90.6715633,71.2424479 L99.9575023,71.2424479 L99.9575023,75.1448593 L90.6715633,75.1448593 L90.6715633,71.2424479 L90.6715633,71.2424479 Z M90.6715633,83.9367969 L156.071999,83.9367969 L156.071999,87.8392083 L90.6715633,87.8392083 L90.6715633,83.9367969 Z M90.6715633,96.6299752 L101.322734,96.6299752 L101.322734,100.532387 L90.6715633,100.532387 L90.6715633,96.6299752 Z M90.6715633,109.323349 L149.045634,109.323349 L149.045634,113.22576 L90.6715633,113.22576 L90.6715633,109.323349 Z M70.0631643,125.62177 L70.0631643,128.157947 L60.1853214,125.518941 C58.4508515,130.232469 54.9311827,130.286907 53.1721227,125.518941 L43.2962161,128.157947 L43.2962161,125.62177 C43.2962161,120.21732 47.8246579,118.238993 50.9276513,114.991991 C50.3130936,110.593193 49.8253587,105.463669 49.5207906,100.220779 L27.3450179,110.717095 L27.7893814,107.195754 C29.2659462,95.503349 39.5829247,92.9289283 49.2429423,84.8407905 C49.5209842,76.0336335 50.7197008,68.1250066 56.6795934,68.1250066 C62.639486,68.1250066 63.8383962,76.0336335 64.1162444,84.8407905 C73.802401,92.9505867 84.0961449,95.5246172 85.5698054,107.195754 L86.0141689,110.716119 L63.8364599,100.220779 C63.5320855,105.446498 63.0480293,110.558852 62.4371505,114.948089 C66.082674,118.595283 70.0631643,120.560147 70.0631643,125.62177 Z M101.322541,125.920109 L90.6713696,125.920109 L90.6713696,122.017698 L101.322541,122.017698 L101.322541,125.920109 Z M172.027069,125.920109 L109.033555,125.920109 L109.033555,122.017698 L172.027069,122.017698 L172.027069,125.920109 L172.027069,125.920109 Z M172.026876,113.22576 L155.38948,113.22576 L155.38948,109.323349 L172.027069,109.323349 L172.027069,113.22576 L172.026876,113.22576 Z M172.026876,100.532387 L108.64205,100.532387 L108.64205,96.6299752 L172.026876,96.6299752 L172.026876,100.532387 Z M172.026876,87.8392083 L161.147037,87.8392083 L161.147037,83.9367969 L172.026876,83.9367969 L172.026876,87.8392083 Z M172.027069,75.1448593 L104.93418,75.1448593 L104.93418,71.2424479 L172.027069,71.2424479 L172.027069,75.1448593 L172.027069,75.1448593 Z" id="Shape" fill="#2FB735"></path>
                    <path d="M80.6821939,103.882216 C78.1761385,98.1257695 74.095739,97.3616773 60.2970416,86.8948247 C60.1353668,83.8404074 60.0567561,72.027418 56.679787,72.027418 C53.299139,72.027418 53.2081365,84.1438199 53.0625324,86.8948247 C39.250475,97.3716285 35.1909867,98.1078184 32.6773801,103.882216 L53.1097763,94.2110655 C53.4939232,98.6588389 52.725823,96.804413 55.0177319,116.215397 C49.8315546,121.580042 49.4766446,121.212825 48.1937023,122.812229 L55.81565,120.775365 C56.2588518,122.362671 56.3990344,122.974764 56.679787,123.799343 C56.9783528,122.907057 57.1053691,122.336329 57.5400515,120.775365 L65.1337304,122.803838 C64.0562214,121.490092 61.1367821,119.262985 58.9771173,116.964465 L58.3304184,116.274714 C60.7005508,96.2348561 59.8780426,98.521474 60.2476679,94.2122363 L80.6821939,103.882216 Z" id="Path" fill="#000000"></path>
                </g>
            </g>
        </g>
    </g>
</svg>