<?xml version="1.0" encoding="UTF-8"?>
<svg width="225px" height="226px" viewBox="0 0 225 226" version="1.1" xmlns="http://www.w3.org/2000/svg" xmlns:xlink="http://www.w3.org/1999/xlink">
    <!-- Generator: Sketch 54.1 (76490) - https://sketchapp.com -->
    <title>delta</title>
    <desc>Created with Sketch.</desc>
    <g id="flight-search" stroke="none" stroke-width="1" fill="none" fill-rule="evenodd">
        <g id="delta">
            <g id="f5">
                <g id="iconfinder_social_media__vintage__google_plus__3047478">
                    <path d="M112.548893,226 C172.004455,226 220.70868,179.912095 225,121.405858 L0,121.405858 C4.29179012,179.912095 52.9964855,226 112.548893,226 L112.548893,226 Z M225,104.641697 C220.70868,46.1349886 172.003985,0 112.548893,0 C52.9964855,0 4.29226025,46.1345178 0.000470127081,104.641697 L225,104.641697 L225,104.641697 Z" id="Shape" fill="#00B906"></path>
                    <path d="M112.053207,195.507937 C157.470748,195.507937 194.521912,158.412477 194.521912,113.000236 C194.521912,67.6346407 157.470748,30.4920635 112.053207,30.4920635 C66.5875989,30.4920635 29.5816733,67.6346407 29.5816733,113.000236 C29.5816733,158.412948 66.5871276,195.507937 112.053207,195.507937 L112.053207,195.507937 Z" id="Path" fill="#E9D9A8"></path>
                    <path d="M3.91680323,104.928571 L221.177139,104.928571 C221.368781,107.712846 221.414343,110.593311 221.414343,113.424006 C221.414343,116.30495 221.368781,119.182544 221.177139,121.968254 L3.91680323,121.968254 C3.72844934,119.183022 3.58565737,116.30495 3.58565737,113.424006 C3.58565737,110.592833 3.72844934,107.712846 3.91680323,104.928571 L3.91680323,104.928571 Z" id="Path" fill="#E9D9A8"></path>
                    <path d="M112.098744,186.539683 C152.594008,186.539683 185.557769,153.478147 185.557769,112.976521 C185.557769,72.4274669 152.594008,39.4603175 112.098744,39.4603175 C71.6011336,39.4603175 38.5458167,72.4274669 38.5458167,112.976521 C38.5458167,153.478147 71.6011336,186.539683 112.098744,186.539683 L112.098744,186.539683 Z" id="Path" fill="#FD367E"></path>
                </g>
                <g id="noun_Flight_879655" transform="translate(58.000000, 78.000000)" fill="#E9D9A8" fill-rule="nonzero">
                    <path d="M26.1921274,17.5231217 L31.1031513,14.4538086 L59.283074,16.4606672 L47.7070892,23.8978489 L26.1921274,17.5231217 Z M4.6771656,41.251273 L18.8255916,45.6191416 C19.6440955,46.0913437 20.9303161,45.9732932 21.7488201,45.3830406 L24.3212611,43.6122831 C46.0700812,28.6198691 68.5204761,14.4538086 91.2047293,0.996051128 L91.2047293,0.996051128 C94.3618161,-0.774706433 98.5712651,-0.184453913 100.67599,2.76680869 C103.014572,6.0722228 102.196068,10.558142 98.6881943,12.8011015 L74.1330748,30.1545256 L58.9322866,66.5140808 L51.7996091,71 C51.7996091,71 57.0614204,39.3624649 56.9444912,39.4805154 L18.8255916,55.771485 C17.8901584,56.1256365 16.9547253,56.1256365 16.1362213,55.535384 L0,44.2025356 L4.6771656,41.251273 Z" id="Shape"></path>
                </g>
            </g>
        </g>
    </g>
</svg>