<?xml version="1.0" encoding="UTF-8"?>
<svg width="688px" height="690px" viewBox="0 0 688 690" version="1.1" xmlns="http://www.w3.org/2000/svg" xmlns:xlink="http://www.w3.org/1999/xlink">
    <!-- Generator: Sketch 54.1 (76490) - https://sketchapp.com -->
    <title>noun_Travel_49736</title>
    <desc>Created with Sketch.</desc>
    <g id="extra-screens" stroke="none" stroke-width="1" fill="none" fill-rule="evenodd">
        <g id="noun_Travel_49736" fill="#000000" fill-rule="nonzero">
            <g id="Group">
                <polygon id="Path" points="335.289359 232.372699 335.978898 232.851457 336.077404 233.406209 336.706324 233.793776 336.342611 234.280134 336.138022 234.766492 336.236528 235.518827 336.622973 236.050781 336.948799 235.518827 337.608029 235.002071 338.532466 235.161657 338.600662 235.724009 338.3203 236.658728 338.426383 237.236278 338.532466 237.973414 338.388496 238.923332 338.524889 239.75926 339.055303 239.668068 339.941854 239.546478 340.684434 239.40969 341.692222 239.250104 342.677278 238.968928 342.737897 239.386892 342.677278 239.835253 342.510576 240.762373 342.737897 241.324724 343.427436 241.111943 344.541307 241.218333 344.579194 241.826281 344.548885 242.578616 344.662545 243.277755 344.147285 243.786911 343.389549 244.653236 342.806093 244.72923 341.752841 244.470852 341.169385 244.402458 340.540465 244.470852 341.010261 245.610754 341.18454 246.507476 341.093611 246.933039 340.540465 247.495391 340.904178 247.867758 341.517943 247.761367 342.055935 248.43011 341.81346 248.916468 341.2982 249.304034 340.63897 249.980376 339.729688 250.595922 339.63876 251.029085 339.729688 251.77382 340.131288 252.47296 340.752631 252.647745 340.805672 252.032198 341.631604 251.606635 342.389339 252.541354 343.139497 252.427364 343.806304 252.191784 344.359451 251.948605 345.033835 251.705426 346.07951 251.561039 346.19317 252.260178 345.82188 252.769334 344.821669 252.951719 344.207904 253.020113 343.374395 253.27849 342.783361 253.415278 342.237792 253.559666 341.578562 254.160014 341.252736 254.805958 340.904178 255.459502 340.707166 256.211836 340.472268 256.720992 339.964586 257.252946 339.434171 257.579718 339.411439 258.514437 339.676646 259.06159 340.934487 258.734818 341.18454 258.24846 341.495211 257.268145 341.81346 256.789387 342.389339 256.576605 343.207693 256.888178 343.624447 256.812185 344.200326 256.74379 344.927752 256.6374 345.033835 255.695081 345.45059 255.368309 346.670543 255.413906 347.428279 255.505098 348.019312 255.413906 348.51184 254.874352 349.155915 254.190411 349.57267 253.947232 350.148549 253.886438 350.891129 253.924434 351.338193 253.886438 351.732215 253.802845 353.020366 253.901636 353.853874 253.802845 354.422176 253.704053 354.952591 253.149301 355.672439 253.042911 356.331669 252.647745 356.702959 252.282976 356.756001 251.65983 356.422597 251.295062 355.702749 251.401453 355.043519 251.211469 355.066251 250.451535 355.172334 249.980376 355.172334 249.243239 355.672439 249.174845 356.263473 249.076054 356.756001 248.840474 357.195487 248.452908 357.400076 247.867758 357.475849 247.426996 357.422808 247.009033 357.498581 245.473965 356.634763 244.858419 355.914914 244.84322 355.081406 244.919213 354.543414 245.473965 354.020576 246.317492 353.641708 245.88433 353.027943 245.405571 353.073407 244.508849 352.883973 243.475338 352.164125 242.87499 353.027943 242.639411 352.626343 241.902274 352.141393 241.689493 351.63371 241.301926 350.891129 241.26393 350.656231 240.709178 350.269786 240.184823 348.754316 238.968928 347.716218 238.94613 347.375237 238.558564 347.125185 237.973414 347.019102 237.236278 346.670543 236.765119 346.003736 235.458032 345.086877 235.458032 344.927752 235.070465 344.541307 234.515713 343.927542 234.454919 343.427436 234.394124 343.374395 233.770978 343.556251 233.193428 343.510787 231.985132 343.480478 231.536771 343.859345 231.187201 344.207904 230.564055 344.76105 230.199287 344.617081 229.477349 344.639813 229.165776 344.662545 228.565428 344.624658 228.284252 344.579194 228.109467 344.154862 227.311536 343.427436 227.258341 342.813671 227.334335 342.389339 227.38753 341.2982 227.866289 340.707166 227.957481 339.86608 228.086669 339.229583 228.041073 339.1235 227.311536 339.146232 226.414814 339.820616 226.034847 339.729688 225.457297 340.517733 224.834151 340.585929 223.527064 340.449536 223.086302 339.676646 222.903918 338.774941 223.200292 338.017206 223.876634 337.608029 223.92223 337.206429 223.648653 336.645705 223.68665 336.751788 224.271799 336.676014 224.72776 336.183486 225.510492 336.031939 226.247629 336.160754 226.992364 335.925856 227.630709 335.22874 227.957481 335.334823 228.633822 335.122657 229.104981 335.334823 229.887714 335.357555 229.940909 335.60003 230.526058 335.577298 230.746439 335.471215 231.475976"></polygon>
                <polygon id="Path" points="336.910912 241.963069 337.077614 241.180337 336.418384 240.503995 336.031939 240.154426 335.683381 239.75926 335.190853 239.386892 334.630129 239.470485 334.425541 240.207621 333.455639 240.671181 333.614764 240.245618 333.751156 239.880849 333.705692 239.2957 333.198009 238.794143 332.379655 239.516081 331.667384 239.599674 331.07635 239.546478 330.833875 240.063233 330.598977 240.526793 330.530781 240.967555 330.727792 241.408317 330.833875 241.963069 330.265574 242.198649 329.780623 242.87499 329.591189 243.498136 328.848609 243.642524 328.265152 243.733716 327.72716 243.954097 327.825666 244.402458 327.878707 244.797624 328.0151 245.945125 326.886074 246.287095 327.030044 247.168619 327.113395 247.738569 327.477108 248.164133 327.916594 248.095739 328.484896 248.027344 329.030465 247.609381 329.538148 247.085026 330.000366 247.449794 329.629076 247.799364 329.568457 248.285722 329.629076 248.703686 329.432065 249.334431 329.182012 249.790392 328.681907 251.234267 328.257575 252.320973 327.340715 253.202497 327.878707 253.559666 328.12876 254.160014 328.568246 254.357597 328.681907 254.935147 329.075929 254.859154 329.492684 254.539981 330.159491 254.236007 330.697483 254.805958 331.341558 255.003541 332.13718 254.418392 332.599398 253.559666 333.084349 252.951719 333.531413 252.837728 334.387654 252.731338 334.45585 252.260178 334.471005 251.393853 335.069616 251.295062 335.554566 250.770707 335.744 249.752395 336.213796 249.030458 336.009207 248.597295 335.554566 247.776566 335.471215 246.910241 335.334823 246.309893 335.403019 245.755141 335.304514 245.131995 335.334823 244.402458 335.865238 243.733716 336.532045 243.300553 337.160965 242.783798 336.948799 242.365834"></polygon>
                <polygon id="Path" points="167.640417 382.649699 166.981187 382.003755 164.980766 381.882165 162.699983 382.094947 161.480029 381.669384 158.691563 382.695295 157.69893 383.835196 157.327639 384.25316 156.736606 385.157482 156.281965 386.092201 156.713874 386.715347 157.797435 386.411374 158.145993 386.092201 158.714295 384.861108 159.411411 383.903591 160.487396 383.417233 161.67704 383.037266 162.631787 383.804799 163.071273 384.481141 163.601688 384.116372 164.298804 383.994783 165.086849 384.458343 165.715769 384.063177 167.481293 385.393062 167.913202 386.312582 169.587797 386.023807 170.883524 385.99341 171.451826 386.768543 171.739765 387.847649 172.8991 388.022434 174.07359 388.242815 174.747975 388.987551 174.399416 390.332634 174.21756 391.031774 174.808593 391.153363 176.877211 390.644207 178.877632 389.80068 179.567171 389.542303 180.65831 389.519505 182.279864 389.413114 181.400891 387.566474 179.567171 387.710861 178.983715 387.437285 177.960772 385.628641 176.718086 385.849022 175.096533 385.507052 174.725242 385.035893 173.528021 384.572333 169.527178 383.782001"></polygon>
                <polygon id="Path" points="184.166625 393.410368 182.704195 393.364772 182.901207 394.595866 183.833221 395.044227 185.250186 394.839045 186.598955 394.66426 186.621687 394.66426 187.440041 394.519872 188.197777 394.398283 190.584643 394.466677 190.963511 395.00623 191.471193 394.694657 191.834906 393.942322 191.65305 392.848017 192.221351 393.083596 193.267026 393.326775 194.055071 393.053199 195.14621 392.331262 196.214616 392.012089 197.32091 391.844904 198.290811 391.548529 197.184518 390.15785 194.638527 389.945068 192.903313 389.101541 191.122635 388.668378 188.81912 389.147137 187.182411 389.846276 186.947513 392.012089 187.879528 392.566841 188.061384 393.539557 187.296072 393.775137 186.811121 393.889127 186.417099 393.889127 185.075907 393.843531"></polygon>
                <polygon id="Path" points="176.952984 394.801048 173.096112 395.12022 172.580851 396.328516 173.95993 396.693284 174.717665 397.020056 175.308699 397.354427 175.983083 397.825586 176.596849 397.331629 177.619791 396.716082 177.960772 396.092936 177.45309 395.416595"></polygon>
                <path d="M344.147285,89.2542791 C203.625268,89.2542791 89.3133161,203.905561 89.3133161,344.83537 C89.3133161,485.734782 203.625268,600.370865 344.147285,600.370865 C484.638992,600.370865 598.950944,485.734782 598.950944,344.83537 C598.950944,203.905561 484.638992,89.2542791 344.147285,89.2542791 Z M492.276964,272.489628 L492.466398,273.04438 L492.595213,273.523139 L492.951349,273.85751 L493.231711,273.424348 L493.951559,273.226765 L494.110684,273.181169 L494.641099,273.082377 L494.989657,273.158371 L494.989657,273.181169 L494.966925,273.545937 L494.641099,274.66304 L495.171513,275.635756 L495.588268,276.190508 L495.898939,276.74526 L495.997445,276.85925 L496.330848,277.170823 L496.543014,277.611585 L496.618788,278.01435 L496.361158,278.189135 L496.247498,278.242331 L496.005022,278.895874 L496.429354,280.050974 L496.474818,280.886902 L496.618788,281.83682 L496.543014,282.285181 L496.543014,282.315578 L496.686984,283.303493 L496.914305,283.713857 L496.944614,284.215414 L496.762758,284.602981 L496.148992,284.72457 L495.876207,284.359802 L495.148781,284.215414 L494.641099,284.314206 L493.997024,284.633378 L493.436299,284.83856 L493.00439,285.41611 L492.496708,285.849273 L491.284331,285.872071 L490.034068,285.355315 L489.715819,284.800563 L489.246023,284.640977 L488.556484,284.542186 L488.056379,284.215414 L487.404726,284.071027 L486.836425,284.215414 L486.275701,284.26101 L485.601316,284.002632 L485.101211,283.881043 L484.942086,283.615066 L484.775385,283.303493 L484.722343,282.87033 L484.684456,282.581555 L484.055536,281.72283 L483.72971,281.168078 L483.055325,280.658922 L482.918933,279.838193 L483.199295,279.321437 L483.638782,278.401917 L483.72971,278.044748 L483.941876,276.935244 L484.078268,276.304498 L484.123732,275.658554 L484.495023,275.1266 L484.404094,274.427461 L484.24497,273.614331 L484.290434,273.036781 L485.010283,272.915192 L485.472501,272.717609 L485.283067,272.390837 L484.782962,272.079264 L484.305589,272.178055 L483.744865,271.646101 L483.267491,271.022955 L483.10079,270.764578 L482.547643,269.966647 L482.365786,269.723468 L481.842949,269.434693 L481.032172,268.712755 L480.524489,268.454377 L480.085003,268.036414 L479.941033,267.101694 L479.296958,266.660933 L478.440717,265.756611 L477.758755,263.22603 L477.235918,262.75487 L477.084371,261.873347 L477.342001,261.197005 L476.819164,260.801839 L476.190243,260.543462 L475.637097,260.824637 L475.280961,261.128611 L475.099104,260.589058 L475.099104,259.730332 L475.159723,258.537235 L475.432508,256.318227 L475.546168,255.444303 L475.697715,254.114418 L476.319058,253.567265 L476.705503,252.890924 L477.099526,253.172099 L477.895148,253.567265 L478.789276,252.457761 L478.31948,252.298175 L478.114891,251.827016 L479.024173,251.591436 L479.425773,251.743423 L480.047116,252.0094 L480.441139,251.591436 L480.509335,250.922694 L480.812429,250.588323 L482.403673,250.823903 L482.774963,250.73271 L483.335687,249.661203 L483.365997,249.281236 L483.631204,248.566898 L483.919144,248.30852 L484.601105,248.027344 L485.328531,247.943752 L485.64678,248.620093 L486.321165,249.00766 L486.601527,249.174845 L487.283489,249.174845 L487.548696,249.174845 L488.382205,249.045656 L488.844423,249.653604 L489.405147,250.025972 L490.753916,250.375541 L491.845055,250.535128 L492.019334,251.492645 L492.352738,252.282976 L492.837689,252.951719 L493.337794,253.324086 L493.815167,253.86364 L493.890941,254.43359 L493.754548,255.178326 L493.224134,255.755876 L492.451244,256.113045 L491.663199,255.877465 L491.178248,255.581091 L490.549328,255.558293 L489.829479,255.322713 L489.412725,255.223922 L489.200559,255.178326 L488.503442,255.178326 L488.336741,255.178326 L488.033647,255.793873 L487.791171,256.371423 L486.692455,256.508211 C486.692455,256.508211 486.669723,256.417019 486.374206,256.667797 C486.04838,256.956572 486.04838,256.956572 486.04838,256.956572 L486.139308,258.278858 L486.836425,258.810812 L486.745496,259.274372 L485.555852,259.327567 L484.169196,259.654339 L484.555641,260.573859 L485.464924,260.923429 L486.374206,261.348992 L486.700032,262.162122 L487.033436,262.52689 L487.813903,263.10444 L488.495865,263.438811 L489.003548,263.659192 L489.359683,263.659192 L490.079532,263.712388 L490.54175,263.659192 L491.284331,266.80532 L491.74655,266.80532 L492.170881,266.683731 L492.314851,266.638135 L492.655832,266.220171 L492.867998,265.984591 L493.027122,265.779409 L493.436299,266.106181 L493.951559,266.128979 L494.875997,266.843317 C494.875997,266.843317 494.822955,267.223284 495.148781,267.527258 C495.383679,267.84643 495.808011,268.287192 495.808011,268.287192 L496.474818,268.54557 L497.103738,268.781149 L496.838531,269.434693 L496.49755,269.594279 L496.474818,270.308617 L496.27023,270.772177 L496.141415,271.076151 L495.664041,271.31173 L495.2094,271.220538 L494.466819,271.114147 L493.875786,270.680985 L493.54996,270.536597 L493.29233,270.460604 L492.996813,270.38461 L492.898307,270.536597 L492.481553,271.304131 L492.155727,271.912078 L492.276964,272.489628 Z M264.213785,113.997739 L264.259249,113.929345 C265.350388,113.549377 266.449104,113.17701 267.540243,112.812241 L267.040138,113.230205 L266.964364,113.2834 L266.161165,113.929345 L265.698946,114.005338 L264.115279,114.202921 L264.213785,113.997739 Z M344.147285,589.199831 C230.002035,589.199831 134.239444,510.508639 107.749017,404.292627 L108.218813,404.566203 L109.309951,405.858091 L111.530116,406.967595 L113.432032,407.887116 L114.659563,408.244285 L116.205343,408.913027 L118.402775,410.022531 L119.880359,410.098525 L121.350366,410.440495 L122.987074,411.398012 L125.881623,411.557598 L127.791116,412.089552 L129.632413,410.980048 L130.731129,410.166919 L135.277541,409.954137 L136.148937,409.931339 L136.474763,409.885743 L137.520438,410.888856 L138.763124,411.352416 L139.626942,413.237053 L141.703137,413.791805 L143.642939,414.673329 L144.521912,414.77212 L147.393729,416.413578 L148.977396,415.615647 L150.432248,415.35727 L153.122208,415.858826 L153.387416,417.591476 L154.842267,417.606675 L156.244078,419.187338 L157.100319,418.723778 L157.494341,419.065749 L158.039911,419.476113 L158.108107,419.521709 L159.691774,420.67681 L159.828166,421.527936 L159.024966,421.953499 L158.683986,423.465768 L159.850898,425.661978 L160.995078,425.464395 L162.30596,426.10274 L163.866895,427.037459 L164.783755,428.967692 L166.147679,429.431252 L166.617474,429.57564 L167.216085,429.856815 L167.526757,429.993604 L168.746711,429.621236 L170.921411,431.255094 L171.800384,431.429879 L174.308488,430.434365 L174.156941,429.57564 L173.149153,428.580126 L174.134209,427.523817 L175.596638,427.326234 L177.119686,427.979778 L177.998659,428.139364 L178.468455,429.218471 L178.695776,430.654746 L179.188304,432.068224 L180.643155,432.136618 L181.188725,433.793275 L181.423623,435.221951 L181.666098,436.931803 L181.969192,438.664453 L181.552438,439.827153 L181.560015,441.916972 L182.870897,442.874489 L181.400891,444.569143 L180.43099,445.891428 L179.733873,447.168118 L180.059699,448.915967 L178.726085,450.557425 L177.831957,451.841714 L176.831747,452.844827 L177.960772,454.440689 L177.748606,455.139828 L177.354584,456.27213 L177.354584,456.370922 L177.331852,458.073175 L176.93783,459.258672 L176.915098,461.036918 L177.149996,462.75437 L177.627369,464.152649 L178.627579,464.297036 L179.029179,465.391341 L178.392681,466.668031 L177.324275,467.769936 L176.755973,469.555781 L177.301543,471.220037 L177.771338,472.618316 L179.135262,475.665653 L180.741661,476.828352 L182.385947,477.793469 L183.727138,479.024562 L184.477296,480.080871 L186.091272,481.281567 L188.038652,484.25291 L188.228086,484.655675 L188.599376,485.430808 L188.90247,486.129948 L190.152734,488.622532 L193.410996,494.53482 L195.820594,499.124823 L196.752609,501.328633 L198.578751,501.890984 L200.245768,503.084081 L201.124741,503.760422 L201.571805,504.064396 L201.95825,504.185986 L204.284498,504.839529 L205.928783,506.017427 L207.807967,506.648173 L208.876374,507.453703 L210.073596,508.320028 L210.399422,509.315542 L211.293549,512.233689 L212.414998,514.08033 L212.748401,516.398129 L212.877216,519.027502 L213.119692,522.492802 L213.35459,523.913879 L212.748401,526.049294 L212.899948,527.242391 L214.074438,530.555704 L214.286604,532.273156 L213.938046,533.603041 L213.892582,533.808223 L213.589488,534.42377 L213.263661,535.039317 L213.43794,536.171619 L213.975933,537.881471 L213.741035,542.023112 L213.127269,543.831756 L213.218197,544.295316 L213.35459,545.161641 L213.35459,545.275631 L214.703358,546.529523 L214.983721,547.958199 L214.400264,550.298797 L214.24114,550.975138 L214.332068,551.256314 C215.582331,552.016248 216.794708,552.768583 218.014662,553.551315 C228.910896,560.071551 240.276926,565.74826 252.09002,570.551045 L252.135484,570.429455 L252.506774,569.646723 L252.643166,569.411143 L253.734305,565.140313 L253.166004,563.460858 L251.908163,562.761719 L251.695997,561.150658 L251.695997,561.067065 L250.870066,559.714382 L250.847334,559.691584 L248.907531,558.270507 L247.414793,556.180688 L247.626959,553.771696 L248.581705,554.493634 L249.544029,556.682244 L251.0595,557.047013 L252.082442,558.065325 L253.537294,558.11852 L255.219467,557.586566 L258.621698,557.08501 L259.568867,555.375157 L259.978044,554.638021 L261.538979,551.750271 L261.99362,550.937141 L262.289137,550.389989 L262.569499,548.581345 L262.53919,546.248347 L264.221362,543.930547 L264.736622,541.658344 L264.895747,540.845214 L266.54761,543.398594 L266.827972,543.839355 L266.873436,543.679769 L267.085602,542.737451 L267.328077,541.726738 L267.631171,539.636919 L268.146431,537.205129 L269.389117,535.80685 L270.2984,534.210988 L270.108966,533.078686 L269.874068,531.391632 L269.570974,529.370207 L268.805661,526.284874 L269.214838,525.06138 L270.139275,523.685899 L270.89701,522.735981 L272.32913,520.737354 L274.306819,518.784323 L274.93574,518.183975 L275.155483,517.993991 L277.292297,517.059272 L277.989413,515.493807 L279.565503,514.703476 L282.52067,512.773243 L284.536246,512.704849 L284.915114,511.238176 L284.862073,508.897578 L285.741046,505.280291 L287.097392,502.704114 L288.067293,499.337605 L287.885437,497.916528 L288.158221,496.373861 L288.24915,492.855366 L287.605075,490.61356 L287.862705,487.60422 L287.908169,487.072266 L287.832395,486.79109 L287.211052,484.260509 L287.976365,479.731301 L289.082658,479.594513 L289.39333,479.503321 L289.635805,478.659794 L289.984363,477.360306 L290.264726,475.604858 L290.582974,473.819012 L291.999939,471.516412 L294.257991,469.145417 L294.485311,466.812419 L294.508043,466.766823 L294.652013,465.892898 L295.152118,463.44591 L294.394383,458.574731 L292.734943,457.062462 L292.045404,454.531881 L290.143488,453.931533 L287.946055,454.600275 L285.627385,452.601648 L282.55098,449.835487 L279.679163,449.447921 L279.550348,449.425123 L278.807767,449.531513 L277.284719,449.736696 L274.261355,449.067954 L271.58655,448.627192 L270.995516,450.481431 L269.366385,449.204742 L266.888591,446.674161 L264.736622,445.823034 L262.258828,445.085898 L259.106649,445.207487 L257.61391,446.940138 L257.227465,444.37156 L255.909006,443.406443 L254.014667,444.265169 L252.415846,447.160519 L252.643166,448.604394 L251.423213,448.452407 L250.074444,449.265536 L249.794082,447.289707 L250.195681,444.553944 L252.741672,443.604026 L252.817446,442.144952 L252.60528,440.655481 L251.233779,439.424388 L251.817235,437.592946 L250.51393,436.916605 L249.88501,434.370825 L247.93763,431.232296 L245.899322,429.438852 L243.610961,427.744198 L240.185998,426.513105 L238.913002,425.813965 L233.358802,426.946267 L232.502561,427.113453 L232.44952,427.113453 L230.737038,425.623982 L229.229145,425.236415 L227.607591,426.079942 L227.327229,424.362491 L227.304497,422.607043 L226.713463,421.877506 L223.606749,420.55522 C223.606749,420.55522 221.651791,421.406346 221.235037,420.608415 C220.803128,419.818084 221.075913,419.476113 221.075913,419.476113 L221.189573,418.305815 L219.886268,417.606675 L218.36322,416.930334 L216.771976,416.033611 L216.771976,415.281276 L216.764399,414.475746 L216.764399,414.004587 L215.658105,414.468147 L213.900159,415.197683 L212.361956,415.866426 L211.695149,417.386294 L209.353747,417.492685 L208.118638,416.808744 L206.08033,417.112718 L204.383003,417.348297 L202.238612,418.579391 L201.465722,417.249506 L199.882055,416.307187 L197.964985,415.425664 L196.479824,415.068495 L196.676835,416.466774 L195.37353,417.54588 L194.047493,418.655384 L194.236927,419.810484 L194.327855,420.334839 L194.471825,420.547621 L195.449304,421.923102 L195.267447,423.032606 L195.168942,423.731745 L194.63095,423.822937 L193.986875,423.876133 L192.888158,422.341066 L192.592642,420.334839 L192.592642,418.579391 L192.069804,416.884738 L192.312279,416.421178 L192.888158,415.319273 L193.418573,414.323759 L192.638106,414.43015 L191.781865,414.582137 L191.706091,414.604935 L190.99382,415.608048 L189.993609,416.603562 L188.64484,417.705467 L187.561279,418.184225 L184.878896,419.74209 L184.196934,421.01878 L183.901417,422.789427 L184.454564,424.48408 L182.438988,428.587725 L178.48361,425.441597 L176.490766,423.670951 L174.263024,424.60567 L172.78544,426.300323 L170.860792,427.159049 L168.352688,427.349032 L166.20072,425.236415 L164.980766,423.526563 L163.601688,421.550734 L162.631787,419.088547 L162.609055,419.042951 L162.631787,416.102005 L162.654519,411.025644 L162.654519,410.311306 L162.654519,409.733756 L161.889206,408.312679 L160.085796,407.522347 L159.388679,407.25637 L159.115895,407.25637 L155.312063,407.332364 L153.349529,407.887116 L151.773439,408.381073 L150.401938,408.844633 L150.007916,408.966223 L147.901412,408.730643 L147.969608,408.335477 L148.113578,407.643937 L148.901622,403.312312 L148.719766,400.416962 L150.16704,398.441133 L149.318377,389.147137 L147.052748,389.549902 L144.309746,390.591012 L142.748812,391.943695 L141.938035,394.139905 L142.210819,396.138532 L141.187877,398.904693 L139.596633,400.036995 L137.899305,400.591747 L136.580846,401.389678 L135.671564,402.98554 L134.383414,403.540292 L133.519595,403.882262 L132.110208,404.095044 L131.761649,404.171037 L131.670721,403.958256 L131.299431,403.129927 L131.291853,403.084331 L128.844368,402.005225 L123.017384,394.687058 L122.54001,391.860102 L122.16872,389.23073 L121.009385,384.754717 L121.410985,382.330527 L122.388463,381.053837 L122.085369,379.017213 L120.850261,376.304248 L120.782064,373.925654 L121.858049,371.471066 L124.563164,369.898002 L124.805639,368.089359 L125.972551,366.174324 L126.427193,365.999539 L127.275856,365.619572 L128.215448,365.232006 L130.41288,364.320085 L132.36026,364.000912 L135.035066,364.198495 L135.906462,365.786758 L137.164302,364.71525 L139.536014,364.935631 L140.558956,363.917319 L140.058851,362.541838 L140.058851,360.512814 L142.347212,360.155645 L144.87047,359.768078 L146.499601,358.93975 L148.424249,360.09485 L150.091267,360.391224 L150.227659,360.414023 L150.955085,360.315231 L151.947718,360.155645 L153.016125,359.676886 L154.387626,360.657201 L155.781859,362.192269 L156.569904,363.506955 L157.971714,367.139441 L158.244499,368.856892 L159.608423,369.297654 L159.820589,370.73393 L161.351214,372.162606 L162.624209,374.617194 L163.775967,374.442409 L164.192721,373.484892 L164.571589,371.972623 L164.185144,369.381247 L163.154624,366.630285 L161.851319,363.902121 L161.525493,361.645116 L160.13126,360.072052 L159.813011,358.096223 L159.972136,355.421254 L160.138837,352.480309 L161.760391,349.881334 L162.722715,348.581846 L166.223452,344.797373 L167.685881,342.844342 L169.17862,341.164888 L169.345322,340.21497 L171.103268,338.47472 L170.224295,336.316507 L169.398363,334.963824 L167.496447,333.785926 L167.23124,332.053276 L166.382576,330.457414 L166.435618,328.967943 L166.185565,327.273289 L166.45835,326.551352 L166.71598,325.852212 L167.238817,324.431135 L169.284703,324.431135 L168.329956,325.753421 L168.231451,326.042196 L167.988975,326.741335 L167.913202,326.984514 L168.216296,328.983141 L169.17862,329.705079 L170.754709,330.358622 L171.360898,328.504383 L171.785229,327.204895 L171.944354,326.672941 L171.792807,326.482958 L170.800173,325.115076 L171.588218,324.362741 L172.982451,323.899181 L173.7023,322.599694 L173.793228,321.3686 L173.853847,320.509874 L173.869002,320.228699 L175.945196,318.458052 L174.164518,318.442853 L175.657257,316.444226 L176.748396,315.965468 L177.187882,315.775484 L178.036546,315.380318 L179.468666,314.681179 L180.885631,314.475996 L181.014446,313.2829 L180.537072,312.226591 L180.537072,310.15957 L180.218824,308.115347 L181.711562,306.466289 L183.386157,305.888739 L184.886473,304.520858 L186.447408,305.121206 L187.508237,304.368871 L187.909837,303.145377 L187.584011,301.146749 L189.84964,300.493206 L191.205986,300.014447 L192.031917,299.338106 L192.418362,298.380589 L193.486769,297.331879 L194.282391,298.958139 L195.737243,299.026533 L196.457092,299.801666 L193.138211,300.91117 L191.827329,302.013074 L190.508869,303.373357 L191.077171,305.052812 L192.084959,305.751951 L193.698935,306.701869 L195.1159,306.428293 L196.388896,305.106007 L196.745031,303.586138 L197.911944,301.640707 L199.578961,301.108753 L200.632213,300.33362 L202.284076,297.757443 L199.92752,297.514264 L197.593695,297.879032 L195.873636,296.389561 L194.896157,295.371249 L193.698935,293.213036 L192.524445,291.335998 L189.508659,290.659657 L189.576855,289.192983 L190.743767,289.291775 L192.456249,286.996773 L192.638106,286.084852 L192.198619,284.975348 L191.069594,283.675861 L189.069172,283.995033 L185.848797,285.666888 L184.052964,287.369141 L181.476664,289.58055 L179.824801,292.149128 L179.847533,290.674855 L180.870476,287.635118 L182.469298,286.45722 L183.742293,285.081739 L184.606111,283.523874 L186.849008,280.848905 L192.198619,279.716603 L194.74461,279.040262 L196.373741,278.227132 L198.874267,279.283441 L201.897631,277.930758 L203.420679,276.532479 L205.943938,274.100689 L205.701463,272.679612 L207.641265,271.790489 L210.103905,270.832972 L211.831542,268.492374 L211.604221,267.094095 L211.255663,264.821892 L209.361324,263.940368 L207.88374,263.568 L205.405946,264.83709 L201.162628,267.519658 L202.465933,266.440552 L203.799547,263.887173 L205.504452,263.355219 L206.497085,262.329307 L205.981825,260.953826 L204.996769,259.905117 L203.784392,259.813925 L199.78355,260.414273 L198.578751,258.263659 L196.676835,257.131357 L195.320489,255.82427 L193.903524,254.577978 L195.752398,253.415278 L195.570541,252.267778 L193.805018,251.979003 L193.630739,250.497131 L192.175887,249.288835 L191.205986,248.293321 L189.554123,248.825275 L190.198198,247.244612 L189.910258,245.542359 L188.879738,244.470852 L187.318804,243.900901 L186.144314,242.001066 L185.863952,240.086031 L185.818488,239.736462 L185.030443,239.835253 L184.962247,239.835253 L184.697039,241.301926 L184.636421,241.643897 L184.606111,241.71989 L183.52255,243.900901 L182.151049,244.691233 L181.469087,245.618353 L180.180937,247.016632 L178.574538,247.586583 L177.437935,248.004546 L176.354373,246.431483 L175.39205,245.952724 L173.073379,246.089512 L172.391418,243.505736 L172.353531,242.008665 L172.330799,241.225933 L172.330799,241.187936 L172.376263,239.417289 L172.459614,238.262189 L170.754709,238.520567 L170.3228,237.730235 L169.32259,236.689125 L167.716191,237.798629 L166.609897,237.981014 L165.412675,236.081178 L163.162201,235.116061 L162.942458,235.002071 L162.374157,234.728495 L160.38889,233.672186 L158.47182,235.420035 L155.471188,235.062866 L152.569061,235.085664 L149.841214,235.906393 L150.212505,238.376179 L150.591372,240.754774 L150.864157,242.783798 L152.167462,243.034576 L152.970661,245.800737 L152.387205,247.168619 L150.129154,248.718885 L149.598739,250.884697 L149.818482,251.067082 L150.401938,251.576237 L152.485711,253.354484 L154.546751,256.341025 L155.857633,257.450529 L156.585059,258.073675 L156.994236,258.438444 L156.706296,262.238115 L155.887942,264.852289 L154.902886,265.612223 L153.879944,266.440552 L153.319219,266.911711 L151.523387,268.811547 L152.281122,271.190141 L152.788805,272.01087 L153.410148,273.089976 L153.440457,273.234364 L153.781438,275.552163 L153.607159,279.716603 L152.637258,281.502449 L152.099266,281.449253 L151.243025,281.327664 L149.689667,281.14528 L147.780174,279.382232 L147.045171,277.406403 L145.385731,275.787743 L145.029595,273.74352 L144.665882,271.31933 L144.249128,268.469576 L141.839529,267.428466 L136.558114,268.226397 L133.754493,267.284079 L132.90583,267.0409 L130.496231,266.220171 L128.556429,264.487521 L127.897199,264.175948 L127.116732,263.818778 L125.858891,263.241228 L123.335632,262.777669 L120.7366,261.934141 L118.440662,263.10444 L116.591788,261.706161 L115.417298,260.33068 C123.176508,239.212107 133.807535,219.476614 146.757231,201.564964 L147.59074,202.036123 L147.628627,201.055808 L148.348476,200.577049 L149.174407,200.812629 L150.477712,201.777745 L150.947508,201.124202 L151.659779,202.172911 L151.894677,203.510395 L153.326797,203.92076 L152.803959,205.729403 L153.281333,206.238559 L154.001181,207.051689 L154.713452,206.755315 L155.592425,206.238559 L156.26681,205.364635 L157.335217,204.764287 L157.501918,205.942185 L157.69893,207.294868 L157.729239,207.294868 L158.95677,207.864819 L159.782702,208.115597 L159.941826,209.453081 L160.608633,211.124937 L161.30575,212.00646 L160.0176,212.35603 L160.214611,213.51113 L160.479818,214.21027 L160.957192,214.749823 L160.297962,215.433764 L159.623577,216.322887 L158.744604,217.599577 L157.865631,218.731879 L157.933828,220.09976 L161.366369,222.447957 L160.934459,223.504266 L157.797435,224.545376 L156.569904,225.160923 L153.675355,225.183721 L151.394572,226.475609 L150.780806,226.825179 L150.697455,227.060758 L149.65178,229.705329 L149.90941,231.209999 L150.85658,231.475976 L151.765862,232.099122 L153.993604,231.354387 L155.327218,229.788922 L156.054644,229.69773 L156.191036,229.674932 L157.024545,229.538144 L157.509496,229.302564 L157.585269,229.287366 L157.123051,227.585113 L157.721662,227.889087 L158.274808,227.820692 L159.403834,227.425527 L159.881207,228.147464 L161.040542,228.19306 L161.722504,228.823806 L162.9955,229.401356 L163.427409,229.743326 L163.919937,230.199287 L164.609476,230.837631 L165.011076,231.209999 L166.556856,231.004817 L167.185776,231.498774 L166.276494,232.213112 L165.965822,232.448692 L166.215875,233.071838 L166.238607,233.17063 L166.82964,233.239024 L167.072116,233.261822 L168.595164,233.239024 L169.14831,232.980646 L169.337744,232.897053 L171.050226,232.638676 L173.459824,232.106722 L175.255657,232.220712 L176.968139,231.947135 L178.529074,232.106722 L180.355216,231.643162 L180.264288,230.640049 L179.074643,230.86043 L177.945618,229.644535 L176.369528,229.522945 L174.293333,228.489435 L172.376263,227.379931 L173.103689,227.091156 L174.801016,226.627596 L175.869423,226.072844 L177.210614,227.250742 L179.597481,226.46041 L181.825223,227.113954 L181.408468,225.442098 L181.847955,224.38579 L181.597902,223.025507 L180.900785,222.18198 L179.953616,222.159182 L176.149785,220.601317 L175.058646,219.385422 L174.232715,218.146729 L173.603794,217.683169 L173.967507,215.068996 L173.81596,213.754309 L175.429936,213.100766 L176.475611,214.521843 L177.286388,215.152588 L178.210825,215.988516 L179.779337,216.163301 L179.968771,217.09802 L180.91594,217.280404 L181.605479,217.956746 L182.49203,218.807872 L184.500028,218.899064 L185.803333,218.71668 L185.871529,217.926348 L185.727559,215.82133 L187.01571,215.258979 L187.220298,214.21027 L187.114215,213.275551 L189.9633,212.857587 L189.895104,209.93184 L189.349534,209.027518 L188.288705,208.237187 L186.75808,208.42717 L184.8107,209.749456 L184.212089,209.650664 L183.477086,209.749456 L182.135894,209.969837 L180.612846,207.690034 L179.62779,206.078973 L178.703353,206.595729 L178.22598,207.249272 L177.597059,208.115597 L175.930042,208.791939 L174.998027,207.560845 L174.490345,206.960497 L173.846269,206.284155 L173.618949,206.010579 L170.928988,205.463426 L170.125789,204.764287 L169.906046,203.487597 L170.686513,203.328011 L171.489713,202.256504 L170.898679,200.979814 L172.391418,200.759433 L171.171464,199.969102 L169.595374,200.045095 L168.837639,198.965989 L169.724189,198.221253 L170.769864,197.712097 L170.769864,196.344215 L169.345322,195.759066 L169.29228,196.549398 L167.920779,196.572196 L166.708403,195.01433 L165.261128,194.793949 L164.738291,194.725555 L164.260918,195.394297 L163.912359,196.929365 L163.829008,197.408123 L163.745658,197.21054 L163.419831,196.108636 L163.025809,194.763552 L162.275651,193.942823 L161.381523,193.28168 L160.654097,192.278567 C160.654097,192.278567 159.290174,192.453352 158.782491,192.521746 C158.199035,192.597739 158.433933,192.802922 158.433933,192.802922 L156.532017,193.068899 L156.024335,192.369759 L154.448245,193.410869 L154.334585,192.597739 L154.357317,192.042987 L154.372472,191.571828 C162.199877,181.829471 170.709245,172.695061 179.908152,164.26739 L181.332695,164.03181 L183.984768,164.533367 L185.621477,165.703666 L185.977612,166.053236 L186.371634,166.509196 L186.811121,166.448401 L187.485505,166.342011 L188.622108,165.863252 L189.5617,166.304014 L189.993609,167.405919 L190.380054,168.219048 L193.562543,169.533735 L195.365953,169.982096 L195.63116,170.035291 L195.782707,171.038404 L195.850903,171.479166 L195.547809,173.28781 L197.055703,173.333406 L197.540653,174.708887 L199.116743,175.696801 L199.344063,177.140677 L200.935308,178.052598 L201.147473,179.458476 L200.382161,180.157616 L200.01087,181.692683 L200.01087,183.136558 L199.821437,184.056078 L199.965406,184.892006 L201.405103,184.9604 L202.488665,184.49684 L203.829856,183.706509 L204.625479,183.752105 L205.345327,183.8053 L205.587802,183.752105 L207.929205,183.349339 L208.308072,184.185267 L209.482562,184.314456 L210.982878,184.360052 L211.89216,184.800814 L211.475406,186.047106 L211.672417,187.171809 L212.430152,188.243316 L212.263451,189.12484 L210.846486,189.390817 L209.914471,188.942456 L208.330804,188.258515 L205.663576,188.106528 L203.397947,188.463697 L203.27671,188.524492 L202.140107,188.950055 L202.003714,188.980452 L202.117375,189.00325 L202.935729,189.269227 L204.148105,189.573201 L204.82249,190.295139 L207.209356,190.523119 L207.906473,191.275454 L209.126426,191.678219 L210.361535,192.13418 L211.490561,191.951795 L212.29376,191.511033 L213.172733,191.43504 L213.794076,192.164577 L214.051706,193.562856 L214.544234,194.991532 L214.483615,196.731782 L213.415208,196.883769 L213.634952,198.624018 L213.58191,200.060294 L212.430152,199.961502 L211.26324,200.151486 L210.270607,201.169798 L210.08875,202.081719 L211.020765,202.53768 L213.35459,202.18811 L214.460883,201.990527 L214.976143,203.077233 L215.370166,204.201936 L213.998665,204.680694 L212.521081,204.627499 L211.316282,204.255131 L209.929626,204.999867 L208.679363,206.398146 L208.929415,207.834421 L210.035709,209.095912 L209.293128,210.410599 L209.596222,212.090053 L210.535814,212.561212 L210.929837,213.351544 L212.074017,213.184359 L213.687993,214.09628 L214.248717,216.064509 L214.157789,217.242408 L213.703148,218.177127 L214.445728,219.271432 L215.67326,217.918749 L215.855116,217.022027 L216.688625,216.543268 L217.802496,216.40648 L217.128112,217.956746 L216.105169,218.71668 L215.301969,219.400621 L216.135478,220.776102 L217.363009,221.452443 L217.560021,222.561947 L218.037394,223.397875 L218.120745,223.375077 L219.02245,223.23069 L219.13611,223.207891 L219.855959,224.279399 L220.666736,224.864548 L220.848592,225.008936 L220.947098,225.65488 L221.098645,226.430013 L223.053602,225.031734 L223.167262,224.978538 L223.189994,225.008936 L223.637058,226.027248 L224.728197,227.326735 L224.940363,228.77061 L225.902687,229.158177 L226.327018,230.298078 L227.031712,231.369585 L228.691153,230.541257 L229.365537,229.256968 L230.411212,228.504633 L230.896162,229.652134 L231.979724,230.906026 L234.002877,230.571654 L235.434997,230.647648 L236.177578,231.43798 L237.08686,231.878741 L237.980988,233.808974 L238.66295,233.132633 L239.481304,232.410695 L239.640428,231.491175 L239.17821,230.655247 L238.208308,229.659733 L238.814497,228.367845 L239.754088,226.490807 L239.875326,225.290111 L240.276926,224.37819 L240.299658,222.30357 L240.299658,220.836897 L240.617907,220.327741 L241.080125,219.583005 L241.405951,219.263833 L241.784819,218.883866 L242.284924,217.926348 L242.678947,217.029626 L242.481936,215.836529 L242.459204,213.51873 L242.595596,212.340832 L242.89869,210.50939 L243.01235,209.665863 L244.058025,208.875531 L244.436893,207.393659 L246.937419,206.717318 L248.278611,205.600215 L249.672844,205.121456 L250.11233,206.261357 L251.28682,206.329752 L252.006669,205.349436 L252.635589,205.235446 L253.461521,205.106257 L253.696419,205.060661 L254.976991,203.973955 L255.92416,202.41609 L256.32576,201.169798 L257.091073,200.166685 L258.12917,199.421949 L260.008354,196.503802 L261.319236,195.698271 L261.152534,194.588767 L260.864595,192.559743 L261.857228,193.319677 L262.751356,193.456465 L264.372909,192.605339 L265.77472,192.149378 L266.335444,192.035388 L267.517511,192.149378 L268.911744,191.647822 L269.737675,191.503434 L270.851546,191.062672 L271.639591,190.614311 L272.427636,189.884774 L272.950473,189.520006 L274.147695,189.664393 L275.519196,189.436413 L276.155694,187.597372 L277.777247,186.761444 L278.519828,185.758331 L279.709472,185.910318 L280.34597,184.626029 L282.338814,184.03328 L283.733047,183.797701 L283.892171,182.88578 L284.581711,181.616689 L286.256306,179.344486 L284.005832,179.686456 L282.505516,179.633261 L280.671796,178.71374 L279.239676,178.934121 L277.390802,180.400794 L276.284509,180.545182 L276.769459,178.151389 L276.928584,177.231869 L276.231467,176.456736 L276.928584,175.225642 L275.951105,174.480907 L275.110019,174.594897 L273.321764,174.594897 L271.889644,174.845675 L270.586339,173.850161 L271.44258,173.713373 L272.579183,173.500591 L273.450579,173.363803 L274.291665,173.249813 L275.382804,173.05983 L276.299663,173.242214 L277.489308,173.363803 L278.436477,173.781767 L279.42911,174.503705 L280.732415,175.544815 L281.194634,176.319948 L282.429742,176.699915 L283.604232,177.087481 L284.846918,177.543442 L286.27146,177.611836 L287.211052,177.725826 L287.96121,177.072282 L287.802086,175.871586 L287.309558,174.518903 L285.695581,173.538588 L284.627175,172.269498 L281.815977,171.220789 L280.542981,170.263271 L279.300295,169.890904 L278.277353,169.168966 L277.36807,168.690208 L276.284509,169.168966 L275.170638,169.336152 L273.693054,169.252559 L273.321764,168.629413 L272.859545,167.884677 L272.950473,167.808684 L273.602126,166.965157 L274.428057,166.531994 L275.458577,165.749262 L276.822501,164.951331 L277.845443,166.311613 L278.807767,166.729577 L279.550348,167.50471 L279.701895,167.50471 L280.702106,167.6187 L281.096128,168.31784 L281.906905,169.746516 L283.225364,170.445656 L284.119492,170.590043 L285.286404,170.985209 L286.112336,170.590043 L285.407642,169.799712 L284.672639,168.7738 L285.983521,167.96827 L285.218208,167.177938 L285.036352,166.972756 L283.414798,166.319213 L282.103916,165.331298 L280.126227,164.176198 L282.209999,163.872224 L283.339025,163.993814 L285.059084,163.735436 L286.059294,162.625932 L287.453527,162.18517 L288.120335,160.619706 L287.021618,159.327817 L284.278616,160.619706 L284.278616,158.529886 L286.544245,157.952336 L286.347234,156.820034 L286.218419,155.961309 L286.082027,155.087384 L284.384699,153.597913 L285.513725,153.415529 L286.468472,153.567516 L287.711157,154.281854 L288.370387,152.70879 L288.188531,151.568889 L286.036562,148.985112 L284.710526,149.760245 L283.255674,149.980626 L284.020986,148.985112 L284.687793,147.754019 L284.490782,146.857296 L284.308926,146.340541 L284.09676,145.762991 L287.408063,145.717395 L288.188531,145.717395 L288.832606,146.196153 L290.264726,145.952974 L291.348287,145.253835 L291.174008,145.003057 L290.620861,144.243122 L290.188952,143.597178 L289.446371,142.556068 L288.340078,142.99683 L286.650328,143.255208 L285.627385,142.53327 L287.377754,140.504246 L285.263672,140.238269 L281.77809,140.200272 C281.77809,140.200272 281.77809,140.200272 281.63412,139.326348 C281.52046,138.49042 282.801033,139.447937 282.801033,139.447937 L284.877227,139.159162 L285.218208,137.91287 L285.619808,136.681776 L287.339867,134.683149 L286.945845,132.084174 L290.507201,130.39712 L290.370808,129.530795 L287.84755,128.43649 L285.892593,128.755662 L284.255884,129.59159 L283.72547,128.155314 L285.01362,127.129403 L287.006464,126.825429 L288.287036,127.456174 L292.287879,126.871025 L293.765463,124.872398 L294.667168,123.990874 L295.326398,123.360129 L295.546141,123.162546 L296.508465,122.159433 L297.819347,121.049929 L298.766516,119.750441 L300.895752,120.008819 L302.524883,117.729016 L300.713896,117.09827 L297.311664,117.645423 L296.372072,117.79741 L295.765884,117.865804 L293.591184,118.192576 L288.76441,118.914513 L287.150433,120.069613 L285.172744,120.373587 L283.187478,120.69276 L281.709894,120.609167 L280.058031,121.437495 L278.580447,123.11695 L277.671164,124.477232 L275.754094,125.579137 L275.451,125.632332 L274.473521,125.77672 L273.208103,125.981902 L272.177583,125.001587 L273.511197,124.188457 L274.556872,123.46652 L275.352494,123.040956 L276.102652,122.068241 L277.049821,120.715558 L276.057188,120.024017 L274.337129,119.99362 L272.344285,120.327991 L271.988149,122.083439 L269.26788,123.048556 L267.381119,122.182231 L265.835338,121.369101 L265.759565,121.331104 L264.653271,121.369101 L262.872593,121.445094 L258.697472,122.706585 L256.083285,123.056155 L252.264299,124.834401 L252.324918,124.15806 L252.34765,123.34493 L254.537505,122.144234 L255.302817,121.870658 L257.545714,121.080326 L262.417952,120.381186 L266.509723,119.636451 L267.941843,119.355275 L273.200526,118.405357 L276.716418,118.458553 L278.68653,118.14698 L279.959525,116.786697 L280.247464,114.970455 L277.853021,114.484097 L276.974048,114.605686 L274.708419,114.67408 L274.011303,114.370106 L273.715786,114.21052 L272.942896,114.195322 L272.268511,114.195322 L270.510565,114.126927 L270.048347,113.032622 L269.745253,112.728648 L269.23757,112.24989 C292.833448,104.604951 317.990261,100.425313 344.13213,100.425313 C401.128982,100.425313 453.518802,120.10761 495.012389,152.989966 L495.300328,154.867003 L496.09595,156.698445 L494.800223,157.131607 L493.648465,156.52366 L493.065009,158.49189 L491.913251,158.149919 L491.238867,157.177203 L490.822113,156.098097 L488.927774,156.698445 L487.836635,156.827634 L487.791171,158.248711 L485.813482,157.716757 L484.638992,157.359588 L483.290223,157.526773 L482.312745,158.49189 L482.070269,159.305019 L481.880836,160.300533 L481.812639,160.513315 L479.956188,160.771693 L478.849894,160.954077 L478.03154,160.832487 L477.160145,160.672901 L478.40283,159.890169 L478.849894,159.016244 L477.463239,158.993446 L476.766122,157.967535 L475.902304,157.807949 L473.219921,160.148546 L471.802956,161.455633 L470.401145,161.698812 L469.408512,162.397952 L467.95366,163.446661 L467.165616,163.879824 L466.127518,164.252191 L466.059322,164.373781 L465.369783,164.898136 L463.94524,166.015239 L463.877044,167.413518 L463.877044,169.085373 L462.414615,170.407659 L461.65688,171.068802 L460.618782,171.486766 L459.497334,171.152395 L458.209184,169.951698 L457.928822,168.340638 L458.64867,167.367922 L460.103522,166.053236 L459.550375,164.191397 L458.512278,162.701926 L456.466393,162.223167 L453.23844,162.701926 L453.177821,164.100205 L453.814319,164.822142 L453.617308,167.071548 L453.52638,168.181052 L453.768855,169.81491 L453.480916,171.78314 L453.215708,173.485393 L452.874727,174.90647 L450.556057,174.146536 L449.911982,173.424598 L449.048164,173.28021 L448.002489,174.176933 L447.381146,174.739284 L447.131093,174.959665 L446.199079,176.190759 L445.388302,177.984204 L445.50954,178.812532 L446.562792,180.294404 L447.509961,181.251921 L446.183924,181.464702 L444.660876,180.583179 L443.486387,179.967632 L441.789059,179.884039 L440.599415,179.245694 L439.568895,179.405281 L439.508276,181.092335 L439.720442,182.695796 L440.629724,183.136558 L441.963338,184.61083 L441.682976,186.009109 L440.069,186.525865 L438.765695,186.746246 L436.659191,185.925517 L435.999961,185.18838 L434.992173,183.995284 L433.931344,182.498213 L433.378197,180.621175 L432.893247,179.329287 L431.453549,178.736538 L429.983543,178.13619 L428.248329,177.543442 L427.27085,176.631521 L426.202444,174.830476 L424.505117,172.877445 L427.536058,174.640493 L428.869672,174.427711 L429.7638,175.081255 L431.218652,175.514417 L433.461548,175.674003 L434.833049,175.727199 L436.20455,175.780394 L438.727809,175.962778 L440.205393,176.585924 L442.008803,175.727199 L443.357572,173.86536 L444.350205,172.877445 L445.335261,171.988322 L445.971758,171.403173 L446.50975,170.909216 L445.638355,168.842194 L445.123095,167.238733 L443.728862,167.215935 L442.251278,166.326812 L441.826946,166.00764 L440.349362,164.928533 L439.606782,164.61696 L438.545952,164.138201 L437.128987,163.515055 L433.128145,162.739922 L432.044583,162.907108 L429.756222,162.413151 L428.142246,162.413151 L425.967546,162.739922 L425.058263,162.30676 L423.057842,161.820402 L423.754959,160.840087 L422.535005,159.905367 L421.709073,160.072553 L420.375459,160.254937 L419.254011,160.437321 L417.018691,161.600021 L416.026058,160.634904 L416.730752,159.98896 L417.192971,159.365814 L418.738751,158.575482 L416.776216,156.660448 L415.973017,156.797236 L415.397138,156.333676 L414.192339,155.687732 L414.048369,156.546458 L414.192339,157.587568 L412.911766,158.3779 L411.919133,157.169604 L412.782951,155.588941 L412.396506,154.859404 L411.479646,154.426241 L410.805262,155.117782 L410.729488,156.516061 L410.358198,157.90674 L410.244538,158.765466 L409.471648,159.160632 L408.797263,158.423496 L408.660871,157.648363 L408.100147,157.412783 L407.963754,158.560284 L407.357566,159.738182 L407.228751,159.912967 L406.880193,160.391725 L406.849883,160.764093 L406.77411,161.508829 L406.130035,162.466346 L405.667816,161.136461 L405.516269,160.330931 L406.008797,159.608993 L406.183076,159.373413 L406.387665,158.742668 L406.569521,158.218313 L405.872405,157.496376 L405.395031,157.344389 L404.697915,157.124008 L404.114459,157.002419 L403.894716,156.972021 L403.030897,157.063213 L403.030897,158.48429 L402.553524,159.115036 L401.500272,159.563397 L401.386612,160.650103 L400.689495,161.349243 L399.64382,161.782405 L398.810311,161.911594 L396.999324,161.045269 L396.037,160.855285 L395.582359,160.733696 L396.143083,162.587935 L395.749061,163.22628 L394.870088,163.013499 L393.688021,162.709525 L394.195703,164.016612 L393.34704,164.1534 L392.346829,164.571364 L391.39966,165.802457 L390.581306,165.642871 L389.944808,166.904362 L388.944597,167.557905 L388.255058,168.804198 L387.664025,169.716119 L387.595829,171.403173 L387.042682,173.363803 L385.868192,174.382115 L384.905868,175.36243 L384.201174,175.453622 L383.845039,175.514417 L384.329989,176.806305 L384.754321,177.862614 L384.70128,178.318575 L384.648238,178.736538 L383.913235,179.663658 L383.072149,181.175927 L382.268949,181.274719 L381.526369,181.981458 L381.185388,183.379737 L379.745691,185.089589 L379.586566,185.30997 L379.238008,186.769044 L378.245375,187.726561 L377.965013,189.155237 L376.94207,189.861976 L376.229799,190.264741 L375.328094,190.378731 L374.252109,192.194974 L373.888396,193.372872 L372.93365,194.079611 L372.81999,195.166317 L373.926283,195.569082 L374.752215,195.455092 L374.10814,196.610192 L374.100562,196.655788 L372.880609,197.423322 L371.774315,197.56011 L371.516685,196.860971 L371.35756,196.511401 L370.546784,196.374613 L369.720852,196.511401 L368.675177,196.944563 L368.516053,197.142146 L367.985638,197.864084 L368.15234,198.031269 L368.705487,198.578422 L369.281366,199.019184 L367.174861,199.953903 L367.318831,201.010212 L366.530786,201.162199 L365.477534,201.329384 L365.000161,202.203308 L365.121399,203.001239 L364.68949,203.084832 L363.863558,203.738376 L363.522577,204.893476 L362.416284,205.106257 L361.802518,205.964983 L360.529523,206.740116 L360.097613,207.62164 L359.438384,208.860333 L360.241583,210.418198 L360.453749,212.029258 L361.302413,213.815104 L361.999529,214.491445 L364.060569,213.936693 L363.840826,216.201298 L362.348087,216.961232 L362.234427,218.070736 L362.378397,219.172641 L363.48469,219.013054 L364.015105,220.593718 L364.234848,222.212378 L365.704855,222.820325 L367.129397,223.124299 L370.364927,222.668338 L371.600036,221.61203 L372.683597,219.788187 L374.509739,218.959859 L375.350826,217.736365 L376.669285,217.257606 L377.730115,218.215123 L378.139292,219.52221 L378.897027,220.814099 L378.972801,221.232062 L379.094038,222.075589 L379.154657,222.425159 L380.344301,224.454184 L382.375032,225.548489 L383.276737,225.958854 L383.655605,226.68839 L382.746322,227.957481 L382.049206,228.611024 L380.753479,229.074584 L380.935335,230.450065 L379.594144,230.632449 L378.715171,230.51086 L378.987955,232.144718 L379.973011,233.353014 L381.677916,233.353014 L382.049206,232.486689 L381.874927,231.354387 L382.276527,230.199287 L383.322201,229.743326 L383.435862,230.533658 L384.110246,231.308791 L385.943966,230.754039 L386.656237,230.054899 L386.73201,228.671819 L387.376085,227.493921 L388.315677,226.771983 L391.013215,226.095642 L391.846724,224.317396 L391.611826,222.957113 L391.346618,221.064877 L391.65729,219.377823 L391.664867,218.914263 L391.680022,218.055537 L391.687599,217.690769 L391.483011,216.596463 L391.65729,215.760536 L392.710542,215.578151 L393.536474,215.464161 L394.786737,214.742224 L395.574782,214.309061 L395.991536,213.450336 L395.574782,212.690401 L396.393136,210.896956 L395.067099,209.445482 L394.135084,208.487965 L392.983327,208.373975 L392.127086,207.918014 L391.248113,207.545646 L390.073623,201.914533 L390.535842,200.979814 L390.361563,199.908307 L391.035947,199.277562 L392.043735,198.266849 L392.346829,196.564596 L392.536263,196.397411 L393.036368,195.933851 L393.043946,195.059926 L393.043946,194.277194 L394.036579,193.266482 L396.605302,192.36216 L397.863142,191.351447 L398.181391,189.869575 L399.439232,188.866462 L398.666342,187.597372 L397.666131,186.366278 L398.552681,185.112387 L399.249798,184.177668 L400.128771,182.954174 L400.59099,182.087849 L401.015321,181.168328 L402.856618,180.841556 L403.553735,181.60909 L406.501325,181.168328 L408.024373,182.019454 L408.236539,183.34174 L408.236539,185.028794 L406.736223,186.373878 L405.622352,187.954541 L405.001009,189.383217 L404.114459,190.614311 L403.568889,192.643335 L402.151924,194.246797 L402.023109,194.543171 L401.674551,195.401897 L401.538159,195.766665 L401.917026,198.14526 L402.159502,199.763919 L402.99301,201.618159 L402.318626,202.811256 L403.288527,203.761174 L403.712859,204.764287 L404.273583,204.680694 L405.319258,204.26273 L406.145189,204.422317 L406.031529,205.30384 L405.364722,206.474139 L407.327257,206.451341 L407.706124,207.234073 L409.7217,208.001607 L410.653715,207.066888 L411.29779,205.577417 L411.987329,204.916274 L413.495222,203.837167 L414.571206,203.442001 L416.185183,203.183624 L417.503642,202.704865 L418.549317,202.53768 L419.928395,204.26273 L421.080153,204.665495 L422.163714,204.505909 L422.959336,204.087945 L423.853464,204.505909 L423.232121,205.926986 L422.512273,206.9301 L420.951338,207.203676 L419.731384,206.785712 L419.701075,208.457567 L417.62488,209.057916 L416.19276,208.738743 L414.821259,208.936326 L413.714965,208.54116 L412.510166,210.091426 L411.191707,210.327006 L410.1233,210.478993 L409.46407,211.421311 L408.698758,212.090053 L408.880614,213.359143 L408.933655,213.678316 L409.304946,214.081081 L409.630772,214.400253 L410.502168,214.825817 L410.547632,218.731879 L409.585308,219.681797 L408.910923,220.608916 L407.744011,220.236549 L407.349989,219.446217 L406.736223,218.997856 L405.71328,217.766762 L404.137191,218.298716 L404.690338,220.122558 L404.728224,222.060391 L404.364511,223.519465 L403.743168,224.742959 L403.303682,225.586486 L403.432497,226.399615 L403.462806,226.673192 L403.561312,226.832778 L404.19781,227.638308 L404.364511,228.747812 L404.228119,228.907398 L403.159712,230.054899 L402.76569,229.249369 L401.954913,229.112581 L401.576045,230.541257 L401.462385,231.681159 L401.182023,233.368213 L399.977224,232.729868 L399.257375,233.117434 L398.636032,234.561309 L397.885874,233.330216 L397.264531,232.851457 L395.612668,233.117434 L394.953439,234.052153 L392.43018,235.541625 L390.399449,236.369953 L389.315888,236.848711 L388.224749,237.228679 L386.421339,237.297073 L385.421128,236.613132 L383.481326,236.081178 L382.89787,236.164771 L381.874927,238.535766 L380.556467,238.733348 L379.836619,238.02661 L378.980378,237.289473 L377.919548,237.487056 L376.82841,236.529539 L376.434387,234.964075 L377.699805,234.20414 L377.730115,233.102236 L377.032998,232.083924 L376.820832,230.731241 L377.328515,228.717415 L377.517949,227.873888 L376.040365,226.977165 L375.456909,225.442098 L376.358614,223.907031 L376.184335,222.675937 L376.154025,222.53155 L375.714539,221.938801 L375.434177,221.513238 L375.017422,222.090788 L374.297574,223.071103 L374.274842,223.1091 L373.59288,224.302197 L372.751793,225.822065 L370.978693,226.642794 L372.425967,226.946768 L370.236112,229.264568 L371.01658,230.50326 L371.978903,231.475976 L372.107718,232.562682 L372.585092,233.846971 L373.350404,234.827286 L373.721695,235.898794 L374.418811,238.262189 L374.896184,239.592074 L373.539838,241.773086 L373.04731,241.795884 L371.895553,241.704691 L370.630135,242.168251 L368.743374,242.753401 L367.947752,242.844593 L366.553518,243.057374 L366.477745,243.931299 L365.704855,244.60764 L364.901655,246.416284 L364.848614,248.012146 L364.848614,249.744796 L364.734954,250.542727 L362.689068,250.869499 L361.863137,250.975889 L361.772209,250.998687 L360.211274,251.789019 L359.165599,252.252579 L357.922913,253.248093 L357.877449,254.631173 L357.521313,255.771075 L356.78631,256.720992 L355.225375,257.268145 L354.854085,258.400447 L353.83872,258.856408 L352.52026,259.623941 L351.800412,258.324454 L350.171281,258.301656 L349.845454,259.75313 L350.247054,260.801839 L350.777469,262.374903 L349.807568,263.074043 L348.648233,262.944854 L347.602558,263.096841 L346.511419,263.286824 L344.821669,264.38113 L344.041202,265.004276 L343.61687,265.938995 L343.829036,267.26888 L344.958062,267.398069 L346.96606,267.580453 L348.724006,268.88754 L351.065408,270.065438 L353.391656,271.304131 L354.270629,272.953188 L354.687383,275.407776 L354.755579,276.441287 L354.801044,277.338009 L354.899549,279.085858 L355.301149,281.798823 L354.255474,282.893128 L351.997423,282.315578 L349.868187,282.64235 L347.958694,282.049601 L346.117397,282.262383 L344.313987,282.581555 L341.730109,283.896242 L339.820616,283.56947 L338.229372,283.174304 L337.744421,283.896242 L336.956377,284.914554 L335.206008,285.5377 L334.402808,286.57881 L334.622552,287.787105 L335.759155,289.185384 L336.562354,290.606461 L336.91849,293.015453 L337.236739,295.135669 L336.562354,296.792326 L336.304724,298.965738 L336.562354,300.804779 L337.115501,302.301849 L337.865659,303.054184 L338.274836,305.820345 L338.494579,307.355412 L340.692012,307.628989 L343.033414,306.633475 L343.935119,306.511885 L345.041412,307.887366 L346.511419,308.898079 L348.019312,308.99687 L349.716639,307.796174 L350.71685,306.717068 L352.565724,306.420693 L354.111504,306.23071 L354.876817,305.144004 L355.270839,303.867314 L356.884816,302.377843 L358.07446,301.899084 L358.506369,300.569199 L358.642762,299.300109 L359.946066,297.871433 L360.105191,296.891118 L359.309569,295.781614 L359.453538,294.527722 L360.408285,292.840668 L361.173598,291.465187 L361.635816,290.788845 L362.726955,289.367768 L364.393973,288.182271 L366.076145,287.04237 L366.553518,286.328031 L366.86419,284.390199 L366.674756,283.174304 L365.629081,282.095197 L366.106455,281.076886 L367.705276,280.263756 L367.841669,280.187762 L368.561517,280.187762 L369.963327,280.187762 L372.183492,280.79571 L373.797468,281.160478 L374.630977,280.088971 L375.275052,278.766685 L376.729904,278.234731 L377.813465,276.836452 L378.472695,275.172196 L380.632241,274.815027 L382.102247,276.768058 L383.170654,277.824367 L384.70128,279.51902 L385.239272,280.955296 L386.686546,282.619552 L388.338409,283.295894 L390.035736,284.26101 L391.725486,284.906954 L393.688021,285.560498 L395.741483,287.103164 L397.522161,288.417851 L398.855776,289.132189 L399.4165,290.568464 L399.719594,292.711479 L399.590779,293.957771 L398.787579,295.029279 L397.98438,295.492839 L396.764426,295.637226 L395.514163,296.138783 L394.036579,296.97471 L393.165183,296.815124 L394.013847,298.236201 L395.976381,298.851748 L397.628244,299.573685 L398.620878,300.052444 L398.673919,298.464181 L399.052787,296.845521 L400.522793,296.305968 L401.272951,295.287656 L402.083728,294.216149 L402.76569,292.833069 L402.803577,291.001627 L402.674762,290.104905 L401.909449,289.291775 L401.651819,287.756708 L403.674972,286.548412 L405.061628,287.536327 L403.470384,285.324918 L402.379245,284.215414 L401.015321,283.516275 L399.984801,282.725943 L398.560259,281.380859 L397.628244,281.206074 L394.08962,280.552531 L392.907553,278.850278 L392.445335,277.67238 L391.088988,276.965641 L389.035526,275.71175 L387.959542,274.647842 L388.05047,273.614331 L388.118666,272.755605 L388.133821,272.178055 L387.315467,270.103435 L389.838725,268.811547 L390.657079,272.512426 L390.702543,272.656814 L390.952596,272.497228 L391.831569,271.88928 L393.119719,270.149031 L394.907975,271.744893 L394.961016,272.162857 L395.097408,272.975986 L395.12014,273.27996 L395.620246,274.708636 L397.688863,275.346981 L399.636243,276.266502 L402.068573,278.097943 L405.531424,278.493109 L407.03174,280.408143 L407.728856,284.967749 L408.236539,286.145647 L409.744432,288.068281 L412.191917,289.557752 L413.684656,291.442389 L415.003115,292.209922 L416.85199,292.232721 L415.245591,293.706993 L415.806315,295.173666 L417.33694,295.24966 L419.375248,294.32254 L420.981647,292.825469 L420.981647,292.764674 L421.163504,291.905949 L421.618145,291.715965 L422.337993,291.396793 L421.853043,290.241693 L421.284741,290.097305 L420.375459,289.861726 L420.269376,289.861726 L418.685709,289.785732 L417.88251,288.661029 L417.420291,287.528727 L417.556684,286.274836 L417.018691,284.808163 L416.730752,283.318692 L418.124985,284.283808 L419.155505,284.162219 L419.973859,284.040629 L419.973859,284.03303 L420.451232,283.022317 L419.951127,281.874817 L421.443866,281.654436 L424.232332,281.510048 L425.020377,282.946324 L425.997855,284.975348 L426.816209,286.381227 L427.566367,287.194356 L427.740646,288.410251 L427.051107,289.747735 L427.55879,291.237207 L429.112147,291.335998 L429.544056,294.010967 L430.991331,293.820983 L432.135511,294.877292 L434.060159,295.538435 L436.484912,297.027906 L437.621515,296.51875 L438.318632,295.173666 L438.856624,294.155354 L440.61457,293.896977 L442.622568,294.816497 L444.274431,295.500438 L446.123305,295.196464 L447.487229,294.064162 L449.040586,292.316313 L450.692449,291.138415 L451.43503,293.790586 L451.510804,294.307341 L451.662351,295.105272 L451.866939,296.526349 L452.336735,299.550887 L452.647407,301.678703 L452.116992,304.254881 L452.109415,306.10912 L451.95029,307.37821 L451.260751,309.019668 L446.721916,309.437632 L445.577736,310.189967 L444.289586,309.749205 L442.493753,310.053179 L440.538796,311.269074 L439.637091,311.725034 L438.129198,311.991011 L436.613727,311.922617 L435.264958,311.443859 L435.007328,313.678065 L433.847993,314.141625 L432.953865,314.286013 L431.999119,314.141625 L430.332101,313.184108 L428.756012,313.077717 L427.255696,313.320896 L426.210021,312.507767 L425.61141,312.256988 L425.164346,312.051806 L424.702128,312.051806 L423.330627,312.051806 L422.110673,312.256988 L420.898296,312.408975 L419.792003,311.329869 L419.072154,310.524338 L417.571838,310.775117 L416.344307,310.957501 L414.518165,312.81174 L413.714965,313.845251 L413.98775,315.676693 L414.207493,317.173763 L413.419449,318.207274 L412.654136,319.271182 L410.805262,319.225586 L409.827783,319.065999 L408.562365,318.640436 L406.933234,317.964095 L404.917658,317.333349 L402.667184,316.413829 L400.93197,315.175136 L398.454176,315.24353 L396.211279,314.643182 L394.013847,314.400003 L392.862089,313.290499 L391.339041,313.206906 L390.285789,312.424174 L389.641714,311.071491 L389.285578,310.281159 L388.944597,309.536424 L389.725065,308.518112 L389.285578,305.751951 L387.921655,304.748838 L388.406605,302.545028 L389.611405,300.151236 L387.845881,300.455209 L386.572886,300.576799 L385.102879,300.827577 L383.094881,301.762296 L381.185388,301.739498 L379.904815,301.321534 L379.480483,302.309449 L377.980167,302.552628 L376.661708,302.423439 L374.456698,301.845889 L372.67602,302.423439 L372.539628,302.552628 L371.774315,303.274565 L370.766527,304.285278 L368.084144,304.657646 L366.23527,304.361271 L364.969852,304.84003 L364.295467,306.192713 L362.923966,307.302217 L360.885658,308.259734 L360.408285,309.255248 L358.339668,309.870795 L356.831774,310.425547 L355.778522,311.215878 L353.03552,311.65664 L351.883763,312.135399 L350.656231,312.325382 L349.0271,311.649041 L347.731373,311.208279 L346.22348,311.436259 L346.549306,313.526079 L346.22348,315.425914 L345.177805,317.166164 L344.192749,318.564443 L344.185172,318.617638 L343.147074,319.658748 L343.124342,319.658748 L341.502789,320.806249 L339.949431,323.230439 L339.888812,326.672941 L340.222216,329.081933 L340.449536,330.624599 L340.729898,332.448442 L339.888812,335.032218 L337.608029,338.170747 L336.622973,339.607022 L335.266627,341.028099 L334.531623,342.357984 L333.084349,342.912736 L331.985633,346.188053 L330.098872,349.850936 L329.810932,351.765971 L328.606133,354.106568 L328.151492,357.336289 L326.173803,360.421622 L326.545093,362.792617 L327.431643,364.852039 L327.568036,365.194009 L327.87113,366.029937 L328.090873,366.622685 L328.174224,369.715618 L328.545514,371.782639 L329.651808,373.234114 L330.04583,375.924281 L329.833664,378.090093 L329.568457,380.666271 L328.750103,383.599617 L328.204533,386.145397 L329.356291,387.528477 L330.000366,389.853876 L330.856607,391.31295 L331.970478,392.35406 L333.076772,393.782736 L334.304303,395.424194 L335.941011,396.100535 L336.66086,396.913665 L338.479425,398.547524 L339.934276,400.188982 L340.813249,402.210407 L341.654336,403.304712 L342.912176,405.303339 L343.336508,405.782098 L343.609293,406.124068 L344.109398,406.56483 L345.389971,407.712331 L348.534572,410.052929 L350.875975,411.208029 L353.262841,412.6975 L354.861662,413.054669 L356.505948,413.449835 L357.70317,413.282649 L362.59814,411.010446 L364.356086,410.052929 L366.182228,409.817349 L368.531208,409.406984 L370.06941,409.194203 L372.751793,408.495063 L374.805256,407.84152 L376.479851,406.967595 L378.328726,406.732016 L380.1776,404.551004 L381.571833,403.4415 L385.906079,402.164811 L386.004584,402.126814 L386.822939,402.377592 L387.307889,402.52198 L389.611405,403.722676 L390.141819,405.189349 L390.550996,407.598341 L392.551418,408.563457 L395.514163,407.818722 L397.166026,406.921999 L398.719383,406.68642 L401.515427,408.715444 L402.371668,410.174518 L402.273162,413.936193 L402.25043,415.136889 L401.833675,417.029125 L402.583833,421.619128 L401.44723,424.582872 L404.364511,427.523817 L407.675815,430.776336 L411.131088,435.214352 L411.760008,437.54735 L413.260324,439.211606 L415.13193,441.377419 L415.715387,445.0631 L416.215492,446.438581 L416.518586,447.251711 L416.867144,448.254824 L417.329363,451.317359 L417.867355,453.072807 L418.193181,455.139828 L418.564472,458.270757 L417.238435,460.945726 L417.102042,462.457995 L417.056578,465.900497 L416.776216,468.453877 L416.692865,468.719854 L416.404926,469.654573 L415.980594,471.045252 L416.116986,474.115387 L417.473333,476.721961 L418.738751,478.963767 L420.542161,480.856004 L422.497118,485.559997 L424.69455,487.695412 L427.354201,492.855366 L427.748224,495.57593 L428.119514,498.00772 L429.347045,501.214643 L429.695604,502.141762 L429.900192,502.871299 L430.324524,504.535555 L431.930923,506.724166 L433.749488,508.631601 L435.507433,510.212264 L436.621304,513.160809 L438.00796,515.92697 L438.333786,516.572914 L438.424715,516.785696 L438.962707,518.381558 L439.735597,519.802635 L439.682555,523.222339 L440.053845,525.654128 L440.84189,526.771232 L442.819579,527.386779 L445.547427,527.265189 L445.729283,527.227192 L446.858309,526.900421 L447.919138,526.604046 L452.776222,525.882109 L454.109836,524.415436 L457.421139,523.89868 L458.633516,523.723895 L461.740231,522.006444 L463.354207,520.54737 L463.361784,520.539771 L463.793693,519.795035 L464.11952,519.194687 L465.142462,517.819206 L465.862311,516.398129 L466.930718,515.334221 L467.673298,514.004336 L468.696241,512.56806 L469.423667,511.215378 L469.696452,509.003969 L470.719394,507.59809 L471.416511,505.933834 L472.484918,504.847128 L473.227498,503.517243 L472.060586,502.118964 L474.773278,501.397027 L474.212554,497.741743 L473.515438,495.378347 L472.36368,493.995267 L473.515438,493.204935 L474.79601,491.76866 L476.546379,490.879537 L477.986076,490.37798 L478.758966,489.298873 L478.57711,488.044982 L477.993653,480.156864 L477.084371,478.386217 L476.667617,477.54269 L475.59921,476.448385 L475.068795,474.974113 L475.121837,473.454244 L476.22813,472.656313 L476.644885,471.052852 L477.440507,468.438678 L478.471027,467.063197 L481.577742,465.330547 L484.47229,463.590297 L485.404305,461.614468 L486.730342,458.293555 L487.19256,455.132229 L486.798538,452.746035 L486.518176,450.808203 L486.381784,450.025471 L486.215082,448.771579 L485.843791,447.160519 L485.661935,446.392985 L485.313377,444.880716 L484.851158,441.856177 L483.669091,440.131127 L482.229394,438.846838 L481.842949,434.272033 L482.44156,431.961833 L481.077636,430.966319 L479.547011,429.621236 L479.296958,427.478221 L480.539644,423.625354 L480.039539,420.258846 L480.668459,418.328613 L481.63836,416.588363 L483.782751,414.399753 L484.601105,411.846373 L486.586372,408.373474 L487.351685,405.485724 L488.677722,404.041849 L490.897886,402.187609 L493.269598,399.63423 L495.694351,395.226611 L497.694772,392.11848 L498.717715,388.843163 L498.717715,386.700149 L499.498182,383.44763 L500.657517,378.956419 L501.953245,375.331532 L502.188142,372.831348 L502.741289,370.27037 L502.407886,368.013365 L502.33969,367.534607 L502.301803,367.26103 L501.915358,365.125615 L499.945246,366.326311 L498.232764,367.192636 L496.49755,367.83858 L495.595845,368.279342 L493.974292,369.746015 L493.436299,370.467953 L492.693719,371.486265 L490.071955,371.645851 L489.314219,371.699046 L487.813903,371.919427 L486.207504,371.524261 L483.365997,369.183664 L481.191297,367.048249 L480.971553,365.558777 L478.774121,363.750134 L477.796642,362.648229 L476.409987,361.607119 L475.000599,360.566009 L473.924615,359.076538 L472.265174,358.544584 L472.189401,358.521786 L471.378624,358.081024 L470.408723,357.564269 L469.620678,355.23887 L468.953871,353.415028 L468.885675,353.225044 L468.537117,352.601898 L467.817268,351.325209 L466.324529,349.91933 L464.846945,348.042293 L463.346629,346.644014 L462.558585,343.870254 L462.558585,341.362471 L462.020593,340.192172 L460.421771,337.973164 L458.057637,336.263312 L456.163299,331.977282 L455.117624,330.541007 L453.700659,326.612147 L452.639829,325.046682 L450.684872,323.291234 L450.412087,321.247011 L448.934504,319.86393 L448.722338,318.176876 L448.441976,316.611412 L449.957446,318.420055 L451.760856,319.40037 L454.428085,320.631464 L456.019329,322.903667 L457.1332,324.795904 L460.005017,327.250491 L462.013015,329.454301 L465.142462,331.43013 L465.392515,333.04119 L465.718341,335.062616 L466.006281,337.114438 L467.074687,338.59631 L467.779381,340.169374 L469.537327,343.589078 L470.0147,343.870254 L470.954292,344.387009 L473.091106,345.557308 L475.076372,347.715521 L476.62973,349.546963 L477.88757,352.655094 L477.925457,352.753885 L478.190665,353.544217 L478.668038,355.041287 L479.524279,358.187415 L480.213818,359.760479 L483.085635,362.237865 L484.434404,362.830613 L486.56364,363.362567 L489.246023,361.698311 L490.375049,361.538725 L492.837689,361.151159 L496.61121,358.901753 L498.922303,357.731455 L500.263495,355.877215 L501.915358,354.744913 L502.56701,354.304151 L502.56701,354.068571 L502.582165,351.811567 L505.635838,350.071317 L506.620894,348.695836 L507.083113,348.07269 L507.681724,347.282358 L507.871157,347.084776 L509.43967,345.336927 L512.569117,344.037439 L513.501131,342.274392 L514.30433,339.265052 L515.304541,337.866773 L516.918517,334.720645 L516.615423,332.684021 L518.221822,329.92546 L517.092796,327.600061 L513.887576,325.639431 L512.137207,325.084679 L510.303488,324.089165 L509.204772,322.189329 L507.818116,321.178617 L507.477135,319.157191 L505.249393,322.250124 L505.113001,322.447707 L504.62805,323.929579 L504.529545,324.195556 L501.059117,325.555838 L499.483027,326.216981 L497.81601,326.034596 L496.626365,323.747194 L495.883785,321.748567 L494.633521,321.573782 L493.754548,323.747194 L492.2315,321.938551 L491.140361,320.015917 L489.359683,316.535418 L487.791171,314.339208 L486.230236,312.46977 L485.184562,310.980299 L485.305799,308.920877 L488.056379,308.092549 L490.882731,307.644187 L492.792224,309.445232 L493.428722,310.987898 L494.012178,312.112601 L495.565536,313.96684 L496.535437,315.053546 L498.384311,316.421428 L499.778544,317.052174 L501.862316,317.55373 L503.658149,317.249756 L504.51439,317.112968 L504.703824,317.09017 L506.651204,316.413829 L508.272757,316.155451 L509.947352,316.299839 L511.462823,318.13128 L512.493343,319.225586 L514.107319,318.990006 L518.373369,319.993119 L520.578379,320.90504 L524.912625,319.825934 L531.300334,318.01729 L533.361374,318.549244 L534.240347,318.807622 L535.134475,319.043201 L535.179939,319.065999 L535.786127,320.274295 L539.203513,321.383799 L541.56007,323.078452 L543.355903,324.058767 L545.379056,323.754794 L543.030077,327.432876 L541.984402,328.838754 L544.810755,330.85258 L547.690149,331.247746 L549.357167,331.004567 L550.448306,330.016652 L550.008819,327.174498 L550.274027,325.905408 L551.584909,326.57415 L552.388108,328.88435 L552.774553,331.688507 L552.789708,334.621854 L553.797496,338.216343 L555.426627,342.145203 L555.706989,342.791147 L555.744876,342.889938 L557.646791,347.540736 L559.866956,350.930043 L560.336752,354.159764 L560.450412,354.570128 L561.170261,356.956322 L561.276343,357.055113 L564.117851,359.844072 L566.822966,363.962916 L567.656475,367.162239 L570.005454,368.87969 L571.831597,367.344623 L572.748456,365.171211 L574.263927,364.1377 L574.809496,365.239605 L575.317179,368.476925 L576.590174,371.167092 L577.416106,373.96365 L579.545342,374.457608 L580.962307,372.998534 L580.591017,370.597142 L579.871168,368.583316 L577.954098,366.835467 L576.908423,365.361195 L576.324967,364.206094 L574.801919,362.359454 L574.498825,360.315231 L574.195731,358.316604 L573.756244,355.489648 L574.195731,352.913471 L573.642584,349.258188 L573.248562,346.871994 L573.377377,344.789774 L576.127956,341.446063 L577.86317,339.120664 L579.787818,338.375929 L582.12922,334.713046 L583.182472,333.291969 L584.197837,331.89369 L585.796659,328.785559 L586.561971,328.18521 L587.160582,327.72925 C587.554605,333.398359 587.819812,339.097866 587.819812,344.873367 C587.812235,479.799695 478.728657,589.199831 344.147285,589.199831 Z M432.878092,280.172564 L432.317368,281.061687 L431.597519,280.962895 L430.809474,280.704518 L430.27906,281.038889 L428.983332,281.958409 L428.157401,282.049601 L428.70297,281.061687 L430.574576,280.028176 L430.877671,279.709004 L431.317157,279.329037 L431.620251,278.287927 L430.900403,278.166337 L430.029007,278.044748 L429.263694,277.581188 L428.634774,276.646469 L427.78611,275.263388 L428.430186,273.697924 L428.915136,272.079264 L429.134879,271.562509 L430.044162,270.772177 L430.13509,270.688584 L429.975966,269.921051 L429.604675,268.097208 L430.082049,267.299277 L430.241173,266.80532 L431.264116,266.410154 L430.938289,264.875087 L430.271482,263.955567 L430.877671,263.089242 L431.499014,262.390102 L432.703813,261.045018 L433.211495,260.33068 L433.62825,258.955199 L435.249803,258.727219 L435.613516,258.605629 L436.06058,258.932401 L436.181818,259.236375 L436.71981,259.783528 L438.591416,260.110299 L440.008381,259.905117 L441.228335,259.304769 L441.395037,260.391475 L440.879777,260.824637 L439.508276,261.424986 L439.144563,262.192519 L438.81116,262.982851 L439.621936,263.074043 L441.311686,263.074043 L441.682976,263.773182 L441.698131,264.7307 L441.440501,265.338647 L441.963338,265.733813 L442.948394,265.733813 L444.122884,264.913084 L445.600468,264.183547 L446.456709,263.750384 L446.934082,263.530003 L447.487229,263.203232 L448.388934,263.074043 L448.782956,262.17732 L450.715182,261.531376 L451.147091,262.032933 L451.54869,262.982851 L452.427663,263.332421 L453.200553,263.68199 L454.541745,264.563514 L455.07216,264.920683 L455.693503,265.452637 L456.481547,266.197373 L457.421139,266.873714 L458.156142,267.094095 L459.936821,267.717241 L461.315899,267.952821 L462.013015,268.583566 L462.6874,269.396696 L462.937452,269.738666 L463.088999,270.202226 L463.104154,270.247822 L463.164773,270.703783 L463.081422,271.577707 L462.619204,272.953188 L461.747808,273.933503 L461.240125,274.351467 L460.126254,275.141799 L459.429138,275.354581 L458.663825,275.020209 L458.247071,274.693438 L458.224339,274.678239 L457.754543,274.419861 L457.436294,275.027809 L457.421139,275.050607 L456.814951,275.552163 L453.973443,275.833339 L452.844418,275.430574 L452.192765,275.164597 L451.882094,274.708636 L450.912193,274.708636 L450.343891,275.430574 L449.601311,274.685838 L448.926926,274.442659 L448.1995,274.313471 L447.275063,274.313471 L447.161403,273.523139 L445.706551,273.614331 L441.789059,273.85751 L441.160139,274.761832 L439.788638,275.82574 L439.243069,276.380492 L438.053424,276.958042 L437.75033,277.611585 L437.288112,278.113142 L435.234649,278.812281 L434.878513,278.379119 L433.613095,278.48551 L432.802318,278.812281 L432.878092,280.172564 Z M450.851574,257.625314 L451.798743,258.225662 L452.192765,258.620828 L451.268328,259.75313 L451.518381,260.399074 L450.343891,260.710647 L449.063319,261.174207 L447.813055,261.478181 L445.956604,261.774555 L445.214023,261.478181 L444.425978,261.052618 L444.289586,260.33828 L443.524273,260.079902 L442.895353,259.798726 L442.546795,259.251574 L441.682976,258.810812 L444.122884,258.522037 L444.835155,258.567633 L445.698974,257.944487 L446.373358,256.850181 L447.494806,256.348625 L449.464918,255.771075 L449.957446,255.109932 L450.927347,254.501984 L451.389566,254.213209 L452.033641,253.840842 L452.139724,253.818044 L453.01112,253.559666 L453.935557,253.415278 L454.609941,253.362083 L454.723601,254.015626 L453.965866,254.509584 L453.405142,255.451902 L452.814108,255.82427 L452.412509,256.082648 L452.230652,256.705794 L452.185188,256.713393 L451.69266,256.781787 L450.730336,257.040165 L450.851574,257.625314 Z" id="Shape"></path>
                <g>
                    <path d="M195.214406,46.2723972 L190.236085,36.286861 C193.60043,34.5922076 197.002661,32.958349 200.427625,31.3700863 L205.08012,41.5152087 C201.753662,43.0426766 198.472668,44.6385386 195.214406,46.2723972 Z" id="Path"></path>
                    <path d="M341.836192,689.723936 C334.327035,689.67074 326.863342,689.381965 319.483,688.86521 L320.271045,677.716974 C327.408911,678.218531 334.637706,678.507306 341.904388,678.552902 L341.836192,689.723936 Z M364.212116,689.146386 L363.560464,677.99815 C370.811991,677.580186 378.010477,676.926643 385.133189,676.060318 L386.489535,687.140159 C379.11677,688.044481 371.698541,688.705624 364.212116,689.146386 Z M297.228313,686.54741 C289.802507,685.536698 282.422165,684.282806 275.147906,682.785736 L277.390802,671.850282 C284.430163,673.286558 291.537721,674.510052 298.721052,675.490367 L297.228313,686.54741 Z M408.600252,683.682458 L406.51648,672.716607 C413.646769,671.348725 420.693708,669.775661 427.649718,667.967018 L430.438184,678.788482 C423.239699,680.635122 415.950285,682.268981 408.600252,683.682458 Z M253.393324,677.595385 C246.156952,675.619556 239.03424,673.408147 232.002456,670.976357 L235.632008,660.413271 C242.421317,662.776667 249.33944,664.912082 256.32576,666.819517 L253.393324,677.595385 Z M451.912403,672.458229 L448.434398,661.849547 C455.29948,659.577344 462.088789,657.084759 468.75686,654.379393 L472.939559,664.737297 C466.021435,667.526256 459.019961,670.102433 451.912403,672.458229 Z M211.066229,662.959051 C204.155683,660.040903 197.366374,656.925173 190.698303,653.589062 L195.676624,643.603525 C202.124952,646.833246 208.694517,649.850185 215.370166,652.661942 L211.066229,662.959051 Z M493.360526,655.663682 L488.526174,645.609752 C495.027544,642.456025 501.42283,639.112314 507.689301,635.555821 L513.167727,645.260182 C506.696668,648.945863 500.081638,652.418763 493.360526,655.663682 Z M170.98203,642.896786 C164.526125,639.112314 158.206612,635.130258 152.023492,630.958219 L158.236922,621.679422 C164.230608,625.737471 170.35311,629.597937 176.596849,633.253221 L170.98203,642.896786 Z M532.270235,633.60279 L526.178043,624.255599 C532.217194,620.288742 538.119952,616.124302 543.87874,611.777478 L550.584698,620.714305 C544.621321,625.197917 538.521552,629.499145 532.270235,633.60279 Z M133.875731,617.796158 C127.972973,613.206155 122.214184,608.441367 116.622097,603.486596 L124.00244,595.11212 C129.41267,599.907305 134.982024,604.520106 140.687771,608.958122 L133.875731,617.796158 Z M568.027765,606.647922 L560.761083,598.167056 C566.247087,593.455463 571.573967,588.553887 576.734144,583.500325 L584.516086,591.494833 C579.189207,596.715581 573.680471,601.769144 568.027765,606.647922 Z M100.330788,588.090327 C95.0645273,582.793586 89.9801232,577.31446 85.0624209,571.690946 L93.450551,564.342382 C98.1939742,569.79111 103.126831,575.095452 108.218813,580.217409 L100.330788,588.090327 Z M600.019351,575.285435 L591.729726,567.83048 C596.564078,562.442546 601.216573,556.902625 605.687211,551.203118 L614.4239,558.11852 C609.809291,563.992812 604.997672,569.730316 600.019351,575.285435 Z M70.907925,554.326448 C66.3690903,548.391362 62.0272669,542.304288 57.8824547,536.065228 L67.1495577,529.879363 C71.1579776,535.905642 75.3558314,541.795132 79.7355416,547.532636 L70.907925,554.326448 Z M627.714577,540.032085 L618.538402,533.709432 C622.622596,527.736348 626.53251,521.634076 630.230258,515.410215 L639.800456,521.12492 C635.973892,527.561563 631.935163,533.869018 627.714577,540.032085 Z M46.0769382,517.028875 C42.3488804,510.569433 38.8329885,503.958005 35.5292624,497.240186 L45.5086367,492.315812 C48.7062798,498.805651 52.1085114,505.181499 55.7077543,511.443358 L46.0769382,517.028875 Z M650.628494,501.450222 L640.702161,496.38906 C643.983155,489.944818 647.05956,483.394184 649.9238,476.706763 L660.153227,481.121981 C657.198059,488.022184 654.01557,494.808397 650.628494,501.450222 Z M26.3000461,476.835951 C23.4509613,469.950947 20.8140423,462.936754 18.404444,455.831368 L28.9596971,452.22928 C31.2859446,459.106685 33.8319353,465.885299 36.5900919,472.549922 L26.3000461,476.835951 Z M668.336768,460.20099 L657.834557,456.469713 C660.244155,449.675901 662.426433,442.760499 664.396544,435.776703 L675.118499,438.808841 C673.095346,446.028216 670.82214,453.163999 668.336768,460.20099 Z M11.8954975,434.348027 C9.98600447,427.166648 8.27352263,419.86368 6.8186708,412.484718 L17.7300595,410.326505 C19.154602,417.447089 20.7837329,424.499279 22.6553392,431.460277 L11.8954975,434.348027 Z M680.49842,417.021526 L669.602186,414.680928 C671.102502,407.636338 672.375498,400.508154 673.421172,393.303977 L684.446221,394.922637 C683.36266,402.362394 682.0442,409.733756 680.49842,417.021526 Z M3.18154121,390.340234 C2.20406264,382.900477 1.46148202,375.377128 0.984108759,368.013365 L12.100086,367.291428 C12.5698819,374.5488 13.2821532,381.745377 14.2293223,388.88116 L3.18154121,390.340234 Z M686.931593,372.633765 L675.838348,371.729444 C676.414227,364.563264 676.755208,357.328689 676.868868,350.04092 L688,350.208105 C687.893917,357.746653 687.530204,365.216807 686.931593,372.633765 Z M0.211218723,345.587705 L0.211218723,344.842969 C0.211218723,337.562799 0.423384615,330.320626 0.885603166,323.146846 L12.0015805,323.868784 C11.562094,330.799384 11.3423507,337.798379 11.3423507,344.842969 L0.211218723,345.587705 Z M676.52031,328.3068 C676.156597,321.034229 675.573141,313.814854 674.754786,306.671471 L685.832877,305.402381 C686.666386,312.788942 687.272574,320.243897 687.62871,327.759647 L676.52031,328.3068 Z M14.0323111,302.225856 L2.98453003,300.804779 C3.9468539,293.342225 5.11376631,285.940465 6.53073137,278.637497 L17.4724295,280.757713 C16.1009286,287.8403 14.9491709,294.991282 14.0323111,302.225856 Z M671.602607,285.172931 C670.322035,278.01435 668.798987,270.946962 667.07135,263.940368 L677.876656,261.2578 C679.672489,268.477175 681.233424,275.802942 682.567038,283.197102 L671.602607,285.172931 Z M22.2992036,259.593544 L11.5317845,256.74379 C13.4488549,249.486418 15.5932459,242.312639 17.9422254,235.237651 L28.5126333,238.771345 C26.2242726,245.618353 24.1480778,252.556553 22.2992036,259.593544 Z M661.168592,243.064974 C658.956005,236.157171 656.523674,229.325362 653.886755,222.615143 L664.260152,218.519097 C666.980422,225.472496 669.480949,232.517086 671.776887,239.668068 L661.168592,243.064974 Z M36.0520998,218.420306 L25.7468993,214.164674 C28.5959842,207.226474 31.6420802,200.387066 34.9154968,193.684445 L44.9176032,198.593621 C41.7502695,205.083459 38.7951017,211.694887 36.0520998,218.420306 Z M645.309192,202.697266 C642.232786,196.154232 638.944215,189.709989 635.458632,183.394935 L645.195531,177.984204 C648.802351,184.50444 652.189428,191.153864 655.379494,197.940077 L645.309192,202.697266 Z M624.372964,164.768947 C620.46305,158.659075 616.363702,152.70879 612.090075,146.880094 L621.054084,140.245868 C625.479258,146.272147 629.714998,152.420015 633.74615,158.727469 L624.372964,164.768947 Z M598.678159,129.834769 C594.033242,124.302447 589.191313,118.914513 584.19026,113.686166 L592.237409,105.957634 C597.397587,111.345568 602.383485,116.908287 607.195104,122.630592 L598.678159,129.834769 Z M568.70215,98.5102784 C563.382848,93.6163018 557.889267,88.9047093 552.259293,84.3679018 L559.215303,75.6666545 C565.049865,80.3554489 570.717726,85.2190282 576.226462,90.272591 L568.70215,98.5102784 Z M534.922309,71.3274298 C529.027128,67.1781888 522.965245,63.2189313 516.782125,59.442058 L522.571223,49.9124823 C528.966509,53.8033458 535.217826,57.9069908 541.325172,62.1854207 L534.922309,71.3274298 Z M497.906938,48.7497829 C491.511652,45.4136715 485.002705,42.2675437 478.364944,39.3265981 L482.873469,29.1206809 C489.723396,32.1452193 496.452086,35.3977379 503.067115,38.8478395 L497.906938,48.7497829 Z M225.023714,33.0875378 L221.045603,22.6612397 C227.971304,19.9710724 235.094016,17.5088854 242.209151,15.305076 L245.497722,25.9669537 C238.572021,28.1327664 231.744826,30.4961619 225.023714,33.0875378 Z M458.27738,31.2105001 C451.495649,28.7331145 444.645722,26.4761097 437.689711,24.4242872 L440.819158,13.7168134 C447.994912,15.8066327 455.087314,18.1548295 462.081211,20.715808 L458.27738,31.2105001 Z M266.380908,20.2294501 L263.789453,9.36239011 C271.018248,7.62973999 278.337971,6.12507015 285.725891,4.85597994 L287.597497,15.8598281 C280.452053,17.0985209 273.374805,18.5499953 266.380908,20.2294501 Z M416.715597,19.0287539 C409.691391,17.4632893 402.606565,16.1182057 395.438389,15.0087017 L397.135716,3.97445619 C404.546368,5.12955627 411.866091,6.51263663 419.132773,8.13129661 L416.715597,19.0287539 Z M309.048984,12.8960844 L307.904804,1.79344486 C315.269991,1.01831191 322.710952,0.478758585 330.227687,0.17478488 L330.659596,11.3382192 C323.385337,11.6269942 316.186851,12.1513489 309.048984,12.8960844 Z M373.941438,12.3869285 C366.788416,11.756183 359.574776,11.3382192 352.323249,11.1710337 L352.580879,0 C360.090036,0.182384223 367.546152,0.60794741 374.911339,1.26149088 L373.941438,12.3869285 Z" id="Shape"></path>
                    <path d="M55.6244034,178.356571 L45.9935873,172.778654 C47.8803483,169.503337 49.8125734,166.258418 51.8054173,163.051495 L61.2695316,168.948585 C59.3373065,172.056716 57.4657002,175.195245 55.6244034,178.356571 Z" id="Path"></path>
                </g>
                <path d="M158.312695,49.1677468 C165.776388,41.765987 176.884788,53.0358122 169.193775,60.6199561 L137.975079,91.6100753 L154.910464,161.554425 L143.370155,172.991435 L114.659563,115.130041 L91.30616,138.300436 L93.3747775,156.219686 L84.2516441,165.270503 L73.7115457,144.896666 L53.5178992,134.120798 L62.6561872,125.054782 L80.3947713,127.228194 L103.748174,104.050199 L46.3573003,74.6179452 L57.9051867,63.1657359 L126.859102,80.3402502 L158.312695,49.1677468 Z" id="Path"></path>
            </g>
        </g>
    </g>
</svg>