<?xml version="1.0" encoding="UTF-8"?>
<svg width="329px" height="281px" viewBox="0 0 329 281" version="1.1" xmlns="http://www.w3.org/2000/svg" xmlns:xlink="http://www.w3.org/1999/xlink">
    <!-- Generator: Sketch 54.1 (76490) - https://sketchapp.com -->
    <title>empty</title>
    <desc>Created with Sketch.</desc>
    <defs>
        <linearGradient x1="49.9989145%" y1="99.9903002%" x2="49.9989145%" y2="0.00713229431%" id="linearGradient-1">
            <stop stop-color="#808080" stop-opacity="0.25" offset="0%"></stop>
            <stop stop-color="#808080" stop-opacity="0.12" offset="54%"></stop>
            <stop stop-color="#808080" stop-opacity="0.1" offset="100%"></stop>
        </linearGradient>
    </defs>
    <g id="no-flights" stroke="none" stroke-width="1" fill="none" fill-rule="evenodd">
        <g id="Artboard" transform="translate(-258.000000, -204.000000)">
            <g id="empty" transform="translate(222.000000, 129.000000)">
                <g id="Group-2">
                    <rect id="Rectangle" fill-opacity="0" fill="#FFFFFF" x="0" y="0" width="400" height="400"></rect>
                    <g id="undraw_airport_2581" transform="translate(36.000000, 75.000000)" fill-rule="nonzero">
                        <path d="M41.6060566,223 C41.6060566,223 44.0106082,226.207288 40.4980769,231.050877 C36.9855457,235.894465 34.0994102,239.988656 35.2612734,243 C35.2612734,243 40.5586959,234.007219 44.8727443,233.880028 C49.1867928,233.752836 46.3511731,228.410794 41.6060566,223 Z" id="Path" fill="#006600"></path>
                        <path d="M41.5454658,223 C41.7571447,223.310561 41.9245193,223.649618 42.042676,224.007219 C46.2996126,229.053627 48.5643029,233.763149 44.4742382,233.880028 C40.6668341,233.990031 36.0931813,240.868683 35,242.604675 C35.0364613,242.738582 35.0796542,242.870528 35.1294109,243 C35.1294109,243 40.4863399,234.007219 44.8488486,233.880028 C49.2113573,233.752836 46.3438848,228.410794 41.5454658,223 Z" id="Path" fill="#000000" opacity="0.1"></path>
                        <path d="M46,226.784904 C46,228.008055 45.7757576,229 45.5030303,229 C45.230303,229 45,228.008055 45,226.784904 C45,225.561754 45.2787879,226.136038 45.5575758,226.136038 C45.8363636,226.136038 46,225.558025 46,226.784904 Z" id="Path" fill="#FFD037"></path>
                        <path d="M48.2787698,228.009425 C47.1118658,228.712686 46.0908248,229.138225 46.005738,228.959051 C45.9206513,228.779876 46.7917775,228.063177 47.9586815,227.359917 C49.1255856,226.656657 48.6677378,227.167304 48.7690315,227.359917 C48.8703253,227.55253 49.4456738,227.306165 48.2787698,228.009425 Z" id="Path" fill="#FFD037"></path>
                        <path d="M28.3939434,223 C28.3939434,223 25.9893918,226.207288 29.5019231,231.050877 C33.0144543,235.894465 35.9005898,239.988656 34.7387266,243 C34.7387266,243 29.4413041,234.007219 25.1272557,233.880028 C20.8132072,233.752836 23.6488269,228.410794 28.3939434,223 Z" id="Path" fill="#006600"></path>
                        <path d="M28.4545342,223 C28.2428553,223.310561 28.0754807,223.649618 27.957324,224.007219 C23.7003874,229.053627 21.4356971,233.763149 25.5257618,233.880028 C29.3365715,233.990031 33.9068187,240.868683 35,242.604675 C34.9650888,242.73905 34.9218671,242.871084 34.8705891,243 C34.8705891,243 29.5136601,234.007219 25.1511514,233.880028 C20.7886427,233.752836 23.6561152,228.410794 28.4545342,223 Z" id="Path" fill="#000000" opacity="0.1"></path>
                        <path d="M24,226.784904 C24,228.008055 24.2242424,229 24.5030303,229 C24.7818182,229 25,228.008055 25,226.784904 C25,225.561754 24.7212121,226.136038 24.4424242,226.136038 C24.1636364,226.136038 24,225.558025 24,226.784904 Z" id="Path" fill="#FFD037"></path>
                        <path d="M22.7201414,228.009425 C23.8852839,228.712686 24.9047835,229.138225 24.9937875,228.959051 C25.0827914,228.779876 24.2048889,228.063177 23.0397465,227.359917 C21.874604,226.656657 22.3317606,227.167304 22.2306198,227.359917 C22.1294789,227.55253 21.554999,227.306165 22.7201414,228.009425 Z" id="Path" fill="#FFD037"></path>
                        <path d="M315.510014,195.195668 C313.314473,200.4968 310.433896,205.578339 306.402458,209.476129 C301.490749,214.224846 295.390501,216.815367 288.858681,218.054013 C286.933211,218.413542 284.989275,218.665549 283.035874,218.808867 C277.874126,219.206881 272.589072,218.942682 267.519804,218.390266 C255.103136,217.032307 242.857375,214.407582 230.973123,210.556943 C229.02077,209.92561 227.079834,209.26111 225.150316,208.563442 C222.236628,207.522659 219.351484,206.399528 216.494883,205.194049 C204.849268,200.31838 192.809757,194.10113 180.420877,196.029438 C174.416535,196.966143 168.775262,199.803707 162.757219,200.647771 C158.533619,201.20363 154.241415,200.897843 150.138853,199.748809 C148.152703,199.216587 146.206858,198.543526 144.316045,197.734721 C140.054393,195.878603 135.999496,193.578508 132.218306,190.872414 C123.141576,184.517918 114.996496,176.639989 105.440241,171.136419 C94.9043845,165.066708 83.2416433,162.181108 71.3596906,160.029774 C69.4256051,159.679797 67.4846692,159.345831 65.536883,159.027877 C60.0394676,158.118622 54.5283514,157.277989 49.0960144,156.282955 C43.8623379,155.315369 38.5361815,154.131621 33.9806908,151.222003 C30.7301941,149.146155 27.9968997,146.270848 25.4896673,143.24114 C20.8632826,137.632763 16.8938527,131.511668 13.6590922,124.997696 C13.4878332,124.654581 13.3199993,124.311465 13.1555906,123.96835 C8.12399981,113.626853 4.73992103,102.352082 2.66426137,90.6861597 C2.60260811,90.3430444 2.54438003,89.999929 2.48615196,89.6568137 C0.533798812,78.2207786 -0.178638827,66.3970233 0.0371475733,54.6590468 L0.057698659,53.6297007 C0.191280716,47.8344822 0.550924717,42.0632818 1.08525295,36.3744291 C1.46887321,32.373704 1.98265036,28.2220081 4.05145965,24.8594776 C6.12026895,21.496947 9.49749737,19.3181645 12.8713006,17.5271023 C27.7023342,9.61143091 41.9202603,7.40863029 57.8747532,11.24466 C60.4367885,11.8588365 62.9885484,12.5210492 65.5403082,13.2072799 C67.4823858,13.7288153 69.4244634,14.2675064 71.3631158,14.8096286 C84.7658489,18.5530172 98.1343301,22.5365866 111.989187,23.730628 C113.327291,23.8472873 114.666537,23.9364973 116.006924,23.998258 C118.658014,24.1217796 121.309104,24.1492288 123.960195,24.0806057 C130.789292,23.8886022 137.594589,23.1867005 144.31947,21.9807397 C146.264973,21.6444866 148.205909,21.2716346 150.142278,20.8621836 C158.499719,19.1157264 166.781807,16.7859731 174.930312,14.2091768 C176.59495,13.6830665 178.257305,13.1478066 179.917376,12.6033969 C183.657673,11.378475 187.397971,10.1295351 191.145119,8.91490673 C202.328335,5.28131504 213.586905,1.9633895 225.150316,0.625239586 C226.141335,0.510867798 227.132354,0.411364344 228.123373,0.326729221 C229.072148,0.244381534 230.024348,0.179189615 230.973123,0.131153465 C248.938197,-0.829569548 267.108782,3.51083978 283.035874,12.3940965 C285.011061,13.4966405 286.951997,14.6678076 288.858681,15.9075978 C291.500638,17.6300369 294.061531,19.4828599 296.541362,21.4660667 C301.624331,25.5319837 306.381907,30.1606099 310.005749,35.7225099 C313.53711,41.1403015 315.828556,47.2237369 317.147251,53.6194072 C317.21918,53.9625226 317.287683,54.3056379 317.349336,54.6487533 C319.284564,64.9730945 318.681732,76.0454273 316.510167,86.3903554 C316.28068,87.4746 316.037492,88.5622756 315.784029,89.6465202 C315.70525,89.9896356 315.623045,90.3327509 315.540841,90.6758663 C313.198017,100.458085 310.204409,110.212855 310.98535,120.214668 C311.084681,121.473901 311.242239,122.722841 311.44775,123.958056 C311.505978,124.301172 311.564206,124.644287 311.629284,124.987402 C313.156915,133.146686 316.630048,140.887368 318.712558,148.967735 C322.621642,164.322344 321.498879,180.529155 315.510014,195.195668 Z" id="Path" fill="#006600" opacity="0.1"></path>
                        <path d="M288.537375,55.3597565 L317,55.3597565 C316.938407,55.0176991 316.869971,54.6756417 316.798113,54.3335844 L288.537375,54.3335844 L288.537375,16.7277977 C286.634849,15.4941108 284.695822,14.3265549 282.720297,13.2251302 L282.720297,54.3335844 L230.708768,54.3335844 L230.708768,1 C229.760927,1.04788803 228.809663,1.11287893 227.861821,1.1949727 C226.91398,1.27706647 225.880593,1.37968368 224.891689,1.49256261 L224.891689,54.3335844 L150.638389,54.3335844 L150.460455,54.1386117 L190.916527,9.75324798 C187.173066,10.964131 183.436448,12.2092199 179.699831,13.4303647 L149.954027,46.0592167 L149.954027,21.6636854 C148.017282,22.0718739 146.078255,22.4435762 144.136948,22.7787924 L144.136948,47.1845855 L123.797703,24.8721835 C121.149221,24.9360342 118.500739,24.9086696 115.852258,24.7900898 L142.597133,54.12835 L142.419199,54.3233227 L71.2455284,54.3233227 L71.2455284,15.6332141 C69.3087834,15.0927634 67.3686165,14.5557334 65.4284496,14.0358062 L65.4284496,54.3335844 L0.0205308665,54.3335844 L0,55.3597565 L65.4352932,55.3597565 L65.4352932,90.2496077 L2.44659492,90.2496077 C2.50476571,90.5916651 2.5629365,90.9337225 2.6245291,91.2757798 L65.4352932,91.2757798 L65.4352932,124.455344 L13.1055364,124.455344 C13.2697834,124.797402 13.4374521,125.139459 13.6085427,125.481516 L65.4352932,125.481516 L65.4352932,159.43413 C67.3788819,159.751104 69.3179082,160.084039 71.2523721,160.432938 L71.2523721,125.481516 L144.136948,125.481516 L144.136948,197.997678 C146.025901,198.803989 147.969832,199.474974 149.954027,200.005555 L149.954027,125.481516 L224.891689,125.481516 L224.891689,208.786167 C226.821591,209.483964 228.760617,210.146415 230.708768,210.77352 L230.708768,125.481516 L282.720297,125.481516 L282.720297,219 C284.671776,218.857124 286.6138,218.605894 288.537375,218.247474 L288.537375,125.481516 L311.285576,125.481516 C311.220561,125.139459 311.16239,124.797402 311.10422,124.455344 L288.520266,124.455344 L288.520266,91.2757798 L315.176175,91.2757798 C315.258298,90.9337225 315.340422,90.5916651 315.419123,90.2496077 L288.537375,90.2496077 L288.537375,55.3597565 Z M282.720297,55.3597565 L282.720297,90.2496077 L230.708768,90.2496077 L230.708768,55.3597565 L282.720297,55.3597565 Z M224.891689,90.2496077 L149.954027,90.2496077 L149.954027,55.3597565 L224.891689,55.3597565 L224.891689,90.2496077 Z M71.2523721,55.3597565 L143.110405,55.3597565 L144.136948,56.2935731 L144.136948,90.2496077 L71.2523721,90.2496077 L71.2523721,55.3597565 Z M71.2523721,124.455344 L71.2523721,91.2757798 L144.136948,91.2757798 L144.136948,124.455344 L71.2523721,124.455344 Z M149.954027,124.455344 L149.954027,91.2757798 L224.891689,91.2757798 L224.891689,124.455344 L149.954027,124.455344 Z M282.720297,124.455344 L230.708768,124.455344 L230.708768,91.2757798 L282.720297,91.2757798 L282.720297,124.455344 Z" id="Shape" fill="#006600" opacity="0.1"></path>
                        <path d="M138.635282,64.3226568 C138.194123,63.9373512 137.682756,63.6431129 137.129987,63.4565167 C135.89343,63.0691894 134.594791,62.9262935 133.304887,63.0356213 C132.35865,63.0896282 131.418398,63.2222566 130.493628,63.4321674 L87.3074599,75.7981433 C86.4918052,76.0300416 85.6898975,76.3002031 84.9017368,76.6086278 C82.1179714,75.5059515 74.2478198,72.3161906 73.3851962,71.1717726 L70,72.1735731 L75.6431392,80.6993135 L75.6431392,80.6993135 C75.350983,80.8284664 75.1670858,81.1258595 75.18001,81.4482721 C75.1929343,81.7706846 75.4000306,82.0520214 75.7015639,82.1567942 C82.2073268,84.4178025 92.0329876,81.4158792 92.0329876,81.4158792 L129.768474,70.5039055 C129.768474,70.5039055 141.157855,66.6045359 138.635282,64.3226568 Z" id="Path" fill="#006600" opacity="0.1"></path>
                        <ellipse id="Oval" fill="#006600" opacity="0.1" transform="translate(88.547518, 78.020949) rotate(-18.220000) translate(-88.547518, -78.020949) " cx="88.5475175" cy="78.020949" rx="1" ry="1"></ellipse>
                        <ellipse id="Oval" fill="#006600" opacity="0.1" transform="translate(89.858211, 77.588753) rotate(-18.220000) translate(-89.858211, -77.588753) " cx="89.8582113" cy="77.5887527" rx="1" ry="1"></ellipse>
                        <ellipse id="Oval" fill="#006600" opacity="0.1" transform="translate(92.359973, 76.764682) rotate(-18.220000) translate(-92.359973, -76.764682) " cx="92.3599725" cy="76.7646819" rx="1" ry="1"></ellipse>
                        <ellipse id="Oval" fill="#006600" opacity="0.1" transform="translate(99.421664, 74.692272) rotate(-18.220000) translate(-99.421664, -74.692272) " cx="99.4216645" cy="74.6922723" rx="1" ry="1"></ellipse>
                        <ellipse id="Oval" fill="#006600" opacity="0.1" transform="translate(100.452816, 74.673146) rotate(-18.072322) translate(-100.452816, -74.673146) " cx="100.452816" cy="74.6731456" rx="1" ry="1"></ellipse>
                        <ellipse id="Oval" fill="#006600" opacity="0.1" transform="translate(101.955056, 73.980581) rotate(-18.220000) translate(-101.955056, -73.980581) " cx="101.955056" cy="73.9805809" rx="1" ry="1"></ellipse>
                        <ellipse id="Oval" fill="#006600" opacity="0.1" transform="translate(103.250373, 73.552499) rotate(-18.220000) translate(-103.250373, -73.552499) " cx="103.250373" cy="73.5524987" rx="1" ry="1"></ellipse>
                        <ellipse id="Oval" fill="#006600" opacity="0.1" transform="translate(104.522691, 73.134828) rotate(-18.220000) translate(-104.522691, -73.134828) " cx="104.522691" cy="73.134828" rx="1" ry="1"></ellipse>
                        <ellipse id="Oval" fill="#006600" opacity="0.1" transform="translate(105.672299, 72.756195) rotate(-18.220000) translate(-105.672299, -72.756195) " cx="105.672299" cy="72.7561951" rx="1" ry="1"></ellipse>
                        <ellipse id="Oval" fill="#006600" opacity="0.1" transform="translate(106.909497, 72.348552) rotate(-18.220000) translate(-106.909497, -72.348552) " cx="106.909497" cy="72.3485517" rx="1" ry="1"></ellipse>
                        <ellipse id="Oval" fill="#006600" opacity="0.1" transform="translate(108.201559, 71.921541) rotate(-18.220000) translate(-108.201559, -71.921541) " cx="108.201559" cy="71.9215408" rx="1" ry="1"></ellipse>
                        <ellipse id="Oval" fill="#006600" opacity="0.1" transform="translate(109.348983, 71.543808) rotate(-18.220000) translate(-109.348983, -71.543808) " cx="109.348983" cy="71.5438076" rx="1" ry="1"></ellipse>
                        <ellipse id="Oval" fill="#006600" opacity="0.1" transform="translate(115.779218, 69.884380) rotate(-18.220000) translate(-115.779218, -69.884380) " cx="115.779218" cy="69.8843796" rx="1" ry="1"></ellipse>
                        <ellipse id="Oval" fill="#006600" opacity="0.1" transform="translate(118.285478, 69.060137) rotate(-18.220000) translate(-118.285478, -69.060137) " cx="118.285478" cy="69.0601369" rx="1" ry="1"></ellipse>
                        <ellipse id="Oval" fill="#006600" opacity="0.1" transform="translate(119.542420, 68.646580) rotate(-18.220000) translate(-119.542420, -68.646580) " cx="119.54242" cy="68.6465802" rx="1" ry="1"></ellipse>
                        <ellipse id="Oval" fill="#006600" opacity="0.1" transform="translate(120.764412, 68.244122) rotate(-18.220000) translate(-120.764412, -68.244122) " cx="120.764412" cy="68.2441223" rx="1" ry="1"></ellipse>
                        <ellipse id="Oval" fill="#006600" opacity="0.1" transform="translate(121.964346, 67.846850) rotate(-18.220000) translate(-121.964346, -67.846850) " cx="121.964346" cy="67.8468498" rx="1" ry="1"></ellipse>
                        <ellipse id="Oval" fill="#006600" opacity="0.1" transform="translate(123.326436, 67.402696) rotate(-18.220000) translate(-123.326436, -67.402696) " cx="123.326436" cy="67.4026958" rx="1" ry="1"></ellipse>
                        <ellipse id="Oval" fill="#006600" opacity="0.1" transform="translate(117.072352, 69.457197) rotate(-18.220000) translate(-117.072352, -69.457197) " cx="117.072352" cy="69.4571969" rx="1" ry="1"></ellipse>
                        <ellipse id="Oval" fill="#006600" opacity="0.1" transform="translate(91.207109, 77.144386) rotate(-18.220000) translate(-91.207109, -77.144386) " cx="91.2071091" cy="77.1443862" rx="1" ry="1"></ellipse>
                        <polygon id="Rectangle" fill="#006600" opacity="0.1" transform="translate(111.362598, 71.527664) rotate(-13.870000) translate(-111.362598, -71.527664) " points="110.755989 70.4704719 111.969171 70.4704928 111.969208 72.5848555 110.756025 72.5848346"></polygon>
                        <polygon id="Rectangle" fill="#006600" opacity="0.1" transform="translate(125.238396, 67.553220) rotate(-13.870000) translate(-125.238396, -67.553220) " points="124.631786 66.4960281 125.844969 66.496049 125.845005 68.6104117 124.631823 68.6103907"></polygon>
                        <polygon id="Path" fill="#006600" opacity="0.1" points="131.513274 64 130 64.5172414 130.756637 66 133 65.2758621"></polygon>
                        <path d="M137,63.3378149 L133.375,64 L132,63.4022298 L132.915441,63.0260469 C134.292885,62.9457311 135.67952,63.0515708 137,63.3378149 L137,63.3378149 Z" id="Path" fill="#006600" opacity="0.1"></path>
                        <path d="M70,72.9435748 L75.6961147,81 L85,77.1044776 C85,77.1044776 74.4715541,73.3105206 73.416975,72 L70,72.9435748 Z" id="Path" fill="#006600" opacity="0.1"></path>
                        <polygon id="Path" fill="#006600" opacity="0.1" points="111 73 95.8925692 77.1736029 95 79"></polygon>
                        <path d="M258.050853,31.0976984 L257.59223,31.0976984 C257.918191,30.9161832 258.127756,30.5934573 258.151611,30.2362612 L258.151611,30.2362612 C258.151611,29.5556599 257.272584,29 256.195515,29 L242.502843,29 C241.425774,29 240.546747,29.5556599 240.546747,30.2362612 L240.546747,30.2362612 C240.546747,30.9135744 241.425774,31.4692344 242.502843,31.4692344 L242.957991,31.4692344 C242.63292,31.6511068 242.424587,31.9739419 242.402085,32.3306717 C242.402085,32.912635 243.041377,33.3992485 243.896083,33.5307656 L239.952622,33.5307656 C238.879027,33.5307656 238,34.0864256 238,34.7670268 C238,35.447628 238.879027,36 239.952622,36 L253.645294,36 C254.718888,36 255.60139,35.4443401 255.60139,34.7670268 C255.60139,34.1883513 254.958623,33.69845 254.103917,33.5669328 L258.047378,33.5669328 C259.120973,33.5669328 260,33.0112729 260,32.3306717 C260,31.6500705 259.124447,31.0976984 258.050853,31.0976984 Z" id="Path" fill="#006600" opacity="0.1"></path>
                        <path d="M112.047687,43.0967136 L111.589136,43.0967136 C111.915489,42.9157111 112.125181,42.5928899 112.148429,42.2356808 L112.148429,42.2356808 C112.148429,41.5586854 111.269541,41 110.192642,41 L96.5021317,41 C95.4252329,41 94.5463445,41.5586854 94.5463445,42.2356808 L94.5463445,42.2356808 C94.5463445,42.9159624 95.4252329,43.4713615 96.5021317,43.4713615 L96.9572083,43.4713615 C96.6308556,43.652364 96.4211638,43.9751852 96.3979157,44.3323944 C96.3979157,44.9107981 97.0405811,45.3971831 97.8951524,45.5286385 L93.9523133,45.5286385 C92.8788884,45.5286385 92,46.0840376 92,46.7643192 C92,47.4446009 92.8788884,48 93.9523133,48 L107.646297,48 C108.719722,48 109.59861,47.4446009 109.59861,46.7643192 C109.59861,46.1859155 108.959419,45.6962441 108.104848,45.5647887 L112.047687,45.5647887 C113.121112,45.5647887 114,45.0093897 114,44.3323944 C114,43.6553991 113.121112,43.0967136 112.047687,43.0967136 Z" id="Path" fill="#006600" opacity="0.1"></path>
                        <path d="M279.044213,96.0967136 L278.589136,96.0967136 C278.915489,95.9157111 279.125181,95.5928899 279.148429,95.2356808 L279.148429,95.2356808 C279.148429,94.5553991 278.266067,94 277.192642,94 L263.498658,94 C262.425233,94 261.546345,94.5553991 261.546345,95.2356808 L261.546345,95.2356808 C261.546345,95.9159624 262.425233,96.4713615 263.498658,96.4713615 L263.957208,96.4713615 C263.62996,96.651498 263.419943,96.974821 263.397916,97.3323944 C263.397916,97.9107981 264.040581,98.3971831 264.895152,98.5286385 L260.952313,98.5286385 C259.878888,98.5286385 259,99.0840376 259,99.7643192 C259,100.444601 259.878888,101 260.952313,101 L274.646297,101 C275.719722,101 276.59861,100.444601 276.59861,99.7643192 C276.59861,99.1859155 275.959419,98.6962441 275.104848,98.5647887 L279.044213,98.5647887 C280.121112,98.5647887 281,98.0093897 281,97.3323944 C281,96.6553991 280.121112,96.0967136 279.044213,96.0967136 Z" id="Path" fill="#006600" opacity="0.1"></path>
                        <ellipse id="Oval" fill="#006600" opacity="0.1" cx="173" cy="255" rx="104" ry="16"></ellipse>
                        <ellipse id="Oval" fill="#006600" opacity="0.1" cx="303.5" cy="271" rx="25.5" ry="4"></ellipse>
                        <ellipse id="Oval" fill="#006600" opacity="0.1" cx="35.5" cy="263" rx="25.5" ry="4"></ellipse>
                        <ellipse id="Oval" fill="#006600" opacity="0.1" cx="66" cy="279" rx="14" ry="2"></ellipse>
                        <path d="M47.9945598,238.466874 L47.872734,239.445911 L47.7035316,240.828675 L47.6324665,241.40735 L47.463264,242.793478 L47.3888149,243.368789 L47.2196124,244.754917 L45.28732,260.496894 C45.1147335,261.903209 42.8068115,263 40.0183545,263 L29.9812629,263 C27.1928059,263 24.888268,261.903209 24.7156814,260.496894 L22.780005,244.754917 L22.6108025,243.368789 L22.5397374,242.793478 L22.3671509,241.40735 L22.2960859,240.828675 L22.1268834,239.445911 L22.0050576,238.466874 C21.9103042,237.669513 23.1590186,237 24.7359857,237 L45.2670157,237 C46.850751,237 48.0926973,237.669513 47.9945598,238.466874 Z" id="Path" fill="#65617D"></path>
                        <polygon id="Path" fill="#9D9CB5" points="48 240 47.8291272 241 22.1708728 241 22 240"></polygon>
                        <polygon id="Path" fill="#9D9CB5" points="48 242 47.8258773 243 22.1776051 243 22 242"></polygon>
                        <polygon id="Path" fill="#9D9CB5" points="48 244 47.8292816 245 23.1707184 245 23 244"></polygon>
                        <path d="M233.137547,139.426807 L232.337925,137.138918 L232.636496,136.82382 L231.054411,129.042258 C231.116331,128.768276 231.138292,128.486807 231.119616,128.206562 C231.16009,127.389053 230.91776,126.582504 230.433245,125.922098 L230.117514,124.37743 C230.117514,124.254131 230.117514,124.134257 230.141537,124.010957 C230.790158,114.924476 226.895002,103.93713 226.895002,103.93713 L226.895002,93.8265788 L223.888697,74.043875 L223.888697,74.043875 C223.947039,64.1490981 220.055315,60.6864399 220.055315,60.6864399 C220.055315,60.6864399 219.736152,60.6110903 219.217942,60.4535411 C218.188386,58.3266264 216.434708,54.9735677 213.565677,49.5860689 C212.500277,47.5360968 211.109567,45.6716509 209.447451,44.0649957 C207.233287,41.8138162 204.410978,40.2537662 201.324249,39.5748425 C201.589094,39.2774362 201.877127,39.0014328 202.185645,38.7494216 C202.872016,38.1979992 203.633888,37.7561764 204.275645,37.1636543 C205.125175,36.3398945 205.775392,35.3337246 206.176893,34.2215936 C206.835607,32.6099086 207.015507,30.8430472 206.695103,29.1320683 C206.353621,27.4018915 205.319997,25.8854823 203.832936,24.9330387 C203.404376,24.7136401 202.999573,24.4508158 202.624923,24.1487175 C202.134167,23.6794948 201.904233,23.018473 201.653708,22.398551 C200.790539,20.2747811 199.490455,18.355396 197.837485,16.7644534 C197.151114,16.0794567 196.306877,15.4458348 195.325367,15.3670602 C194.343856,15.2882856 193.376073,15.812308 192.449472,16.2096061 C189.213129,17.5599638 185.547672,17.4349 182.411296,15.8671078 C180.904711,15.0964865 179.453037,13.973092 177.750836,14.0004919 C176.585109,14.0525887 175.499998,14.6090641 174.77885,15.5246094 C174.809737,15.4595348 174.837191,15.3944601 174.87151,15.3293854 C174.251365,16.0237599 173.842956,16.8805328 173.694384,17.7987984 L173.694384,17.8912729 C173.694384,20.343561 174.336141,23.1280725 176.364367,24.8097393 C176.216797,24.9946884 176.069227,25.1796375 175.931953,25.3714366 C173.488372,28.7109165 172.664245,32.9639369 173.684088,36.9718552 C173.594747,37.0118789 173.508687,37.0588309 173.426699,37.1122795 L171.491133,38.4206232 L167.084631,42.2223547 L165.114746,43.5512482 C167.173859,42.0374056 170.125254,39.5714176 169.418292,39.0062953 C168.443645,38.2288241 158.594221,41.0612853 156.33606,43.6882476 C155.364845,44.821917 154.108786,46.9419817 152.996865,48.9901218 L152.917932,48.8394225 C152.825272,48.9627219 152.718885,49.1099962 152.609066,49.2675454 L152.564451,49.1853458 C152.104583,49.8018428 151.380461,50.8567377 150.577407,52.0520569 C150.2857,52.4836048 149.983696,52.9357026 149.685125,53.3912254 C146.565569,56.8881334 140.570118,63.9333241 139.701858,67.3172077 C139.701858,67.3172077 133.802499,76.8626363 135.219855,81.5788384 C136.637212,86.2950405 142.358114,87.216361 146.486636,85.777868 C149.434599,84.750373 156.744451,81.2329151 160.680789,79.3046494 L160.289557,84.8599724 C160.289557,84.8599724 157.070477,107.684061 154.554927,116.945216 C154.119082,118.544684 153.703827,119.743428 153.329755,120.3428 C153.280238,120.421073 153.235541,120.502281 153.195913,120.585974 C150.649476,125.425475 146.781775,152.609568 146.781775,152.609568 C146.781775,152.609568 143.34992,156.233201 149.966537,156.695573 C154.524041,157.010672 157.255797,160.884328 158.511856,163.257841 L158.511856,163.309216 C158.378014,166.943123 158.319672,170.042733 158.402037,171.991549 C158.645699,177.96472 157.959328,185.509958 157.513187,189.585688 C157.286959,191.626928 157.351664,193.689861 157.70537,195.712984 C158.673154,201.292282 160.766585,212.683776 162.472217,217.543828 C164.77156,224.099246 163.711117,231.34651 163.711117,231.34651 C163.711117,231.34651 166.01046,238.419101 168.134778,241.008388 C168.291856,241.184715 168.478906,241.331968 168.687307,241.443361 C168.659852,241.652285 168.632397,241.864634 168.594647,242.080408 C168.251461,244.097723 167.479294,246.426712 165.783957,248.183729 C163.271839,250.790141 159.788507,254.348699 159.380116,256.937986 C159.187932,258.18468 159.695846,259.205325 161.360296,259.801272 C166.508079,261.640488 173.159014,259.801272 173.159014,259.801272 C173.159014,259.801272 177.641017,258.19153 177.641017,256.581788 C177.641017,254.972046 179.470196,254.972046 179.470196,254.972046 L182.418159,252.917056 C182.494728,251.853256 182.494728,250.785345 182.418159,249.721546 C182.287749,247.666556 181.838176,245.125218 180.520343,243.498351 C180.132459,243.018031 179.814715,242.48529 179.576583,241.916009 C179.490514,241.70327 179.416048,241.486036 179.353513,241.265262 C180.582117,241.059763 181.443513,240.922764 181.584219,241.011813 C182.116156,241.354312 183.708537,231.867108 179.638357,226.863207 C175.568177,221.859307 177.514038,217.372578 177.514038,217.372578 C177.514038,217.372578 176.982101,199.083167 174.329277,197.53165 C174.329277,197.53165 176.450163,192.010577 176.275139,189.25004 C176.100114,186.489503 175.214695,180.96843 176.275139,179.759411 C176.77619,179.187439 178.838734,175.306933 180.860097,171.395602 C180.980212,171.166128 181.100327,170.936654 181.203283,170.710605 C182.449046,170.79623 183.821788,170.847604 185.252872,170.820205 C185.270031,171.046254 185.290622,171.272302 185.311213,171.505201 C185.630376,174.950735 186.402543,178.728491 188.118471,181.492453 L188.118471,198.918768 C188.118471,198.918768 189.357371,203.922669 190.417814,205.994784 C191.478257,208.066899 187.116369,222.383329 187.116369,222.383329 C187.116369,222.383329 184.693479,239.895269 187.116369,242.094108 C187.63488,242.501302 188.241097,242.782699 188.887206,242.916104 C188.924957,243.152428 188.959275,243.392177 188.993594,243.635351 C189.336779,245.971189 189.566714,248.522802 189.295597,249.99212 C188.979122,251.881812 188.988407,253.81157 189.323052,255.698142 C189.37453,255.985841 189.41228,256.14339 189.41228,256.14339 C189.41228,256.14339 188.293495,261.722688 196.022033,260.921242 C203.750571,260.119796 204.574216,257.698332 204.574216,257.698332 C204.574216,257.698332 204.574216,257.619558 204.557057,257.482558 C204.51492,256.932005 204.44159,256.384273 204.337418,255.841991 C203.866422,253.413281 202.892756,251.109392 201.478683,249.077649 C200.862056,248.236607 200.504295,247.2345 200.449126,246.193813 C200.449126,245.508817 200.404512,244.76217 200.366762,244.015524 C200.366762,243.78605 200.342739,243.556576 200.329011,243.330527 C200.884972,243.292852 201.217862,243.262028 201.217862,243.262028 C201.217862,243.262028 203.69223,238.949973 203.517205,230.664939 C203.34218,222.379904 205.463067,214.793566 205.463067,214.793566 C205.463067,214.793566 205.995004,202.371151 205.463067,200.64496 C204.931129,198.918768 204.34085,189.154141 205.699865,187.825247 C206.640193,186.903926 207.861934,175.587781 208.524282,168.73439 C208.548305,168.501491 208.568896,168.275442 208.589487,168.049393 C210.322574,167.980893 211.420767,167.970618 211.420767,167.970618 C211.420767,167.970618 211.612951,162.898218 211.781112,155.983177 L212.532688,155.698903 C212.210094,156.216076 212.556711,157.620319 215.061966,156.914772 C218.291341,156.010577 222.584592,155.233105 222.584592,155.233105 C222.584592,155.233105 224.883935,153.592538 224.986891,152.428044 C225.078797,151.832779 225.211812,151.244564 225.384986,150.667603 C230.419517,148.663987 234.558335,146.992595 234.558335,146.992595 C234.558335,146.992595 236.205625,144.314258 233.137547,139.426807 Z M215.501243,110.495973 L216.112113,115.366299 L214.396186,115.893747 L210.782442,116.140345 C209.776909,107.026465 211.468813,91.6893892 211.468813,91.6893892 L211.774248,91.4907402 C213.301424,97.6454353 215.501243,110.495973 215.501243,110.495973 L215.501243,110.495973 Z M197.459981,47.0002065 C197.38448,46.8255323 197.312411,46.6577081 197.23691,46.4522091 L197.580095,46.9796566 C197.539639,46.983798 197.499509,46.9906636 197.459981,47.0002065 Z M210.899125,116.979466 L210.837352,116.496544 L212.021342,116.24652 L213.891703,116.054721 L210.899125,116.979466 Z M173.694384,49.777868 C173.189901,49.8977424 172.664827,50.0278917 172.167208,50.175166 L172.256436,50.1237913 L173.72527,49.2504205 C173.704624,49.4197463 173.694309,49.5901681 173.694384,49.760743 L173.694384,49.777868 Z M157.046454,62.4708563 C155.865896,63.0462535 155.275617,62.9880287 155.275617,62.9880287 L157.986783,57.7478042 C158.300771,57.2732166 158.583909,56.7790028 158.834451,56.2682114 C159.611019,55.9643578 160.456532,55.8802128 161.277932,56.0250376 C161.277932,56.0250376 161.933416,55.8777633 162.945813,55.6311645 C162.712662,55.9256397 162.495018,56.2320188 162.293761,56.54906 C162.293761,56.54906 158.223581,61.8954591 157.046454,62.4708563 Z M212.958238,155.507104 L212.958238,155.507104 L213.809339,155.181731 C213.445562,155.445454 213.140127,155.585879 212.958238,155.507104 Z" id="Shape" fill="url(#linearGradient-1)"></path>
                        <path d="M185,42 C183.949466,42.6474035 183.91643,45.4135819 184.078305,47.6327563 C184.19393,49.2564581 184.408662,50.5858855 184.408662,50.5858855 L177.573582,68 C177.573582,68 175.039747,55.5920107 175.000104,50.0527297 C174.997064,49.6156686 175.060632,49.1809019 175.188407,48.7648469 C176.394209,44.7731025 183.093842,42.5435419 185,42 Z" id="Path" fill="#67647E"></path>
                        <path d="M186,41.9314946 C186,41.9314946 185.633987,41.9760433 185,42.0685677 C185.303951,41.9768062 185.649284,41.9294704 186,41.9314946 L186,41.9314946 Z" id="Path" fill="#67647E"></path>
                        <path d="M182.93959,252.49354 L180.136609,254.506995 C180.136609,254.506995 178.396943,254.506995 178.396943,256.074135 C178.396943,257.641274 174.13695,259.205058 174.13695,259.205058 C174.13695,259.205058 167.797435,260.993678 162.918296,259.205058 C161.336782,258.624512 160.852233,257.631207 161.037304,256.419778 C161.42427,253.892891 164.738719,250.439815 167.12445,247.906217 C168.736248,246.198136 169.479896,243.932998 169.796199,241.973235 C170.029471,240.570878 170.092737,239.145628 169.984635,237.7282 L180.247651,237 C179.659907,238.544726 179.659907,240.250653 180.247651,241.79538 C180.471924,242.347886 180.774481,242.865466 181.146086,243.332317 C182.397837,244.916236 182.828547,247.402853 182.949685,249.372684 C183.019987,250.411909 183.016614,251.454788 182.93959,252.49354 Z" id="Path" fill="#67647E"></path>
                        <path d="M204,256.788686 C204,256.788686 203.201884,259.137272 195.720831,259.92237 C188.239777,260.707469 189.311925,255.278881 189.311925,255.278881 C189.311925,255.278881 189.274245,255.124545 189.22629,254.84607 C188.901148,253.01073 188.891886,251.135032 189.198887,249.296697 C189.459216,247.867415 189.233141,245.38798 188.907729,243.116562 C188.524085,240.412333 188,238 188,238 L199.591522,238.838781 C199.591522,238.838781 199.79362,241.15046 199.910083,243.485625 C199.947763,244.213687 199.978591,244.941748 199.988867,245.606063 C200.042763,246.61421 200.389805,247.58625 200.989082,248.40759 C202.361431,250.390959 203.30345,252.629178 203.756797,254.98363 C203.856826,255.511853 203.92772,256.044972 203.969171,256.580668 C203.993149,256.724939 204,256.788686 204,256.788686 Z" id="Path" fill="#67647E"></path>
                        <path d="M182.941805,252.220474 L180.138541,254.307173 C180.138541,254.307173 178.3987,254.307173 178.3987,255.931322 C178.3987,257.55547 174.138277,259.17614 174.138277,259.17614 C174.138277,259.17614 167.798121,261.029825 162.918489,259.17614 C161.336816,258.574475 160.852218,257.545036 161.037307,256.289538 C161.188744,256.289538 161.33345,256.310405 161.4546,256.313883 C163.453566,256.379962 165.398688,256.936415 167.387559,257.120741 C168.520789,257.207074 169.6579,257.225653 170.793205,257.176386 C171.356485,257.172459 171.918781,257.127133 172.475837,257.04075 C173.821942,256.793824 175.070455,256.073913 176.271854,255.367913 C176.565648,255.22544 176.82449,255.016196 177.029038,254.755814 C177.190774,254.466721 177.304523,254.151677 177.365564,253.823755 C177.789587,252.251774 178.97416,250.992798 180.333726,250.165074 C181.161213,249.678511 182.038122,249.287789 182.948536,249 C183.019332,250.072327 183.017083,251.148472 182.941805,252.220474 Z" id="Path" fill="#67647E"></path>
                        <path d="M205,256.884597 C205,256.884597 204.189659,259.163038 196.594018,259.924689 C188.998377,260.686339 190.086946,255.419884 190.086946,255.419884 C190.086946,255.419884 190.04869,255.270158 190,255 C190.347786,255.169256 190.643404,255.325492 190.77904,255.3971 C191.474612,255.777925 192.097148,256.301967 192.820543,256.656753 C194.559471,257.512796 196.663575,257.258912 198.607698,256.982244 C199.52933,256.852048 200.450962,256.721851 201.369117,256.56236 C202.069042,256.472475 202.750342,256.283711 203.389752,256.002514 C203.864782,255.743383 204.320288,255.454104 204.753072,255.136706 C204.854633,255.649153 204.926613,256.16635 204.968699,256.686047 C204.993044,256.822753 205,256.884597 205,256.884597 Z" id="Path" fill="#67647E"></path>
                        <path d="M182.941805,252.220474 L180.138541,254.307173 C180.138541,254.307173 178.3987,254.307173 178.3987,255.931322 C178.3987,257.55547 174.138277,259.17614 174.138277,259.17614 C174.138277,259.17614 167.798121,261.029825 162.918489,259.17614 C161.336816,258.574475 160.852218,257.545036 161.037307,256.289538 C161.188744,256.289538 161.33345,256.310405 161.4546,256.313883 C163.453566,256.379962 165.398688,256.936415 167.387559,257.120741 C168.520789,257.207074 169.6579,257.225653 170.793205,257.176386 C171.356485,257.172459 171.918781,257.127133 172.475837,257.04075 C173.821942,256.793824 175.070455,256.073913 176.271854,255.367913 C176.565648,255.22544 176.82449,255.016196 177.029038,254.755814 C177.190774,254.466721 177.304523,254.151677 177.365564,253.823755 C177.789587,252.251774 178.97416,250.992798 180.333726,250.165074 C181.161213,249.678511 182.038122,249.287789 182.948536,249 C183.019332,250.072327 183.017083,251.148472 182.941805,252.220474 Z" id="Path" fill="#000000" opacity="0.1"></path>
                        <path d="M205,256.884597 C205,256.884597 204.189659,259.163038 196.594018,259.924689 C188.998377,260.686339 190.086946,255.419884 190.086946,255.419884 C190.086946,255.419884 190.04869,255.270158 190,255 C190.347786,255.169256 190.643404,255.325492 190.77904,255.3971 C191.474612,255.777925 192.097148,256.301967 192.820543,256.656753 C194.559471,257.512796 196.663575,257.258912 198.607698,256.982244 C199.52933,256.852048 200.450962,256.721851 201.369117,256.56236 C202.069042,256.472475 202.750342,256.283711 203.389752,256.002514 C203.864782,255.743383 204.320288,255.454104 204.753072,255.136706 C204.854633,255.649153 204.926613,256.16635 204.968699,256.686047 C204.993044,256.822753 205,256.884597 205,256.884597 Z" id="Path" fill="#000000" opacity="0.1"></path>
                        <path d="M180,236 C179.381408,237.644908 179.381408,239.461472 180,241.10638 C176.901159,241.638816 171.12492,242.714408 169,241.29577 C169.245515,239.802465 169.312102,238.284781 169.198326,236.775427 L180,236 Z" id="Path" fill="#000000" opacity="0.1"></path>
                        <path d="M200,243.814876 C197.867127,243.971362 192.127696,244.280778 188.914582,243.423662 C188.528041,240.557123 188,238 188,238 L199.679034,238.889125 C199.679034,238.889125 199.875755,241.339553 200,243.814876 Z" id="Path" fill="#000000" opacity="0.1"></path>
                        <path d="M209,163.626712 C209,163.626712 208.82185,165.768004 208.537496,168.765812 C207.896843,175.569981 206.714888,186.804054 205.796733,187.718814 C204.481166,189.037849 205.053301,198.733619 205.567194,200.446652 C206.081087,202.159685 205.567194,214.493526 205.567194,214.493526 C204.274021,219.64579 203.640857,224.941517 203.682919,230.253433 C203.854217,238.475994 201.456049,242.758577 201.456049,242.758577 C201.456049,242.758577 190.1504,243.786397 187.810473,241.600567 C185.470546,239.414736 187.810473,222.030873 187.810473,222.030873 C187.810473,222.030873 192.034674,207.812696 191.006888,205.757056 C189.979102,203.701415 188.780018,198.733619 188.780018,198.733619 L188.780018,181.431981 C187.11843,178.691128 186.38185,174.922454 186.063236,171.516944 C185.809677,168.603773 185.801654,165.674433 186.039254,162.759917 C186.039254,162.759917 183.911737,167.111022 181.743108,171.414162 C179.783462,175.302748 177.789556,179.150221 177.289367,179.718948 C176.261581,180.918071 177.118069,186.399778 177.289367,189.140631 C177.460665,191.881485 175.405092,197.363192 175.405092,197.363192 C177.974558,198.904922 178.488451,217.063076 178.488451,217.063076 C178.488451,217.063076 176.604176,221.516963 180.544024,226.48476 C184.483871,231.452557 182.942192,240.87424 182.428299,240.531634 C181.914405,240.189027 171.465245,243.101184 169.409672,240.531634 C167.3541,237.962084 165.127229,230.938647 165.127229,230.938647 C165.127229,230.938647 166.155016,223.743906 163.928145,217.234379 C162.276835,212.410477 160.252096,201.101031 159.313385,195.561081 C158.971101,193.551118 158.908842,191.503432 159.128383,189.476386 C159.560054,185.430201 160.224689,177.940819 159.988298,172.003445 C159.909501,170.067717 159.964316,166.991109 160.094503,163.383461 C160.536451,151.01536 161.872573,132.432373 161.872573,132.432373 L171.184317,126.159245 L177.316775,122 L178.817343,122.229546 L206.779982,126.536112 L207.866009,140.329457 L209,163.626712 Z" id="Path" fill="#444053"></path>
                        <path d="M171,126 L170.512852,128.687269 C170.512852,128.687269 166.424899,148.346047 165.573242,158.431854 C164.721586,168.517662 161.144627,165.611582 161.144627,165.611582 C160.832654,164.764622 160.449742,163.945712 160,163.163637 C160.439455,150.821343 161.76804,132.277133 161.76804,132.277133 L171,126 Z" id="Path" fill="#000000" opacity="0.1"></path>
                        <path d="M200,51.2550194 C200,51.2550194 181.22132,66.6870804 184.688669,63.5889642 C186.586657,61.8884427 185.295623,54.6388508 183.739675,48.4426184 C182.458701,43.3307266 181,38.9314016 181,38.9314016 C181,38.9314016 197.391105,23.189529 196.200671,36.0604806 C195.781504,40.5974997 196.130251,43.8229829 196.757324,46.1018195 C197.907519,50.2705069 200,51.2550194 200,51.2550194 Z" id="Path" fill="#EFB7B9"></path>
                        <path d="M198.741726,47 L186.344221,56.2835194 L182.73323,52.4362952 C182.73323,52.4362952 179.649569,51.1550022 179.415588,52.6035658 C179.181607,54.0521294 178.312035,62.9743443 180.114039,63.8106974 C181.916042,64.6470505 184.248869,65.2057343 186.284853,64.9280651 C188.320838,64.6503959 190.590803,62.4725324 192.106442,61.6361793 C193.622081,60.7998262 199.206196,56.4507901 199.206196,56.4507901 L202,52.7173098 L198.741726,47 Z" id="Path" fill="#000000" opacity="0.1"></path>
                        <path d="M198.741726,48 L186.344221,57.2835194 L182.73323,53.4362952 C182.73323,53.4362952 179.649569,52.1550022 179.415588,53.6035658 C179.181607,55.0521294 178.312035,63.9743443 180.114039,64.8106974 C181.916042,65.6470505 184.248869,66.2057343 186.284853,65.9280651 C188.320838,65.6503959 190.590803,63.4725324 192.106442,62.6361793 C193.622081,61.7998262 199.206196,57.4507901 199.206196,57.4507901 L202,53.7173098 L198.741726,48 Z" id="Path" fill="#A36468"></path>
                        <path d="M209,163.157412 C209,163.157412 208.820633,165.285774 208.534337,168.265481 C204.740044,168.408506 197.379116,168.851206 192.211979,170.186114 C190.150031,170.689754 188.037235,170.962766 185.913452,171 C185.658161,168.10442 185.650084,165.192768 185.889307,162.295851 C185.889307,162.295851 183.747256,166.620682 181.563813,170.897839 C179.696174,170.773519 177.838057,170.535828 176,170.186114 L178.300721,140.671694 C178.300721,140.671694 178.224835,130.765446 178.604265,122 L206.757918,126.280562 L207.851364,139.990618 L209,163.157412 Z" id="Path" fill="#000000" opacity="0.1"></path>
                        <path d="M187,56.0854434 C187,56.0854434 195.601469,46.6649882 197.640993,48.1610319 C199.680517,49.6570755 201,53.3030155 201,53.3030155 L194.00532,61 L187,56.0854434 Z" id="Path" fill="#000000" opacity="0.1"></path>
                        <path d="M188,55.0854434 C188,55.0854434 196.601469,45.6649882 198.640993,47.1610319 C200.680517,48.6570755 202,52.3030155 202,52.3030155 L195.00532,60 L188,55.0854434 Z" id="Path" fill="#A36468"></path>
                        <path d="M181,61 L186,55.0059906 C186,55.0059906 185.207317,49.3398587 183.374462,50.0639214 C181.541607,50.7879841 181,53.6876501 181,53.6876501 L181,61 Z" id="Path" fill="#000000" opacity="0.1"></path>
                        <path d="M181,61 L186,55.0059906 C186,55.0059906 185.210904,49.3398587 183.374462,50.0639214 C181.53802,50.7879841 181,53.6876501 181,53.6876501 L181,61 Z" id="Path" fill="#A36468"></path>
                        <path d="M203.213675,50 C203.213675,50 193.398291,60.6262477 187.538462,61.3392346 C187.005128,61.4043632 186.478632,61.4934866 185.952137,61.5997491 C184.423932,61.9013974 181.087179,61.5997491 181.617094,52.8142417 L180.875214,51.2580106 L176.317949,54.058541 L174.779487,66.6249359 L172.044444,98.846461 L168,134.725472 C168,134.725472 180.420513,133.525734 183.897436,136.669047 C187.374359,139.81236 188.34188,119.529938 188.34188,119.529938 L197.85641,78.396076 L208,51.943575 L203.213675,50 Z" id="Path" fill="#000000" opacity="0.1"></path>
                        <path d="M208,52.9335342 L197.85641,79.389356 L188.34188,120.528382 C188.34188,120.528382 187.37094,140.809921 183.897436,137.669642 C182.762393,136.641167 180.670085,136.078933 178.369231,135.787532 C175.539927,135.481166 172.689745,135.41694 169.849573,135.59555 C168.71453,135.657258 168,135.725823 168,135.725823 L172.044444,99.8423083 L174.779487,67.6167381 L176.317949,55.0487658 L180.875214,52.2478838 L181.617094,53.8043103 C181.617094,54.0340031 181.593162,54.2602678 181.582906,54.4899607 C181.261538,62.6080618 184.464957,62.8960349 185.952137,62.6012052 C186.478632,62.4949294 187.005128,62.4057949 187.538462,62.3406581 C191.688889,61.8298485 197.822222,56.3549298 201.046154,53.2077944 C202.376068,51.9050586 203.213675,51 203.213675,51 L208,52.9335342 Z" id="Path" fill="#000000" opacity="0.1"></path>
                        <path d="M208,51.9335342 L197.85641,78.389356 L188.34188,119.528382 C188.34188,119.528382 187.37094,139.809921 183.897436,136.669642 C182.762393,135.641167 180.670085,135.078933 178.369231,134.787532 C175.539927,134.481166 172.689745,134.41694 169.849573,134.59555 C168.71453,134.657258 168,134.725823 168,134.725823 L172.044444,98.8423083 L174.779487,66.6167381 L176.317949,54.0487658 L180.875214,51.2478838 L181.617094,52.8043103 C181.617094,53.0340031 181.593162,53.2602678 181.582906,53.4899607 C181.261538,61.6080618 184.464957,61.8960349 185.952137,61.6012052 C186.478632,61.4949294 187.005128,61.4057949 187.538462,61.3406581 C191.688889,60.8298485 197.822222,55.3549298 201.046154,52.2077944 C202.376068,50.9050586 203.213675,50 203.213675,50 L208,51.9335342 Z" id="Path" fill="#E1E7EF"></path>
                        <path d="M181,53.5372895 C181,53.7656674 180.975395,53.9906366 180.964851,54.2190144 L180.884007,54.2735524 C179.646749,55.0643532 177.660808,68.4193429 177.660808,68.4193429 L175.084359,102.447639 L170.339192,127.841889 C170.339192,127.841889 169.717047,130.735811 168.901582,134.870472 C167.734622,134.931828 167,135 167,135 L171.158172,99.3219302 L173.970123,67.2808624 L175.551845,54.784846 L180.237258,52 L181,53.5372895 Z" id="Path" fill="#000000" opacity="0.1"></path>
                        <path d="M184,50.6254768 C184,50.6254768 181.234153,52.8460346 180.017181,53.6410492 C178.800208,54.4360637 176.846829,67.8622146 176.846829,67.8622146 L174.312621,102.071828 L169.645255,127.60139 C169.645255,127.60139 165.496484,147.305414 164.632157,157.414435 C163.76783,167.523457 160.137656,164.610688 160.137656,164.610688 C160.137656,164.610688 157.427126,156.729078 150.975788,156.273315 C144.524451,155.817553 147.864211,152.216 147.864211,152.216 C147.864211,152.216 151.643049,125.2232 154.128854,120.415418 C154.167642,120.332865 154.211518,120.252755 154.260232,120.175543 C154.626706,119.579282 155.031211,118.390187 155.45646,116.800158 C157.914607,107.602662 161.0573,84.9310399 161.0573,84.9310399 L163.017594,56.8313877 C168.030692,48.7201833 183.609324,49.0011798 183.609324,49.0011798 L184,50.6254768 Z" id="Path" fill="#67647E"></path>
                        <path d="M208,51.9435892 L197.73001,78.3962839 L188.096919,119.530447 C188.096919,119.530447 187.11388,139.809589 183.597092,136.669681 C182.447906,135.641327 180.329526,135.07916 178,134.787793 C178.041537,127.815553 178.256144,115.303912 179.270336,110.045594 C180.148004,105.240672 180.514609,100.357871 180.36414,95.477245 L192.942887,68.338981 C192.942887,68.338981 202.402908,56.7905647 202.461751,55.1383425 C202.48252,54.5281858 201.811007,53.3969963 200.959502,52.2075334 C202.305988,50.9049516 203.154033,50 203.154033,50 L208,51.9435892 Z" id="Path" fill="#000000" opacity="0.1"></path>
                        <path d="M176,169.163811 L178.293741,139.515964 C178.293741,139.515964 178.121796,117.393819 179.555814,109.92627 C180.427773,105.131262 180.791994,100.258536 180.642503,95.3879806 L193.139435,68.3057138 C193.139435,68.3057138 202.537925,56.7811265 202.596386,55.1323135 C202.654848,53.4835005 197.671894,48 197.671894,48 C197.671894,48 208.555985,49.2656863 209.990003,54.1095021 C211.424021,58.953318 219.27501,60.8381644 219.27501,60.8381644 C219.27501,60.8381644 223.05779,64.2589383 222.999329,74.066297 C222.940868,83.8736557 210.963209,91.5669761 210.963209,91.5669761 C210.963209,91.5669761 208.958336,110.039155 210.677781,118.365319 C212.397227,126.691482 210.904748,167.166079 210.904748,167.166079 C210.904748,167.166079 199.384462,167.282385 192.16279,169.163811 C184.941118,171.045236 176,169.163811 176,169.163811 Z" id="Path" fill="#67647E"></path>
                        <path d="M193,122.412145 L201.859296,155.461801 C201.859296,155.461801 203.067696,158.410963 209.282323,156.142115 C215.49695,153.873268 233.567704,146.505467 233.567704,146.505467 C233.567704,146.505467 235.176602,143.896463 232.186676,139.079839 L223.151299,113 L193,122.412145 Z" id="Path" fill="#B07473"></path>
                        <polygon id="Path" fill="#E1E7EF" points="205 137.544244 219.206923 121.72651 228.278813 118 232 137.020799 214.756561 156"></polygon>
                        <path d="M219.38719,143 C219.38719,143 215.042031,145.423102 213.894121,145.503204 C212.74621,145.583307 208.707396,152.819237 210.415177,152.762497 C212.122958,152.705758 216.094869,150.759934 215.696974,151.761216 C215.299079,152.762497 212.707477,155.766343 211.957462,155.479309 C211.207446,155.192275 210.855327,157.685466 214.070181,156.814351 C217.285034,155.943236 221.552727,155.188937 221.552727,155.188937 C221.552727,155.188937 223.841506,153.603574 223.929535,152.475463 C224.017565,151.347353 226,145.423102 226,145.423102 L219.38719,143 Z" id="Path" fill="#EFB7B9"></path>
                        <path d="M152,55.2007867 C152,55.2007867 155.604673,47.3463726 157.758026,44.7509417 C159.911379,42.1555109 169.304455,39.3625275 170.246125,40.1288949 C171.187795,40.8952623 165.520898,45.1971378 164.50835,45.7489224 C163.495801,46.3007069 171.049413,51.4268531 171.204671,51.5392537 C171.359928,51.6516542 177.111204,51.024936 174.157937,52.9834304 C171.204671,54.9419249 162.473127,56.93448 162.473127,56.93448 C161.284557,56.727217 160.063855,57.022869 159.097965,57.7519386 C157.407009,58.9883446 152,55.2007867 152,55.2007867 Z" id="Path" fill="#EFB7B9"></path>
                        <path d="M227.767155,143.343023 C227.291893,144.960227 226.654172,146.521125 225.864498,148 C225.024102,147.211628 217,144.466279 217,144.466279 L217.89082,143.039535 L219.343024,140.716279 C219.343024,140.716279 226.496476,139.104651 227.71337,140.716279 C228.123483,141.256977 228.049528,142.254651 227.767155,143.343023 Z" id="Path" fill="#000000" opacity="0.1"></path>
                        <path d="M227.767155,142.343023 C227.291893,143.960227 226.654172,145.521125 225.864498,147 C225.024102,146.211628 217,143.466279 217,143.466279 L217.89082,142.039535 L219.343024,139.716279 C219.343024,139.716279 226.496476,138.104651 227.71337,139.716279 C228.123483,140.256977 228.049528,141.254651 227.767155,142.343023 Z" id="Path" fill="#A36468"></path>
                        <path d="M159.61808,56.9634551 C159.36451,57.5336173 159.065823,58.0824414 158.724891,58.6046512 C157.451269,60.6212625 155.522641,63 155.522641,63 C155.522641,63 148,59.5249169 148,59.372093 C148,59.2192691 150.282596,55.6079734 152.138445,52.7607973 C152.889386,51.6112957 153.567548,50.5946844 153.997602,50 C153.997602,50 156.806187,55.9003322 159.578383,55.9401993 C160.3194,55.9501661 159.919118,56.2425249 159.61808,56.9634551 Z" id="Path" fill="#000000" opacity="0.1"></path>
                        <path d="M159.61808,56.9634551 C159.36451,57.5336173 159.065823,58.0824414 158.724891,58.6046512 C157.451269,60.6212625 155.522641,63 155.522641,63 C155.522641,63 148,59.5249169 148,59.372093 C148,59.2192691 150.282596,55.6079734 152.138445,52.7607973 C152.889386,51.6112957 153.567548,50.5946844 153.997602,50 C153.997602,50 156.806187,55.9003322 159.578383,55.9401993 C160.3194,55.9501661 159.919118,56.2425249 159.61808,56.9634551 Z" id="Path" fill="#A36468"></path>
                        <polygon id="Path" fill="#B07473" points="203.99756 120 203 116.990542 217 116 211.769644 116.560619 205.107857 118.00172 205.620303 120"></polygon>
                        <path d="M227.76967,142 C226.266644,141.333217 222.256357,139.946435 218,141.727652 L219.436521,139.642783 C219.436521,139.642783 226.512715,138.196522 227.716466,139.642783 C228.12215,140.128 228.048993,141.023304 227.76967,142 Z" id="Path" fill="#000000" opacity="0.1"></path>
                        <path d="M228.929398,123.741627 C228.895026,124.241148 228.864091,124.74067 228.833156,125.236746 C228.747225,126.755981 228.688793,128.261435 228.650983,129.715215 C228.479122,136.446699 228.757537,142 228.757537,142 C228.757537,142 223.429839,138.785837 217.758418,141.483254 L217.194713,130.590239 L217.194713,130.400766 L216.613822,125.636364 L214.730223,110.247656 C214.730223,110.247656 211.17957,88.8888038 210.089969,88.0861244 C209.000369,87.283445 218.167448,70 218.167448,70 L222.855822,73.8377033 L225.777463,93.5877512 L225.777463,103.691866 C225.777463,103.691866 229.55841,114.671005 228.929398,123.741627 Z" id="Path" fill="#67647E"></path>
                        <path d="M160,56.0731132 L158.921954,58.3195755 C157.62493,60.4669811 155.660865,63 155.660865,63 C155.660865,63 148,59.2995283 148,59.1367925 C148,58.9740566 150.324537,55.1285377 152.214486,52.0966981 C152.797305,51.4068396 153.151039,51 153.151039,51 C150.903987,56.8372642 160,56.0731132 160,56.0731132 Z" id="Path" fill="#000000" opacity="0.1"></path>
                        <path d="M167,55.6123168 L163.762283,57.2239129 C163.762283,57.2239129 159.771527,62.561464 158.615943,63.1365421 C157.460359,63.7116202 156.880832,63.6530793 156.880832,63.6530793 L160.29206,56.9380957 C160.29206,56.9380957 150.92246,57.6819092 153.237098,52 C153.237098,52 142.767437,63.3638185 141.611853,67.957556 C141.611853,67.957556 135.826992,77.482502 137.215081,82.1898777 C138.60317,86.8972534 144.21452,87.813246 148.260799,86.3807162 C152.307078,84.9481864 164.744355,78.6326582 164.744355,78.6326582 L167,55.6123168 Z" id="Path" fill="#67647E"></path>
                        <path d="M155,67 C155,67 146.351432,76.5831215 147.038918,77.886045 C147.726403,79.1889685 154.542822,68.9288711 155,67 Z" id="Path" fill="#000000" opacity="0.1"></path>
                        <path d="M194.2077,40.4680445 C194.2077,40.4680445 206.327022,36.787759 213.172164,50.0671397 C220.017305,63.3465203 220.246617,64.267454 219.90436,64.8986557 C219.562103,65.5298575 206.272261,62.0254807 205.529564,63.5776161 C204.786866,65.1297515 213.059219,71.5107526 213.059219,71.5107526 L181,96 L194.471238,67.1509767 C195.373806,65.1307674 196.577635,63.2615438 198.040979,61.6081287 C200.255382,59.1109153 203.284357,55.2857638 202.20967,54.1061409 C201.265041,53.071384 199.755687,50.3706684 197.715835,47.2629484 C196.230439,44.9864831 193.858598,42.4133876 194.2077,40.4680445 Z" id="Path" fill="#000000" opacity="0.2"></path>
                        <path d="M193.979347,40.4651794 C193.979347,40.4651794 206.205968,36.807423 213.111713,50.0055131 C220.017458,63.2036031 220.248801,64.1188993 219.903513,64.7462371 C219.558226,65.3735748 206.150723,61.8906503 205.401449,63.4332842 C204.652176,64.9759181 212.997768,71.3178575 212.997768,71.3178575 L181,96 L194.245219,66.9847703 C195.155777,64.9769278 196.370265,63.1191468 197.846564,61.4758532 C200.080573,58.9939266 203.136365,55.1921911 202.052163,54.0197893 C201.09917,52.9913667 199.576453,50.3071837 197.518542,47.2184878 C196.019995,44.9559581 193.627154,42.3986139 193.979347,40.4651794 Z" id="Path" fill="#67647E"></path>
                        <path d="M193.979347,40.4651794 C193.979347,40.4651794 206.205968,36.807423 213.111713,50.0055131 C220.017458,63.2036031 220.248801,64.1188993 219.903513,64.7462371 C219.558226,65.3735748 206.150723,61.8906503 205.401449,63.4332842 C204.652176,64.9759181 212.997768,71.3178575 212.997768,71.3178575 L181,96 L194.880547,65.5895436 C195.418561,64.4086821 196.14494,63.3217296 197.031687,62.3705808 C199.220808,60.0326334 203.288291,55.3464544 202.062522,54.0197893 C201.109529,52.9913667 199.586812,50.3071837 197.5289,47.2184878 C196.019995,44.9559581 193.627154,42.3986139 193.979347,40.4651794 Z" id="Path" fill="#000000" opacity="0.1"></path>
                        <circle id="Oval" fill="#444053" cx="196.5" cy="98.5" r="2.5"></circle>
                        <circle id="Oval" fill="#444053" cx="196.5" cy="113.5" r="2.5"></circle>
                        <path d="M228.778281,130.085181 C227.358968,130.445346 220.629002,130.283272 217.568398,131 L217.568398,130.801909 L217,125.820828 C220.450747,125.359817 227.950909,124.484616 228.966626,125.403037 C230.281676,126.602386 230.470021,129.670991 228.778281,130.085181 Z" id="Path" fill="#67647E"></path>
                        <path d="M228.778281,130.085181 C227.358968,130.445346 220.629002,130.283272 217.568398,131 L217.568398,130.801909 L217,125.820828 C220.450747,125.359817 227.950909,124.484616 228.966626,125.403037 C230.281676,126.602386 230.470021,129.670991 228.778281,130.085181 Z" id="Path" fill="#000000" opacity="0.1"></path>
                        <path d="M228.778281,130.085181 C227.358968,130.445346 220.629002,130.283272 217.568398,131 L217.568398,130.801909 L217,125.820828 C220.450747,125.359817 227.950909,124.484616 228.966626,125.403037 C230.281676,126.602386 230.470021,129.670991 228.778281,130.085181 Z" id="Path" fill="#000000" opacity="0.1"></path>
                        <circle id="Oval" fill="#444053" cx="227.5" cy="127.5" r="1.5"></circle>
                        <path d="M199,134 L205.310097,155.777534 C205.310097,155.777534 207,156.574481 207,155.151605 C207,153.728728 199,134 199,134 Z" id="Path" fill="#FFFFFF" opacity="0.1"></path>
                        <path d="M196.87541,44.8917879 C196.460924,45.2140443 196.027832,45.5131622 195.578239,45.7876883 C193.345979,47.1502744 191.359795,48.9999852 188.515861,48.9999852 C186.936551,49.002217 185.367636,48.7524763 183.872057,48.2607822 C182.529186,43.202181 181,38.8487182 181,38.8487182 C181,38.8487182 198.183128,23.2709518 196.935172,36.007726 C196.495751,40.4974475 196.218036,42.6367077 196.87541,44.8917879 Z" id="Path" fill="#000000" opacity="0.1"></path>
                        <path d="M201.999848,34.0000758 C201.999848,41.7320204 195.731869,48 187.999924,48 C180.26798,48 174,41.7320204 174,34.0000758 C174,26.2681311 180.26798,20.0001515 187.999924,20.0001515 C191.71822,19.982825 195.289231,21.4522482 197.918491,24.0815086 C200.547752,26.710769 202.017175,30.2817804 201.999848,34.0000758 Z" id="Path" fill="#EFB7B9"></path>
                        <path d="M180.570039,46.4946023 C180.437941,46.8125108 180.207913,47.0805937 179.913004,47.2603333 L177.681825,48.621633 L173.51034,51.1434407 L166.909196,55.1320487 C166.754063,55.2228021 166.596648,55.3078833 166.436952,55.3872924 C164.868732,56.1796196 163.019899,56.2047553 161.430486,55.4553574 C160.228727,54.9177632 159.359387,53.8392743 159.093222,52.5557891 C158.734922,50.7594617 159.426151,48.9157802 160.879535,47.7912402 C160.91422,47.7600392 160.956819,47.7388569 161.002729,47.7299817 C162.407287,47.3352501 163.728797,46.6919604 164.903872,45.8309687 L169.058246,42.9722393 L172.767754,39.5996194 L174.64304,38.3097879 C175.204278,37.9229005 175.940627,37.8963196 176.528592,38.241723 C178.462053,39.334166 182.281066,42.1962985 180.570039,46.4946023 Z" id="Path" fill="#E1E7EF"></path>
                        <path d="M177,48.3793103 L172.906343,51 C172.053358,47.3784262 169.883955,44.821397 168,42.8903625 L172.177612,39 C175.354478,40.6587091 176.617164,46.2007073 177,48.3793103 Z" id="Path" fill="#A36468"></path>
                        <path d="M166,54.4028744 C164.523919,55.1750517 162.783713,55.1995481 161.287685,54.4692084 C160.156534,53.9452859 159.338271,52.8942245 159.087745,51.64338 C158.750497,49.8927356 159.401112,48.0959415 160.769104,47 C161.744275,47.4250368 162.646892,48.0084537 163.44253,48.7280007 C164.552602,49.7176781 165.356634,51.0206753 165.755204,52.4758717 C165.912931,53.1054995 165.995143,53.7526557 166,54.4028744 L166,54.4028744 Z" id="Path" fill="#000000" opacity="0.1"></path>
                        <path d="M201.999986,34.2797287 C202.002906,36.3594617 201.548307,38.4144981 200.668262,40.2998443 C199.804746,41.1576302 199.146877,42.1991353 198.743887,43.3464193 C197.774727,44.5219242 197.391246,45.1861889 196.097871,46 C195.578429,45.4539814 194.410556,45.123588 194.197899,44.4175895 C193.657539,42.5986868 193.964324,40.6545825 193.992213,38.7591677 C193.992213,37.9175339 193.873683,36.9228759 193.131125,36.5194482 C192.51407,36.1716656 191.73665,36.4220691 191.130054,36.7628959 C190.523457,37.1037228 189.920346,37.5454066 189.223109,37.6253966 C188.177253,37.7436427 187.222037,37.0098215 186.636358,36.1473209 C186.050678,35.2848202 185.712518,34.2762508 185.158214,33.3928832 C184.426115,32.2278117 183.345397,31.3340106 182.28211,30.4645543 C181.06543,29.4629406 179.883613,28.3535143 178.586751,27.4562354 C177.812817,26.9171725 176.885492,26.666769 176.122017,26.1242283 L176,26.0338048 C179.60057,20.9564746 186.08116,18.7878719 192.022522,20.6721814 C197.963884,22.5564909 201.999445,28.0603021 201.999986,34.2797287 L201.999986,34.2797287 Z" id="Path" fill="#000000" opacity="0.1"></path>
                        <path d="M175,18.8500348 C175.297254,16.8808986 176.923611,15.0346202 178.915557,15.000493 C180.558997,14.9731913 181.959851,16.0857362 183.415372,16.8467715 C186.432212,18.4001659 189.986291,18.5253393 193.105179,17.1880429 C194.000359,16.7989935 194.905789,16.2768482 195.879553,16.3553406 C196.853317,16.4338331 197.632328,17.0720106 198.305421,17.7204264 C199.90459,19.3000243 201.157681,21.1943098 201.985225,23.2831507 C202.227812,23.8974393 202.449898,24.5526805 202.921405,25.0133969 C203.280883,25.3141892 203.672809,25.5740221 204.089922,25.7880831 C205.533047,26.7442029 206.528528,28.2418291 206.850629,29.9413564 C207.160351,31.633069 206.986272,33.3777279 206.348371,34.9751101 C205.970189,36.0746281 205.346231,37.0736591 204.523845,37.8963935 C203.902002,38.4799677 203.157158,38.9202078 202.504566,39.4662421 C200.341275,41.3013124 199.303162,44.1372261 199.771193,46.9332611 C197.9535,47.353025 196.210974,45.7251602 195.671133,43.9437233 C195.131292,42.1622864 195.442213,40.2511664 195.469547,38.3912371 C195.469547,37.5653602 195.353379,36.5893239 194.625618,36.1934491 C194.020859,35.8521776 193.258931,36.0978931 192.664423,36.4323391 C192.069914,36.7667851 191.478822,37.2001998 190.795479,37.2786922 C189.770464,37.3947245 188.834284,36.6780545 188.260276,35.8282886 C187.686267,34.9785228 187.358263,33.9922483 186.811588,33.1254189 C186.097494,31.9821596 185.034896,31.105092 183.992797,30.2519134 C182.800363,29.2724644 181.642096,28.1803958 180.374495,27.2999155 C179.612567,26.7709448 178.70372,26.5252294 177.95546,25.9928459 C175.69701,24.3752193 175,21.4266341 175,18.8500348 Z" id="Path" fill="#585268"></path>
                        <path d="M186,41.9314946 C186,41.9314946 185.633987,41.9760433 185,42.0685677 C185.303951,41.9768062 185.649284,41.9294704 186,41.9314946 L186,41.9314946 Z" id="Path" fill="#000000" opacity="0.1"></path>
                        <g id="Group" opacity="0.1" transform="translate(175.000000, 16.000000)" fill="#000000">
                            <path d="M21.3559341,26.8494444 C20.8279121,25.048 21.1276923,23.1225556 21.1549451,21.2453333 C21.1549451,20.4117778 21.0391209,19.4266667 20.3135165,19.0271111 C19.7105495,18.6826667 18.9508791,18.9341111 18.3581319,19.2682222 C17.7653846,19.6023333 17.176044,20.0432222 16.4947253,20.1224444 C15.4727473,20.2395556 14.5393407,19.5162222 13.967033,18.662 C13.3947253,17.8077778 13.0676923,16.8054444 12.5226374,15.9305556 C11.8072527,14.7801111 10.7512088,13.8948889 9.7121978,13.0303333 C8.5232967,12.0417778 7.36846154,10.9395556 6.10461538,10.0508889 C5.34494505,9.517 4.43879121,9.27244444 3.69274725,8.73166667 C1.43417582,7.099 0.739230769,4.123 0.739230769,1.52244444 C0.816080787,1.02884747 0.967753315,0.550185308 1.1889011,0.103333333 C0.592416661,0.803067906 0.200749333,1.65713338 0.0579120879,2.56955556 C0.0579120879,5.17011111 0.739230769,8.14611111 3.01142857,9.77877778 C3.75747253,10.3195556 4.66362637,10.5641111 5.4232967,11.098 C6.68714286,11.9866667 7.84197802,13.0888889 9.03087912,14.0774444 C10.0698901,14.942 11.1259341,15.8272222 11.8413187,16.9776667 C12.3863736,17.8525556 12.71,18.8548889 13.2857143,19.7091111 C13.8614286,20.5633333 14.7982418,21.2866667 15.8134066,21.1695556 C16.4947253,21.0903333 17.0738462,20.6494444 17.6768132,20.3153333 C18.2797802,19.9812222 19.0394505,19.7435556 19.6321978,20.0742222 C20.3578022,20.4737778 20.4872527,21.452 20.4736264,22.2924444 C20.4463736,24.1696667 20.132967,26.0813333 20.6746154,27.8965556 C21.2162637,29.7117778 22.9434066,31.341 24.7625275,30.9138889 C24.7058515,30.5904615 24.669442,30.2637366 24.6535165,29.9356667 C23.140989,29.8013333 21.809011,28.3856667 21.3559341,26.8494444 Z" id="Path"></path>
                            <path d="M30.1756044,20.7458889 C29.5556044,21.3383333 28.812967,21.7792222 28.1623077,22.3303333 C27.4452037,22.9386149 26.8437625,23.6739662 26.3874725,24.5003333 C26.7103331,24.0826467 27.0769755,23.7015365 27.480989,23.3636667 C28.1350549,22.8125556 28.8742857,22.3716667 29.4942857,21.7792222 C29.9881637,21.2974878 30.4063247,20.7422629 30.7342857,20.1327778 C30.5624518,20.3500927 30.3757674,20.5549649 30.1756044,20.7458889 Z" id="Path"></path>
                        </g>
                        <path d="M185.514415,159.487102 C185.284098,160.239757 184.955975,160.97507 184.911804,161.769347 C184.836083,163.122046 185.586981,164.377628 185.640617,165.733796 C185.703717,167.305008 184.832928,168.71667 184,170 C184.987525,170 186.066546,169.621938 186.568196,168.688923 C186.738635,168.329137 186.862864,167.945105 186.937335,167.5478 C187.830209,163.63191 188.697842,159.348363 187.145567,155.692608 C186.905664,155.061341 186.557544,154.486698 186.120181,154 C185.858314,155.84522 186.079166,157.659224 185.514415,159.487102 Z" id="Path" fill="#000000" opacity="0.1"></path>
                        <path d="M159,132 L155.902202,128.074014 C155.156643,127.124912 154.384989,126.137287 154.116588,124.985057 C153.825819,123.720756 154.165049,122.410927 154.209782,121.132617 C154.209782,120.989026 154.209782,120.841933 154.209782,120.69484 C154.251606,120.61047 154.298914,120.528597 154.351439,120.449685 C154.746585,119.840299 155.182737,118.625029 155.641256,117 C156.093083,117.421682 156.44386,117.929143 156.670128,118.488443 C158.112785,121.794537 156.778234,125.674994 157.971128,129.065141 C158.314086,130.038758 158.873255,130.970348 159,132 Z" id="Path" fill="#000000" opacity="0.1"></path>
                        <path d="M166,248 C168.89195,249.795936 172.537126,250.421786 176,249.716926" id="Path" fill="#000000" opacity="0.1"></path>
                        <path d="M190,248.780181 C191.52414,250.333112 193.571416,251.13038 195.655434,250.98257 C197.739451,250.83476 199.674193,249.755065 201,248" id="Path" fill="#000000" opacity="0.1"></path>
                        <path d="M175,196.848315 C172.238356,197.436842 169.386261,196.276319 168,194" id="Path" fill="#000000" opacity="0.1"></path>
                        <path d="M191,205.96968 C193.129939,206.158305 195.2491,205.462627 197,204" id="Path" fill="#000000" opacity="0.1"></path>
                        <path d="M180,226 C178.166093,226.780719 176.528308,228.002399 174.742571,228.89155 C172.956835,229.780702 170.888958,230.362626 169,229.740943" id="Path" fill="#000000" opacity="0.1"></path>
                        <rect id="Rectangle" fill="#9D9CB5" x="145" y="125" width="2" height="65"></rect>
                        <rect id="Rectangle" fill="#9D9CB5" x="151" y="125" width="2" height="65"></rect>
                        <circle id="Oval" fill="#535461" cx="139.5" cy="253.5" r="3.5"></circle>
                        <path d="M127,187.170044 C127,187.170044 130.735427,184.184165 134.008306,185.217341 C137.281185,186.250517 145.803285,187.283693 147.324088,192.563223 C148.84489,197.842753 147.324088,255.817708 147.324088,255.817708 C147.324088,255.817708 140.066987,257.670537 138.094149,256.737235 C136.12131,255.803932 136.342072,247.094258 136.342072,247.094258 L135.760383,195.679971 L127,187.170044 Z" id="Path" fill="#006600"></path>
                        <path d="M127,187.170044 C127,187.170044 130.735427,184.184165 134.008306,185.217341 C137.281185,186.250517 145.803285,187.283693 147.324088,192.563223 C148.84489,197.842753 147.324088,255.817708 147.324088,255.817708 C147.324088,255.817708 140.066987,257.670537 138.094149,256.737235 C136.12131,255.803932 136.342072,247.094258 136.342072,247.094258 L135.760383,195.679971 L127,187.170044 Z" id="Path" fill="#000000" opacity="0.1"></path>
                        <path d="M159.953988,252.551751 L144.66016,256 L144.499962,253.241401 L144.401116,199.079757 C144.391873,193.950697 142.026406,189.117411 138,186 L138,186 C138,186 145.917888,185.893653 151.974748,188.662597 C153.269968,189.252248 154.568597,189.831554 155.901311,190.328101 C157.554421,190.945338 159.797198,192.259121 159.940354,194.852204 C160.124412,198.231488 160.765205,231.707087 160.993573,243.893198 C161.052772,246.814557 160.70277,249.729679 159.953988,252.551751 L159.953988,252.551751 Z" id="Path" fill="#006600"></path>
                        <rect id="Rectangle" fill="#535461" x="143" y="120" width="4" height="6"></rect>
                        <rect id="Rectangle" fill="#000000" opacity="0.1" x="143" y="120" width="4" height="6"></rect>
                        <rect id="Rectangle" fill="#535461" x="150" y="121" width="4" height="6"></rect>
                        <path d="M154,121.342207 L150.521305,121.342207 C149.199996,121.380495 148.014321,122.267013 147.468708,123.624606 C147.418775,123.744732 147.37217,123.868612 147.328895,124 L146.563249,123.166624 L144.972037,121.432302 L144,120.373689 C144,120.373689 150.421438,116.713593 154,121.342207 Z" id="Path" fill="#535461"></path>
                        <circle id="Oval" fill="#535461" cx="155.5" cy="256.5" r="3.5"></circle>
                        <circle id="Oval" fill="#535461" cx="117.5" cy="251.5" r="3.5"></circle>
                        <path d="M124.480519,187 C124.480519,187 114.235844,189.74053 113.675325,215.892043 C113.114805,242.043555 113,244.78066 113,244.78066 C113,244.78066 113.222857,252.317119 128.306234,257 L137.534545,257 L139,196.934423 C139,196.934423 137.311688,187.784477 124.480519,187 Z" id="Path" fill="#006600"></path>
                        <path d="M123.191509,227 C123.191509,227 120.575951,190.158769 134.677073,190 L136,191.31847 C136,191.31847 123.652682,186.731437 123.191509,227 Z" id="Path" fill="#000000" opacity="0.1"></path>
                        <circle id="Oval" fill="#535461" cx="130.5" cy="259.5" r="3.5"></circle>
                        <path d="M149.995705,120.568 C149.997142,120.574733 149.997142,120.581705 149.995705,120.588437 L149.945971,120.588437 C148.629939,120.623178 147.449,121.427565 146.905567,122.659384 C146.855833,122.768381 146.809414,122.880784 146.766311,123 L146.003724,122.243832 C145.998759,122.176941 145.998759,122.109759 146.003724,122.042868 C146.073482,121.513161 146.34248,121.032613 146.753049,120.704247 C147.556486,120.020931 148.648915,119.818174 149.634304,120.169479 C149.829925,120.234196 150.032176,120.377255 149.995705,120.568 Z" id="Path" fill="#000000" opacity="0.1"></path>
                    </g>
                </g>
            </g>
        </g>
    </g>
</svg>