<?xml version="1.0" encoding="UTF-8"?>
<svg width="82px" height="82px" viewBox="0 0 82 82" version="1.1" xmlns="http://www.w3.org/2000/svg" xmlns:xlink="http://www.w3.org/1999/xlink">
    <!-- Generator: Sketch 54.1 (76490) - https://sketchapp.com -->
    <title>southwest</title>
    <desc>Created with Sketch.</desc>
    <g id="flight-search" stroke="none" stroke-width="1" fill="none" fill-rule="evenodd">
        <g id="southwest" transform="translate(-9.000000, -9.000000)">
            <rect id="Rectangle" x="0" y="0" width="100" height="100"></rect>
            <g id="f7" transform="translate(9.000000, 9.000000)">
                <g>
                    <g id="iconfinder_social_media__vintage__google_plus__3047478">
                        <path d="M41.0178189,82 C62.6860679,82 80.4360523,65.2778398 82,44.0499129 L0,44.0499129 C1.56411907,65.2778398 19.3142747,82 41.0178189,82 L41.0178189,82 Z M82,37.9673414 C80.4360523,16.7392437 62.6858966,0 41.0178189,0 C19.3142747,0 1.5642904,16.7390728 0.000171335203,37.9673414 L82,37.9673414 L82,37.9673414 Z" id="Shape" fill="#6F0765"></path>
                        <path d="M40.8371686,70.9365079 C57.3893392,70.9365079 70.8924303,57.4770935 70.8924303,41.0000855 C70.8924303,24.5400024 57.3893392,11.0634921 40.8371686,11.0634921 C24.2674805,11.0634921 10.7808765,24.5400024 10.7808765,41.0000855 C10.7808765,57.4772645 24.2673087,70.9365079 40.8371686,70.9365079 L40.8371686,70.9365079 Z" id="Path" fill="#E9D9A8"></path>
                        <path d="M1.42745718,38.0714286 L80.6067795,38.0714286 C80.6766223,39.081652 80.6932271,40.1267766 80.6932271,41.1538429 C80.6932271,42.1991411 80.6766223,43.2432239 80.6067795,44.2539683 L1.42745718,44.2539683 C1.35881265,43.2433975 1.30677291,42.1991411 1.30677291,41.1538429 C1.30677291,40.126603 1.35881265,39.081652 1.42745718,38.0714286 L1.42745718,38.0714286 Z" id="Path" fill="#E9D9A8"></path>
                        <path d="M40.8537646,67.6825397 C55.6120384,67.6825397 67.625498,55.6867612 67.625498,40.991481 C67.625498,26.2789924 55.6120384,14.3174603 40.8537646,14.3174603 C26.0946353,14.3174603 14.0478088,26.2789924 14.0478088,40.991481 C14.0478088,55.6867612 26.0946353,67.6825397 40.8537646,67.6825397 L40.8537646,67.6825397 Z" id="Path" fill="#6F0765"></path>
                    </g>
                    <g id="noun_Flight_879655" transform="translate(21.137778, 28.300885)" fill="#E9D9A8" fill-rule="nonzero">
                        <path d="M9.54557531,6.35794681 L11.3353707,5.24430223 L21.605387,5.97245445 L17.3865836,8.67090093 L9.54557531,6.35794681 Z M1.70456702,14.967276 L6.86088226,16.5520779 C7.15918149,16.7234079 7.62793742,16.6805754 7.92623664,16.466413 L8.86374851,15.8239257 C16.7899852,10.3842003 24.9719068,5.24430223 33.2390569,0.361399082 L33.2390569,0.361399082 C34.3896396,-0.281088175 35.92375,-0.0669257559 36.6908051,1.00388634 C37.5430886,2.20319588 37.2447894,3.83083027 35.9663641,4.64464746 L27.0173873,10.9410226 L21.4775445,24.1334276 L18.8780797,25.7610619 C18.8780797,25.7610619 20.7957176,14.2819563 20.7531035,14.3247888 L6.86088226,20.2356715 C6.51996885,20.364169 6.17905545,20.364169 5.88075622,20.1500066 L0,16.0380881 L1.70456702,14.967276 Z" id="Shape"></path>
                    </g>
                </g>
            </g>
        </g>
    </g>
</svg>