<?xml version="1.0" encoding="UTF-8"?>
<svg width="215px" height="216px" viewBox="0 0 215 216" version="1.1" xmlns="http://www.w3.org/2000/svg" xmlns:xlink="http://www.w3.org/1999/xlink">
    <!-- Generator: Sketch 54.1 (76490) - https://sketchapp.com -->
    <title>f6</title>
    <desc>Created with Sketch.</desc>
    <g id="flight-search" stroke="none" stroke-width="1" fill="none" fill-rule="evenodd">
        <g id="f6">
            <g id="f3">
                <g id="iconfinder_social_media__vintage__twitter__3047492">
                    <path d="M107.545373,216 C164.359601,216 210.899388,171.951383 215,116.033917 L0,116.033917 C4.10016256,171.951383 50.6412978,216 107.545373,216 L107.545373,216 Z M215,99.9660831 C210.899388,44.0936174 164.359151,0 107.545373,0 C50.6412978,0 4.10016256,44.0931674 0.000449234773,99.9660831 L215,99.9660831 L215,99.9660831 Z" id="Shape" fill="#00028C"></path>
                    <path d="M107.000451,187 C150.507848,187 186,151.481704 186,107.955111 C186,64.5182957 150.507848,29 107.000451,29 C63.4488163,29 28,64.5182957 28,107.955111 C28,151.482155 63.4483649,187 107.000451,187 L107.000451,187 Z" id="Path" fill="#E9D9A8"></path>
                    <path d="M3.3153085,100 L210.773498,100 C210.9547,102.652253 211,105.347523 211,107.954967 C211,110.650685 210.9547,113.347299 210.773498,116 L3.3153085,116 C3.13500406,113.347299 3,110.650685 3,107.954967 C3,105.347523 3.13500406,102.652253 3.3153085,100 L3.3153085,100 Z" id="Path" fill="#E9D9A8"></path>
                    <path d="M107.545257,179 C146.385519,179 178,147.295005 178,108.454743 C178,69.614481 146.385519,38 107.545257,38 C68.7049947,38 37,69.614481 37,108.454743 C37,147.294555 68.7049947,179 107.545257,179 L107.545257,179 Z" id="Path" fill="#00028C"></path>
                </g>
                <g id="noun_Flight_879655" transform="translate(45.000000, 73.000000)" fill="#E9D9A8" fill-rule="nonzero">
                    <path d="M29.2735541,19.4975579 L34.7623455,16.0824067 L66.2575533,18.3153902 L53.3196879,26.5905643 L29.2735541,19.4975579 Z M5.22742038,45.8993038 L21.040367,50.7593266 C21.9551656,51.2847345 23.3927062,51.1533825 24.3075048,50.4966227 L27.182586,48.5263431 C51.4900908,31.844643 76.5817086,16.0824067 101.934697,1.10828224 L101.934697,1.10828224 C105.463206,-0.861997298 110.167885,-0.205237452 112.520224,3.07856178 C115.133934,6.75641692 114.219135,11.7477917 110.29857,14.2434792 L82.854613,33.5522186 L65.8654968,74.0086252 L57.8936807,79 C57.8936807,79 63.7745287,43.7976722 63.6438431,43.9290242 L21.040367,62.055596 C19.994883,62.4496519 18.9493989,62.4496519 18.0346003,61.792892 L0,49.183103 L5.22742038,45.8993038 Z" id="Shape"></path>
                </g>
            </g>
        </g>
    </g>
</svg>