<?xml version="1.0" encoding="UTF-8"?>
<svg width="82px" height="82px" viewBox="0 0 82 82" version="1.1" xmlns="http://www.w3.org/2000/svg" xmlns:xlink="http://www.w3.org/1999/xlink">
    <!-- Generator: Sketch 54.1 (76490) - https://sketchapp.com -->
    <title>united-airlines</title>
    <desc>Created with Sketch.</desc>
    <g id="flight-search" stroke="none" stroke-width="1" fill="none" fill-rule="evenodd">
        <g id="united-airlines" transform="translate(-9.000000, -9.000000)">
            <rect id="Rectangle" x="0" y="0" width="100" height="100"></rect>
            <g id="f6" transform="translate(9.000000, 9.000000)">
                <g id="f3">
                    <g id="iconfinder_social_media__vintage__twitter__3047492">
                        <path d="M41.0173049,82 C62.6859872,82 80.4360457,65.2778398 82,44.0499129 L0,44.0499129 C1.56378293,65.2778398 19.3143554,82 41.0173049,82 L41.0173049,82 Z M82,37.9500871 C80.4360457,16.7392437 62.6858159,0 41.0173049,0 C19.3143554,0 1.56378293,16.7390728 0.000171336053,37.9500871 L82,37.9500871 L82,37.9500871 Z" id="Shape" fill="#00028C"></path>
                        <path d="M40.8094745,70.9907407 C57.4029933,70.9907407 70.9395349,57.5069433 70.9395349,40.9829588 C70.9395349,24.4930567 57.4029933,11.0092593 40.8094745,11.0092593 C24.1990834,11.0092593 10.6790698,24.4930567 10.6790698,40.9829588 C10.6790698,57.5071146 24.1989113,70.9907407 40.8094745,70.9907407 L40.8094745,70.9907407 Z" id="Path" fill="#E9D9A8"></path>
                        <path d="M1.26444324,37.962963 L80.3880319,37.962963 C80.4571413,38.9698368 80.4744186,39.9930411 80.4744186,40.9829041 C80.4744186,42.0062785 80.4571413,43.0299931 80.3880319,44.037037 L1.26444324,44.037037 C1.19567597,43.0299931 1.14418605,42.0062785 1.14418605,40.9829041 C1.14418605,39.9930411 1.19567597,38.9698368 1.26444324,37.962963 L1.26444324,37.962963 Z" id="Path" fill="#E9D9A8"></path>
                        <path d="M41.0172607,67.9537037 C55.8307561,67.9537037 67.8883721,55.9175483 67.8883721,41.172634 C67.8883721,26.4277197 55.8307561,14.4259259 41.0172607,14.4259259 C26.2037654,14.4259259 14.1116279,26.4277197 14.1116279,41.172634 C14.1116279,55.9173774 26.2037654,67.9537037 41.0172607,67.9537037 L41.0172607,67.9537037 Z" id="Path" fill="#00028C"></path>
                    </g>
                    <g id="noun_Flight_879655" transform="translate(17.162791, 27.712963)" fill="#E9D9A8" fill-rule="nonzero">
                        <path d="M11.1647974,7.4018507 L13.2581969,6.10535811 L25.2703227,6.9530648 L20.335881,10.0945661 L11.1647974,7.4018507 Z M1.99371382,17.4247357 L8.02469813,19.2697444 C8.37359804,19.4692048 8.92186934,19.4193397 9.27076926,19.1700142 L10.3673119,18.4220377 C19.6380811,12.08917 29.2079075,6.10535811 38.8774195,0.420736776 L38.8774195,0.420736776 C40.2231763,-0.327239715 42.0175188,-0.0779142179 42.91469,1.16871327 C43.9115469,2.56493605 43.562647,4.45980983 42.0673616,5.40724672 L31.600364,12.7374163 L25.1207941,28.095867 L22.0803806,29.9907407 C22.0803806,29.9907407 24.3233086,16.6268941 24.2734658,16.6767592 L8.02469813,23.5581429 C7.62595536,23.7077382 7.2272126,23.7077382 6.87831268,23.4584127 L0,18.6713632 L1.99371382,17.4247357 Z" id="Shape"></path>
                    </g>
                </g>
            </g>
        </g>
    </g>
</svg>