<?xml version="1.0" encoding="UTF-8"?>
<svg width="500px" height="500px" viewBox="0 0 500 500" version="1.1" xmlns="http://www.w3.org/2000/svg" xmlns:xlink="http://www.w3.org/1999/xlink">
    <!-- Generator: Sketch 54.1 (76490) - https://sketchapp.com -->
    <title>Desktop</title>
    <desc>Created with Sketch.</desc>
    <g id="Desktop" stroke="none" stroke-width="1" fill="none" fill-rule="evenodd">
        <g id="home-page" transform="translate(2.000000, 93.000000)">
            <path d="M114.922639,209.938385 L112.277698,208.29825 C112.025399,208.143045 111.777304,207.975257 111.525004,207.815857 C123.119125,205.826186 131.785286,196.09058 132.394781,184.370655 C133.004275,172.650729 125.394517,162.072825 114.069026,158.897038 L114.19938,169.241217 L108.501614,157.986784 L108.430129,157.986784 C94.5460481,157.343953 82.7666116,168.046851 82.1152776,181.896685 C82.0900476,182.379078 82.1152776,182.848887 82.1152776,183.32289 C80.1347255,181.066131 78.3307832,178.645778 77.1407699,175.994715 C74.7313085,170.629669 74.6850536,164.55152 74.8742783,157.160425 C75.2527277,142.520853 75.8876818,127.76383 76.7118606,113.057144 C89.0028453,111.692074 98.4782601,101.62104 99.0656076,89.2982524 C99.0992476,88.5306187 99.0656076,87.7755692 99.0656076,87.0205197 C99.0656076,86.8317573 99.0656076,86.6471896 99.0361727,86.4584273 C98.9857127,85.7285461 98.9184328,85.0070543 98.804898,84.293952 C98.804898,84.1764999 98.7628481,84.0632424 98.7418231,83.949985 C98.6409032,83.3459454 98.5147534,82.7502952 98.3717836,82.1630345 C98.3171187,81.9407144 98.2624538,81.7435625 98.2035839,81.5044635 C98.0269742,80.8626714 97.8335444,80.2460477 97.6064748,79.6084503 C97.5307849,79.4029091 97.44248,79.1889784 97.3625851,78.9960213 C97.1859754,78.5387968 96.9925457,78.0857671 96.786501,77.6411269 C96.6771711,77.4062226 96.5720463,77.1713183 96.4585115,76.9406087 C96.4248715,76.8818826 96.4038465,76.8189618 96.3702066,76.7602358 L96.3702066,76.7602358 C90.8861639,65.9621385 78.458015,60.6064658 66.8175101,64.0250673 L66.9857099,77.490117 L61.3510182,66.3657208 C51.8498358,71.798136 46.9876076,82.7577141 49.3457609,93.4258564 L49.3205309,93.4258564 C49.3583759,93.6062293 49.4130408,93.7782128 49.4550907,93.954391 C49.5349856,94.2857739 49.6190855,94.612962 49.7115954,94.9401501 C49.8293352,95.3596221 49.963895,95.779094 50.1026598,96.198566 C50.2077846,96.5089752 50.3087045,96.8151897 50.4264443,97.1214042 C50.598849,97.5660445 50.7922788,97.9981006 50.9857085,98.4301567 C51.0992433,98.6818399 51.2001632,98.9419125 51.322108,99.189401 C51.6416875,99.8409807 51.9893003,100.474383 52.3649464,101.089609 C52.4953013,101.307734 52.642476,101.509081 52.7854458,101.723012 C53.0545654,102.142483 53.323685,102.561955 53.6264446,102.952064 C53.8072593,103.199553 54.000689,103.438652 54.1899138,103.677751 C54.4674433,104.025913 54.7491779,104.36988 55.0309125,104.701262 C55.2369572,104.940361 55.4514119,105.171071 55.6658666,105.397586 C55.9770361,105.724774 56.2924107,106.039378 56.6204002,106.345592 C56.8390599,106.551134 57.0408996,106.765064 57.2805842,106.958021 C57.6506237,107.289404 58.0374831,107.599814 58.4285475,107.906028 C58.6261822,108.061233 58.8196119,108.220632 59.0214516,108.371642 C59.6185608,108.791114 60.2324898,109.210586 60.8674439,109.630058 C60.9851837,109.701368 61.1155385,109.760094 61.2332784,109.831404 C61.7673126,110.141814 62.3055518,110.439639 62.860611,110.708101 C63.1002956,110.825553 63.3441853,110.930421 63.5880749,111.039484 C64.0422142,111.24083 64.5005586,111.437982 64.9715179,111.618355 L65.8125166,111.911985 C66.2750659,112.06719 66.7460253,112.214005 67.2211896,112.331457 C67.4987191,112.406962 67.7804537,112.486662 68.0621883,112.553777 C68.5751976,112.675424 69.1008218,112.776097 69.630651,112.868381 L69.7315709,112.889355 C69.3867614,119.094743 69.0783951,125.30153 68.8064722,131.509715 C65.7753399,125.296237 60.3101302,120.604405 53.6992929,118.540341 C47.0884555,116.476277 39.9169844,117.22263 33.8755887,120.603444 L38.3244721,132.768131 L29.1702006,124.001167 C24.2625178,128.477772 21.3374043,134.715039 21.0377426,141.342137 C20.9083048,143.670388 21.1121948,146.005157 21.6432617,148.276009 C23.9986342,158.297275 32.24826,165.868495 42.4551705,167.376456 C52.662081,168.884416 62.7574337,164.023468 67.9234235,155.113401 C67.9234235,155.742609 67.8813736,156.371817 67.8645536,157.00522 C67.6963539,163.523814 67.4861042,171.636402 70.7449744,178.880682 C72.9525961,183.788504 76.5016109,187.777682 79.9959607,191.351583 C82.2792724,193.675458 84.6466839,195.928022 87.0729653,198.105082 C89.4617591,201.304062 92.5775398,203.891806 96.1641619,205.655577 C100.150496,208.717722 104.2798,211.599494 108.547869,214.258946 L111.213835,215.911666 C113.610681,217.392402 116.066398,218.915085 118.471654,220.496494 C118.051155,220.454547 117.630655,220.408405 117.210156,220.387432 C106.260025,219.878505 96.2376605,226.493998 92.4259224,236.746838 L108.152599,249.511369 L90.8532547,245.509607 C90.8627322,254.140581 95.3130458,262.162423 102.63917,266.75412 C109.965293,271.345816 119.141381,271.864412 126.940512,268.127534 L125.771523,269.574713 C124.997804,270.533905 124.233897,271.487505 123.479802,272.435511 C113.244847,285.367832 110.398066,297.641581 115.465083,307 L121.629604,303.681977 C116.697147,294.571046 124.114756,282.909726 128.975729,276.768657 C129.715807,275.837429 130.4671,274.900608 131.229605,273.958194 C137.768371,265.853996 145.17757,256.667561 144.996755,245.400544 C144.73184,228.395151 128.20201,218.160036 114.922639,209.938385 Z" id="Path" fill="#F2F2F2" fill-rule="nonzero"></path>
            <ellipse id="Oval" fill="#3F3D56" fill-rule="nonzero" cx="251.5" cy="305.5" rx="246.5" ry="8.5"></ellipse>
            <path d="M48.772505,303 C47.5474603,300.682965 48.9358442,297.840287 50.5243188,295.775561 C52.1127933,293.710834 54.0401968,291.570416 53.999362,288.925379 C53.9381098,285.140749 50.0383844,282.907817 46.9226876,280.897757 C44.6091692,279.41057 42.4761404,277.644553 40.5687895,275.637121 C39.7669788,274.872625 39.1021147,273.968742 38.6046346,272.966854 C37.9594444,271.486642 37.9757784,269.804584 38.0166132,268.185604 C38.1554516,262.786197 38.4154333,257.390996 38.7965583,252" id="Path" stroke="#3F3D56" stroke-width="4"></path>
            <path d="M34.0053783,251.258453 C34.0902675,249.381499 35.1272399,247.677721 36.7553256,246.740204 L37.9888734,249.183988 L37.9495884,246.225516 C38.5396473,246.052564 39.1542087,245.978225 39.7684822,246.005497 C42.7987832,246.15362 45.136813,248.727885 44.9937714,251.758751 C44.8507298,254.789616 42.2806497,257.132194 39.2498705,256.994204 C36.2190913,256.856214 33.8724692,254.28978 34.0053783,251.258453 L34.0053783,251.258453 Z" id="Path" fill="#57B894" fill-rule="nonzero"></path>
            <path d="M44.6053917,291.021457 C45.798118,293.331495 48.4465342,294.491598 50.9548291,293.802742 C53.4631239,293.113887 55.1462211,290.764216 54.9899653,288.169531 C54.8337095,285.574847 52.880778,283.44382 50.3079155,283.060507 C47.7350531,282.677194 45.2449711,284.146288 44.3380759,286.582581 L47.7856635,289.383394 L44,288.51526 C44.0002148,289.386792 44.2077135,290.245794 44.6053917,291.021457 L44.6053917,291.021457 Z" id="Path" fill="#57B894" fill-rule="nonzero"></path>
            <path d="M47.1795726,279.986196 C49.9864004,280.186105 52.480713,278.19348 52.9297163,275.392594 C53.3787195,272.591708 51.6340296,269.90818 48.9076794,269.206252 L48.9387464,271.469531 L47.7038297,269.006551 L47.7038297,269.006551 C46.2595608,268.935328 44.8466523,269.447177 43.7775604,270.428905 C42.7084684,271.410633 42.0712789,272.781352 42.0069025,274.237937 C41.9749983,274.87208 42.0538655,275.506944 42.2399057,276.113561 C42.9109482,278.326207 44.8874938,279.875794 47.1795726,279.986196 Z" id="Path" fill="#57B894" fill-rule="nonzero"></path>
            <path d="M33.2758429,269.996263 C35.604879,270.081538 37.7368322,268.700756 38.6036647,266.545642 C39.4704972,264.390528 38.8854939,261.925292 37.141722,260.384936 C35.3979501,258.84458 32.8710169,258.560896 30.8268322,259.675999 L31.804859,262.347403 L29.7935942,260.422421 C28.7157748,261.405769 28.0733364,262.774722 28.0071177,264.229172 C27.9808611,264.739903 28.0273316,265.251764 28.1451457,265.749515 C28.7065976,268.150627 30.8034299,269.886204 33.2758429,269.996263 L33.2758429,269.996263 Z" id="Path" fill="#57B894" fill-rule="nonzero"></path>
            <path d="M34.6333353,253.236928 C35.9239053,253.394018 37.1786262,253.847333 38.4731794,253.937099 C39.7677327,254.026864 41.1897497,253.681267 42.0102973,252.545735 C42.4484538,251.93533 42.6715153,251.163347 43.0419566,250.494594 C43.3957507,249.873319 43.8800763,249.35996 44.4520239,249 C45.3744274,251.168165 45.1179126,253.739345 43.7913139,255.622634 C42.4647152,257.505924 40.3006525,258.371087 38.217298,257.851052 C36.1339435,257.331017 34.4966146,255.516971 34,253.178581 C34.209784,253.178581 34.4208958,253.19803 34.6333353,253.236928 Z" id="Path" fill="#000000" fill-rule="nonzero" opacity="0.1"></path>
            <path d="M33.1564716,269.991888 C35.1125953,270.104214 36.9767241,269.043791 38.0641218,267.200134 C39.1515195,265.356477 39.301864,263.001409 38.4599305,261 C38.0175382,261.336608 37.6370767,261.767187 37.3396493,262.267856 C36.9423864,262.946744 36.7000561,263.733534 36.2352586,264.353974 C35.365253,265.509432 33.8834626,265.887091 32.5367416,265.819652 C31.1900206,265.752213 29.8909711,265.316106 28.5641132,265.176732 C28.3773997,265.176732 28.1906862,265.14526 28,265.140764 C28.5674181,267.880487 30.6727216,269.861122 33.1564716,269.991888 L33.1564716,269.991888 Z" id="Path" fill="#000000" fill-rule="nonzero" opacity="0.1"></path>
            <path d="M48.1078075,280.991825 C50.0614541,281.10418 51.9254912,280.052202 53.026751,278.215798 C54.1280108,276.379394 54.3073677,274.023913 53.5000497,272 C53.0335883,272.346043 52.6263621,272.785479 52.2982127,273.296898 C51.8615452,273.997678 51.5891288,274.80767 51.0963756,275.453844 C50.1469244,276.65063 48.5524872,277.073829 47.118295,277.037424 C45.6841028,277.00102 44.3821126,276.614226 43,276.491362 C43.6937374,279.067264 45.7387912,280.86915 48.1078075,280.991825 Z" id="Path" fill="#000000" fill-rule="nonzero" opacity="0.1"></path>
            <path d="M45,290.218809 C46.2969975,293.43965 49.6982857,294.882387 52.5969899,293.441253 C55.4956941,292.000119 56.7941341,288.220841 55.4971368,285 C55.0219559,285.345262 54.596074,285.767771 54.2337065,286.253426 C53.6840323,286.991808 53.3230522,287.835021 52.691337,288.532382 C51.5140497,289.817713 49.6148022,290.355547 47.920657,290.396568 C46.944794,290.401704 45.9695198,290.342346 45,290.218809 Z" id="Path" fill="#000000" fill-rule="nonzero" opacity="0.1"></path>
            <path d="M59,300.573863 C59,300.573863 54.430934,300.427632 53.0536163,299.404014 C51.6762986,298.380396 46.0433165,297.163236 45.6886778,298.801885 C45.3340391,300.440535 38.8227077,306.973628 43.9773399,306.999434 C49.1319721,307.025239 55.9608289,306.165056 57.3381466,305.279067 C58.7154643,304.393078 59,300.573863 59,300.573863 Z" id="Path" fill="#656380" fill-rule="nonzero"></path>
            <path d="M43.8711059,306.369246 C49.0351568,306.415907 55.8668948,305.436023 57.2414983,304.5028 C58.2899946,303.779552 58.7069164,301.194525 58.8472663,300 L59,300 C59,300 58.7110443,304.171506 57.3488247,305.132725 C55.986605,306.093945 49.1383552,307.031834 43.9743044,306.999171 C42.4841186,306.999171 41.9722542,306.38791 42.0011498,305.501348 C42.1951629,306.047284 42.7606905,306.355247 43.8711059,306.369246 Z" id="Path" fill="#000000" fill-rule="nonzero" opacity="0.2"></path>
            <rect id="Rectangle" fill="#F2F2F2" fill-rule="nonzero" x="76" y="110" width="349" height="191" rx="20.42"></rect>
            <path d="M78,120 L189,120 L189,301 L86.4575373,301 C81.7865684,301 78,297.187179 78,292.483825 L78,120 Z" id="Path" fill="#006600" fill-rule="nonzero"></path>
            <path d="M425,119.295625 L425,124 L76,124 L76,119.295625 C76,114.714078 79.8257537,111 84.54506,111 L416.45494,111 C421.174246,111 425,114.714078 425,119.295625 Z" id="Path" fill="#3F3D56" fill-rule="nonzero"></path>
            <circle id="Oval" fill="#006600" fill-rule="nonzero" cx="85.5" cy="117.5" r="2.5"></circle>
            <circle id="Oval" fill="#006600" fill-rule="nonzero" cx="91.5" cy="117.5" r="2.5"></circle>
            <circle id="Oval" fill="#006600" fill-rule="nonzero" cx="97.5" cy="117.5" r="2.5"></circle>
            <path d="M162,205.5 C161.999997,220.687831 149.687828,233 134.5,233 C119.312169,233 107,220.687831 107,205.5 C107,190.312172 119.312169,178.000003 134.5,178 C141.794461,177.99671 148.791106,180.892965 153.949071,186.050929 C159.107035,191.208894 162.00329,198.205539 162,205.5 L162,205.5 Z" id="Path" stroke="#F2F2F2" stroke-width="2"></path>
            <path d="M135.758711,194.691258 L139.213027,200.26856 L154,224.11796 C148.224376,230.386302 140.003048,233.616863 131.645264,232.902228 C123.287481,232.187593 115.694839,227.604853 111,220.441231 L129.120596,184 L129.499322,184.613503" id="Path" stroke="#F2F2F2" stroke-width="2" stroke-linecap="round" stroke-linejoin="round"></path>
            <path d="M162,213.209781 C160.782455,217.631259 158.422879,221.68643 155.139647,225 L140,202.258215 L146.685648,192.120754 C146.737753,192.045339 146.825746,192 146.920008,192 C147.014269,192 147.102263,192.045339 147.154368,192.120754 C148.556266,194.113064 155.902382,204.618713 162,213.209781 Z" id="Path" stroke="#F2F2F2" stroke-width="2"></path>
            <path d="M141.9838,190.054173 C141.985558,192.951321 139.927888,195.443748 137.07511,196 L131,186.510089 C132.542726,184.38124 135.286467,183.48621 137.793572,184.293973 C140.300676,185.101736 141.99954,187.428126 142,190.054173 L141.9838,190.054173 Z" id="Path" stroke="#F2F2F2" stroke-width="2"></path>
            <g id="Group"></g>
            <g id="Group"></g>
            <path d="M235.774627,174.195571 C235.621038,174.195571 235.111999,174.195571 234.971575,174.195571 L232.070934,174.263698 C232.040748,174.264908 232.012207,174.251109 231.996333,174.22763 L227.651953,168.300571 C227.52175,168.112381 227.294516,167.998777 227.050761,168.00001 L225.99319,168.00001 C225.743059,168.00001 225.655294,168.228436 225.747447,168.440832 L227.981073,174.25969 C227.992817,174.284255 227.990338,174.312555 227.974466,174.335102 C227.958594,174.357649 227.931431,174.371458 227.902084,174.3719 L222.438698,174.444034 C222.324525,174.448187 222.215126,174.401962 222.144684,174.319802 L220.490309,172.484378 C220.356335,172.325437 220.14823,172.233383 219.928611,172.235914 L219.178219,172.235914 C219.120275,172.235211 219.065686,172.260669 219.032337,172.303948 C218.998988,172.347226 218.991178,172.402747 219.011465,172.452318 L219.889117,175.257552 C219.955068,175.413577 219.955068,175.586433 219.889117,175.742457 L219.011465,178.547691 C218.990715,178.596826 218.998455,178.6522 219.032057,178.694999 C219.065658,178.737797 219.120602,178.762265 219.178219,178.760088 L219.924223,178.760088 C220.143384,178.760764 220.350636,178.669087 220.485921,178.511624 L222.171014,176.652154 C222.240998,176.569015 222.350231,176.521371 222.465027,176.523915 L227.897696,176.632117 C227.9262,176.634322 227.951967,176.64849 227.967436,176.670465 C227.982905,176.69244 227.986322,176.71973 227.976685,176.744326 L225.743059,182.559177 C225.650906,182.771573 225.743059,182.999999 225.988802,182.999999 L227.046373,182.999999 C227.290994,183.000369 227.518418,182.885154 227.647565,182.695431 L231.996333,176.760356 C232.012821,176.737486 232.040953,176.723885 232.070934,176.724289 L234.971575,176.792416 C235.116388,176.792416 235.621038,176.792416 235.774627,176.792416 C237.749345,176.792416 239,176.211332 239,175.489986 C239,174.76864 237.744957,174.195571 235.774627,174.195571 Z" id="Path" fill="#3F3D56" fill-rule="nonzero"></path>
            <path d="M229.597789,224.036346 C229.538191,223.987885 229.453826,223.987885 229.394228,224.036346 L223.059871,229.225816 C223.023145,229.257338 223.001353,229.303444 223,229.352488 L223,238.91419 C222.999949,238.960031 223.035102,238.997817 223.079828,239 L227.470372,239 C227.515098,238.997817 227.55025,238.960031 227.5502,238.91419 L227.5502,233.083186 C227.552332,233.037398 227.589242,233.00141 227.634019,233.001462 L231.369972,233.001462 C231.41406,233.001462 231.4498,233.038051 231.4498,233.083186 L231.4498,238.901931 C231.44975,238.947772 231.484902,238.985559 231.529628,238.987741 L235.920172,238.987741 C235.964898,238.985559 236.000051,238.947772 236,238.901931 L236,229.34023 C235.999728,229.290922 235.977728,229.244375 235.940129,229.213557 L229.597789,224.036346 Z" id="Path" fill="#3F3D56" fill-rule="nonzero"></path>
            <path d="M237.765571,228.747022 L229.587094,221.234026 C229.41879,221.08164 229.210399,220.999146 228.99593,221.000007 C228.780171,220.999193 228.570448,221.081622 228.400513,221.234026 L224.840771,224.554175 L224.840771,222.462627 C224.841937,222.435933 224.833492,222.40986 224.817413,222.390505 C224.801333,222.37115 224.779027,222.360211 224.755711,222.360244 L222.161395,222.360244 C222.138079,222.360211 222.115773,222.37115 222.099694,222.390505 C222.083614,222.40986 222.075169,222.435933 222.076335,222.462627 L222.076335,227.035755 L220.230543,228.776274 C220.097716,228.894658 220.014383,229.071564 220.000882,229.263814 C219.991673,229.461104 220.054905,229.653809 220.175254,229.795233 C220.287533,229.925764 220.44064,229.99948 220.600552,230 C220.739233,229.999682 220.873885,229.946514 220.98332,229.848863 L228.936389,222.506506 C228.955706,222.499074 228.976613,222.499074 228.99593,222.506506 C229.014009,222.500675 229.03314,222.500675 229.051219,222.506506 L237.008541,229.81961 C237.196372,229.989266 237.453164,230.018079 237.666127,229.893394 C237.87909,229.76871 238.009268,229.513335 237.999485,229.239437 C237.982928,229.047102 237.8984,228.870923 237.765571,228.751897 L237.765571,228.747022 Z" id="Path" fill="#3F3D56" fill-rule="nonzero"></path>
            <rect id="Rectangle" fill="#006600" fill-rule="nonzero" opacity="0.3" x="257" y="172" width="147" height="5" rx="1.24"></rect>
            <rect id="Rectangle" fill="#006600" fill-rule="nonzero" opacity="0.3" x="257" y="227" width="147" height="5" rx="1.24"></rect>
            <rect id="Rectangle" fill="#006600" fill-rule="nonzero" x="373" y="180" width="31" height="11" rx="1.24"></rect>
            <rect id="Rectangle" fill="#006600" fill-rule="nonzero" x="373" y="235" width="31" height="11" rx="1.24"></rect>
            <path d="M409.517442,256 L408.767494,256.728854 C408.767494,256.728854 399.642394,257.457708 400.010866,258.693115 C400.379338,259.928523 411,257.034973 411,257.034973 L409.517442,256 Z" id="Path" fill="#FFC1C7" fill-rule="nonzero"></path>
            <path d="M425.297542,253 C425.297542,253 416.037476,257.012539 411,255.287147 L413.341768,261 C413.341768,261 425.297542,260.568652 427.408837,257.990596 C429.520132,255.412539 425.297542,253 425.297542,253 Z" id="Path" fill="#FF6584" fill-rule="nonzero"></path>
            <path d="M425.297542,253 C425.297542,253 416.037476,257.012539 411,255.287147 L413.341768,261 C413.341768,261 425.297542,260.568652 427.408837,257.990596 C429.520132,255.412539 425.297542,253 425.297542,253 Z" id="Path" fill="#000000" fill-rule="nonzero" opacity="0.1"></path>
            <circle id="Oval" fill="#FFC1C7" fill-rule="nonzero" cx="419" cy="222" r="6"></circle>
            <path d="M424.29484,227.286715 C424.508141,227.759549 424.777031,228.193658 425.093366,228.575891 C425.919067,229.645946 426.904734,230.523516 428,231.163757 C424.578786,231.993992 421.122947,232.606938 417.647113,233 C418.014435,231.458698 417.531327,229.812739 416.884521,228.41415 C416.237715,227.01556 415.407248,225.707356 415,224.180325 L419.072482,224.313524 C419.811118,224.313524 420.553747,224.361095 421.292383,224.313524 C421.847359,224.280224 422.765663,223.885384 423.288698,224.032855 C424.342752,224.332552 423.80774,226.135496 424.29484,227.286715 Z" id="Path" fill="#FFC1C7" fill-rule="nonzero"></path>
            <path d="M439.081181,257.812855 L442.642468,262.134197 C442.642468,262.134197 448.572385,276.181719 435.644999,277.606707 C422.717613,279.031696 413.080456,276.52321 413.080456,276.52321 C413.080456,276.52321 407.85529,273.993644 407.734356,275.924546 C407.613423,277.855448 407.142198,283.247639 404.289833,288.530215 L401.787759,294.293409 C401.013471,295.131966 400.6643,296.284294 400.84114,297.417423 C401.195601,299.217631 392.880373,299.816295 393.001307,297.417423 C393.001307,297.417423 394.189792,295.376907 394.189792,294.175363 C394.189792,292.973819 396.087199,290.09433 396.087199,290.09433 L399.531721,272.808964 C399.531721,272.808964 399.294024,263.921757 407.371555,265.603918 C415.449086,267.286079 426.97114,265.241347 426.97114,265.241347 L429.581638,256 L439.081181,257.812855 Z" id="Path" fill="#575A89" fill-rule="nonzero"></path>
            <path d="M439.081181,257.812855 L442.642468,262.134197 C442.642468,262.134197 448.572385,276.181719 435.644999,277.606707 C422.717613,279.031696 413.080456,276.52321 413.080456,276.52321 C413.080456,276.52321 407.85529,273.993644 407.734356,275.924546 C407.613423,277.855448 407.142198,283.247639 404.289833,288.530215 L401.787759,294.293409 C401.013471,295.131966 400.6643,296.284294 400.84114,297.417423 C401.195601,299.217631 392.880373,299.816295 393.001307,297.417423 C393.001307,297.417423 394.189792,295.376907 394.189792,294.175363 C394.189792,292.973819 396.087199,290.09433 396.087199,290.09433 L399.531721,272.808964 C399.531721,272.808964 399.294024,263.921757 407.371555,265.603918 C415.449086,267.286079 426.97114,265.241347 426.97114,265.241347 L429.581638,256 L439.081181,257.812855 Z" id="Path" fill="#000000" fill-rule="nonzero" opacity="0.1"></path>
            <path d="M455,272.474277 L455,276.526102 C455,276.787829 454.801577,277 454.556809,277 L454.556809,277 C454.312041,277 454.113618,276.787829 454.113618,276.526102 L454.113618,273.151951 C454.113618,272.890225 453.915195,272.678053 453.670427,272.678053 L445.329573,272.678053 C445.084805,272.678053 444.886382,272.890225 444.886382,273.151951 L444.886382,276.526102 C444.886382,276.787829 444.687959,277 444.443191,277 L444.443191,277 C444.198423,277 444,276.787829 444,276.526102 L444,272.474277 C444,272.212551 444.198423,272.00038 444.443191,272.00038 L454.539081,272.00038 C454.659663,271.995218 454.776999,272.042858 454.863989,272.132297 C454.950978,272.221736 455.000096,272.345238 455,272.474277 Z" id="Path" fill="#3C354C" fill-rule="nonzero"></path>
            <path d="M420.002238,303.125959 C419.947758,304.387934 420.89409,305.476157 422.168317,305.616817 L479.008928,306.999243 C479.058457,307.003857 479.1076,306.987215 479.143781,306.953578 L479.143781,306.953578 C479.16939,306.932717 479.185967,306.903026 479.190137,306.870549 L479.944472,303.416559 C479.985669,303.219979 480.004049,303.019423 479.999256,302.818753 L478.785578,277.75657 C478.773138,277.345221 478.651055,276.944335 478.431588,276.59417 L477.588756,275.199289 C477.560526,275.15498 477.524908,275.115681 477.483402,275.083049 C477.409305,275.028294 477.31896,274.999114 477.226338,275.00002 L423.706486,275.784641 C422.414492,275.803019 421.360216,276.808861 421.3002,278.080382 L420.002238,303.125959 Z" id="Path" fill="#3F3D56" fill-rule="nonzero"></path>
            <path d="M475,275 L476.989467,307 L476.989467,307 L477.044178,306.916645 L477.934465,303.449075 C477.983086,303.251723 478.004778,303.050378 477.999122,302.848919 L476.566706,277.6882 C476.552024,277.275233 476.407938,276.872772 476.148917,276.521229 L475.154184,275.120865 C475.112454,275.072709 475.060119,275.031684 475,275 Z" id="Path" fill="#000000" fill-rule="nonzero" opacity="0.1"></path>
            <path d="M425.844572,256.9996 C425.844572,256.9996 436.751193,252.750289 442.828097,261.774108 C442.828097,261.774108 444.376619,275.741712 438.178344,276.358057 C431.980069,276.974403 423.87753,276.85287 421.969081,274.752086 C420.060632,272.651303 408.024009,266.717893 408.024009,266.717893 C408.024009,266.717893 402.030808,263.549356 400.858954,267.668454 C399.687099,271.787552 399.561543,272.777177 399.561543,272.777177 C399.561543,272.777177 393.363268,277.473556 390.860521,278.337307 C390.860521,278.337307 389.186443,280.81137 388.240588,280.81137 C387.294734,280.81137 381.448016,282.169935 382.042313,277.595088 L391.69756,268.449737 L401.348622,258.683699 C401.348622,258.683699 404.089925,254.482133 411.125239,256.704449 C415.792009,258.14599 420.525895,259.342583 425.308867,260.28967 L425.844572,256.9996 Z" id="Path" fill="#575A89" fill-rule="nonzero"></path>
            <path d="M400.885246,297.391188 C400.885246,297.391188 403.134675,303.763624 401.242826,304.560761 C399.350978,305.357898 395.321965,304.826474 395.321965,304.826474 C395.321965,304.826474 390.58195,304.159862 389.401105,304.295049 C388.220259,304.430236 383.359664,303.362724 384.070667,301.241687 C384.781669,299.120649 388.453102,299.647412 388.453102,299.647412 L391.779428,297.922613 C391.779428,297.922613 392.137008,296.59405 392.964432,297.125475 C393.791855,297.6569 396.149389,299.647412 400.885246,297.391188 Z" id="Path" fill="#CBCEDA" fill-rule="nonzero"></path>
            <path d="M387.263746,279.027672 C387.263746,279.027672 389.671348,285.519692 385.779058,284.96656 C381.886769,284.413428 378.921406,283.447874 377.781808,283.312017 C376.64221,283.17616 373.572518,281.895223 374.050026,279.338202 C374.075582,279.178409 374.086349,279.015672 374.082127,278.852999 C374.082127,278.508504 374.483394,277.838924 377.553086,277.940817 C377.553086,277.940817 379.836295,277.940817 380.763222,276.000003 C380.751184,275.995151 384.178003,281.245051 387.263746,279.027672 Z" id="Path" fill="#CBCEDA" fill-rule="nonzero"></path>
            <path d="M416,231.369343 C416,231.369343 424.687755,226.038321 431.930377,231.369343 C439.172998,236.700364 444,261 444,261 L427.222037,257.325299 C427.222037,257.325299 426.501589,254.48292 425.526865,253.996012 C424.552142,253.509104 424.437718,251.499046 424.437718,251.499046 C424.437718,251.499046 419.250492,249.959251 419.610716,244.033119 C419.97094,238.106988 416,231.369343 416,231.369343 Z" id="Path" fill="#FF6584" fill-rule="nonzero"></path>
            <path d="M419.579738,233 L415.587853,233 C415.587853,233 413.213175,236.032852 412.891248,243.674616 L411.595969,249.753098 C411.595969,249.753098 408.899364,257.032794 410.51657,258.246786 C412.133775,259.460779 415.265927,259.33725 415.909779,256.913524 C416.553632,254.489799 421,240.403225 421,240.403225 L419.579738,233 Z" id="Path" fill="#FF6584" fill-rule="nonzero"></path>
            <path d="M417.81303,213.485591 C420.070831,212.553074 422.654726,212.98434 424.497331,214.601238 C426.815856,216.695222 427.282104,220.11511 427.888226,223.183139 C428.494349,226.251169 429.65573,229.709675 432.550706,230.90685 C431.254698,231.08305 429.93897,231.043917 428.655416,230.790995 L433,234.734378 L425.679906,232.318573 C423.382575,231.559075 420.970801,230.790995 418.592936,231.22009 C414.65102,231.928096 411.904396,235.682678 408.119309,237 L408.543171,234.918889 L406,234.918889 C406.60672,234.465562 407.103834,233.87868 407.453846,233.202509 C407.213904,232.903178 406.862883,232.716966 406.483203,232.687595 C405.423548,225.998003 409.348509,219.385648 414.456044,215.021751 C415.464835,214.163561 416.575353,213.339699 417.87237,213.125151 C419.169388,212.910604 420.686813,213.498464 421.140345,214.747131" id="Path" fill="#3C354C" fill-rule="nonzero"></path>
        </g>
    </g>
</svg>