<?xml version="1.0" encoding="UTF-8"?>
<svg width="300px" height="300px" viewBox="0 0 300 300" version="1.1" xmlns="http://www.w3.org/2000/svg" xmlns:xlink="http://www.w3.org/1999/xlink">
    <!-- Generator: Sketch 53.2 (72643) - https://sketchapp.com -->
    <title>logo</title>
    <desc>Created with Sketch.</desc>
    <g id="New-Logo-Page" stroke="none" stroke-width="1" fill="none" fill-rule="evenodd">
        <g id="social-logo" transform="translate(-207.000000, -66.000000)">
            <g id="logo" transform="translate(207.000000, 66.000000)">
                <g>
                    <circle id="Oval" fill="#F8E013" cx="150" cy="150" r="150"></circle>
                    <g id="renewable-energy" transform="translate(105.000000, 87.000000)" fill="#000000" fill-rule="nonzero">
                        <path d="M90.5258776,61.4813047 C90.0071846,59.5526816 88.4001431,58.0027049 86.2683623,57.3786043 L54.4842697,48.0414504 L77.0571341,8.26226733 C78.4741465,5.75939558 77.6263576,2.71576349 75.0514634,1.0767383 C72.4640446,-0.556578646 68.9212978,-0.311124445 66.6815459,1.67305882 L1.89890209,58.7554312 C0.310863546,60.1547104 -0.34084985,62.1780902 0.171796804,64.1013856 C0.690489839,66.0300087 2.29753129,67.5799854 4.42931215,68.204086 L36.2134047,77.5412399 L13.6405403,117.320423 C12.223528,119.823295 13.0713168,122.866927 15.646211,124.505952 C18.2249921,126.134322 21.7608288,125.896098 24.0161286,123.909631 L88.7987723,66.8272592 C90.3868109,65.4279799 91.0385243,63.4046001 90.5258776,61.4813047 Z" id="Path"></path>
                    </g>
                </g>
            </g>
        </g>
    </g>
</svg>